<svg xmlns="http://www.w3.org/2000/svg" xmlns:rdkit="http://www.rdkit.org/xml" xmlns:xlink="http://www.w3.org/1999/xlink" version="1.1" baseProfile="full" xml:space="preserve" width="1200px" height="260px" viewBox="0 0 1200 260">
<!-- END OF HEADER -->
<rect style="opacity:1.0;fill:#FFFFFF;stroke:none" width="300.0" height="260.0" x="0.0" y="0.0"> </rect>
<path class="bond-0 atom-0 atom-1" d="M 255.5,118.4 L 218.4,67.4" style="fill:none;fill-rule:evenodd;stroke:#000000;stroke-width:2.0px;stroke-linecap:butt;stroke-linejoin:miter;stroke-opacity:1"/>
<path class="bond-1 atom-1 atom-2" d="M 218.4,67.4 L 158.4,86.9" style="fill:none;fill-rule:evenodd;stroke:#000000;stroke-width:2.0px;stroke-linecap:butt;stroke-linejoin:miter;stroke-opacity:1"/>
<path class="bond-2 atom-2 atom-3" d="M 158.4,86.9 L 134.0,78.9" style="fill:none;fill-rule:evenodd;stroke:#000000;stroke-width:2.0px;stroke-linecap:butt;stroke-linejoin:miter;stroke-opacity:1"/>
<path class="bond-2 atom-2 atom-3" d="M 134.0,78.9 L 109.6,71.0" style="fill:none;fill-rule:evenodd;stroke:#00CC00;stroke-width:2.0px;stroke-linecap:butt;stroke-linejoin:miter;stroke-opacity:1"/>
<path class="bond-3 atom-3 atom-4" d="M 89.8,79.2 L 69.5,107.3" style="fill:none;fill-rule:evenodd;stroke:#00CC00;stroke-width:2.0px;stroke-linecap:butt;stroke-linejoin:miter;stroke-opacity:1"/>
<path class="bond-4 atom-4 atom-5" d="M 64.6,122.8 L 90.8,158.8" style="fill:none;fill-rule:evenodd;stroke:#00CC00;stroke-width:2.0px;stroke-linecap:butt;stroke-linejoin:miter;stroke-opacity:1"/>
<path class="bond-5 atom-5 atom-6" d="M 120.4,162.3 L 139.4,156.1" style="fill:none;fill-rule:evenodd;stroke:#00CC00;stroke-width:2.0px;stroke-linecap:butt;stroke-linejoin:miter;stroke-opacity:1"/>
<path class="bond-5 atom-5 atom-6" d="M 139.4,156.1 L 158.4,149.9" style="fill:none;fill-rule:evenodd;stroke:#000000;stroke-width:2.0px;stroke-linecap:butt;stroke-linejoin:miter;stroke-opacity:1"/>
<path class="bond-6 atom-6 atom-7" d="M 158.4,149.9 L 218.4,169.4" style="fill:none;fill-rule:evenodd;stroke:#000000;stroke-width:2.0px;stroke-linecap:butt;stroke-linejoin:miter;stroke-opacity:1"/>
<path class="bond-7 atom-7 atom-0" d="M 218.4,169.4 L 255.5,118.4" style="fill:none;fill-rule:evenodd;stroke:#000000;stroke-width:2.0px;stroke-linecap:butt;stroke-linejoin:miter;stroke-opacity:1"/>
<path class="bond-8 atom-6 atom-2" d="M 158.4,149.9 L 158.4,86.9" style="fill:none;fill-rule:evenodd;stroke:#000000;stroke-width:2.0px;stroke-linecap:butt;stroke-linejoin:miter;stroke-opacity:1"/>
<path d="M 253.6,115.8 L 255.5,118.4 L 253.6,120.9" style="fill:none;stroke:#000000;stroke-width:2.0px;stroke-linecap:butt;stroke-linejoin:miter;stroke-miterlimit:10;stroke-opacity:1;"/>
<path d="M 220.3,69.9 L 218.4,67.4 L 215.4,68.3" style="fill:none;stroke:#000000;stroke-width:2.0px;stroke-linecap:butt;stroke-linejoin:miter;stroke-miterlimit:10;stroke-opacity:1;"/>
<path d="M 215.4,168.4 L 218.4,169.4 L 220.3,166.9" style="fill:none;stroke:#000000;stroke-width:2.0px;stroke-linecap:butt;stroke-linejoin:miter;stroke-miterlimit:10;stroke-opacity:1;"/>
<path class="atom-3" d="M 89.4 68.0 Q 89.4 63.5, 91.5 61.2 Q 93.6 58.9, 97.6 58.9 Q 101.2 58.9, 103.2 61.5 L 101.5 62.8 Q 100.1 60.9, 97.6 60.9 Q 94.9 60.9, 93.4 62.8 Q 92.0 64.6, 92.0 68.0 Q 92.0 71.5, 93.5 73.3 Q 95.0 75.1, 97.8 75.1 Q 99.8 75.1, 102.1 74.0 L 102.8 75.9 Q 101.9 76.5, 100.5 76.8 Q 99.1 77.2, 97.5 77.2 Q 93.6 77.2, 91.5 74.8 Q 89.4 72.4, 89.4 68.0 " fill="#00CC00"/>
<path class="atom-3" d="M 105.2 57.8 L 107.5 57.8 L 107.5 76.9 L 105.2 76.9 L 105.2 57.8 " fill="#00CC00"/>
<path class="atom-3" d="M 110.6 61.7 L 113.7 61.7 L 113.7 58.3 L 115.1 58.3 L 115.1 61.7 L 118.3 61.7 L 118.3 62.9 L 115.1 62.9 L 115.1 66.2 L 113.7 66.2 L 113.7 62.9 L 110.6 62.9 L 110.6 61.7 " fill="#00CC00"/>
<path class="atom-4" d="M 44.5 119.0 Q 44.5 114.6, 46.6 112.2 Q 48.7 109.9, 52.6 109.9 Q 56.3 109.9, 58.3 112.5 L 56.6 113.9 Q 55.2 112.0, 52.6 112.0 Q 49.9 112.0, 48.5 113.8 Q 47.1 115.6, 47.1 119.0 Q 47.1 122.5, 48.6 124.4 Q 50.0 126.2, 52.9 126.2 Q 54.9 126.2, 57.2 125.0 L 57.9 126.9 Q 57.0 127.5, 55.5 127.8 Q 54.1 128.2, 52.6 128.2 Q 48.7 128.2, 46.6 125.8 Q 44.5 123.4, 44.5 119.0 " fill="#00CC00"/>
<path class="atom-4" d="M 60.2 108.8 L 62.5 108.8 L 62.5 128.0 L 60.2 128.0 L 60.2 108.8 " fill="#00CC00"/>
<path class="atom-4" d="M 65.6 112.7 L 68.8 112.7 L 68.8 109.4 L 70.2 109.4 L 70.2 112.7 L 73.4 112.7 L 73.4 113.9 L 70.2 113.9 L 70.2 117.2 L 68.8 117.2 L 68.8 113.9 L 65.6 113.9 L 65.6 112.7 " fill="#00CC00"/>
<path class="atom-5" d="M 89.4 170.0 Q 89.4 165.6, 91.5 163.3 Q 93.6 160.9, 97.6 160.9 Q 101.2 160.9, 103.2 163.5 L 101.5 164.9 Q 100.1 163.0, 97.6 163.0 Q 94.9 163.0, 93.4 164.8 Q 92.0 166.6, 92.0 170.0 Q 92.0 173.6, 93.5 175.4 Q 95.0 177.2, 97.8 177.2 Q 99.8 177.2, 102.1 176.0 L 102.8 177.9 Q 101.9 178.5, 100.5 178.9 Q 99.1 179.2, 97.5 179.2 Q 93.6 179.2, 91.5 176.8 Q 89.4 174.5, 89.4 170.0 " fill="#00CC00"/>
<path class="atom-5" d="M 105.2 159.8 L 107.5 159.8 L 107.5 179.0 L 105.2 179.0 L 105.2 159.8 " fill="#00CC00"/>
<path class="atom-5" d="M 110.6 163.7 L 113.7 163.7 L 113.7 160.4 L 115.1 160.4 L 115.1 163.7 L 118.3 163.7 L 118.3 164.9 L 115.1 164.9 L 115.1 168.2 L 113.7 168.2 L 113.7 164.9 L 110.6 164.9 L 110.6 163.7 " fill="#00CC00"/>
<path class="legend" d="M 88.6 224.3 Q 90.2 224.3, 90.9 225.3 Q 91.7 226.4, 91.7 228.4 Q 91.7 230.7, 90.7 231.9 Q 89.8 233.1, 88.0 233.1 Q 87.4 233.1, 87.0 233.0 Q 86.5 232.8, 86.1 232.6 L 86.6 231.8 Q 87.2 232.1, 87.9 232.1 Q 89.2 232.1, 89.8 231.3 Q 90.4 230.6, 90.5 228.9 Q 90.0 229.3, 89.5 229.6 Q 88.9 229.8, 88.3 229.8 Q 87.6 229.8, 87.0 229.4 Q 86.4 229.1, 86.1 228.5 Q 85.7 227.9, 85.7 227.2 Q 85.7 226.3, 86.1 225.7 Q 86.5 225.0, 87.1 224.7 Q 87.8 224.3, 88.6 224.3 M 87.0 227.2 Q 87.0 227.9, 87.4 228.4 Q 87.8 228.8, 88.6 228.8 Q 89.1 228.8, 89.6 228.6 Q 90.1 228.4, 90.5 228.0 Q 90.4 226.6, 90.0 225.9 Q 89.5 225.3, 88.6 225.3 Q 88.2 225.3, 87.8 225.5 Q 87.4 225.8, 87.2 226.2 Q 87.0 226.6, 87.0 227.2 " fill="#000000"/>
<path class="legend" d="M 97.3 228.4 Q 98.1 228.8, 98.6 229.3 Q 99.0 229.8, 99.0 230.6 Q 99.0 231.4, 98.6 231.9 Q 98.3 232.5, 97.6 232.8 Q 96.9 233.1, 96.0 233.1 Q 94.6 233.1, 93.8 232.5 Q 92.9 231.8, 92.9 230.6 Q 92.9 229.9, 93.3 229.4 Q 93.7 228.9, 94.4 228.5 Q 93.9 228.2, 93.6 227.7 Q 93.3 227.2, 93.3 226.5 Q 93.3 225.5, 94.0 224.9 Q 94.7 224.3, 96.0 224.3 Q 97.2 224.3, 98.0 224.9 Q 98.7 225.5, 98.7 226.5 Q 98.7 227.1, 98.3 227.6 Q 98.0 228.1, 97.3 228.4 M 96.0 225.2 Q 95.3 225.2, 94.9 225.6 Q 94.5 225.9, 94.5 226.5 Q 94.5 226.9, 94.7 227.3 Q 95.0 227.5, 95.4 227.7 Q 95.8 227.9, 96.5 228.1 Q 97.0 227.8, 97.2 227.4 Q 97.5 227.0, 97.5 226.5 Q 97.5 225.9, 97.1 225.6 Q 96.7 225.2, 96.0 225.2 M 96.0 232.2 Q 96.8 232.2, 97.3 231.8 Q 97.8 231.3, 97.8 230.6 Q 97.8 230.2, 97.5 229.9 Q 97.3 229.6, 96.9 229.4 Q 96.5 229.2, 95.8 229.0 L 95.3 228.8 Q 94.7 229.2, 94.4 229.6 Q 94.2 230.1, 94.2 230.6 Q 94.2 231.3, 94.7 231.8 Q 95.2 232.2, 96.0 232.2 " fill="#000000"/>
<path class="legend" d="M 104.6 228.4 Q 105.4 228.8, 105.8 229.3 Q 106.3 229.8, 106.3 230.6 Q 106.3 231.4, 105.9 231.9 Q 105.5 232.5, 104.8 232.8 Q 104.2 233.1, 103.3 233.1 Q 101.8 233.1, 101.0 232.5 Q 100.2 231.8, 100.2 230.6 Q 100.2 229.9, 100.6 229.4 Q 100.9 228.9, 101.7 228.5 Q 101.1 228.2, 100.8 227.7 Q 100.5 227.2, 100.5 226.5 Q 100.5 225.5, 101.2 224.9 Q 102.0 224.3, 103.2 224.3 Q 104.5 224.3, 105.2 224.9 Q 105.9 225.5, 105.9 226.5 Q 105.9 227.1, 105.6 227.6 Q 105.3 228.1, 104.6 228.4 M 103.2 225.2 Q 102.5 225.2, 102.1 225.6 Q 101.7 225.9, 101.7 226.5 Q 101.7 226.9, 102.0 227.3 Q 102.3 227.5, 102.6 227.7 Q 103.0 227.9, 103.8 228.1 Q 104.3 227.8, 104.5 227.4 Q 104.7 227.0, 104.7 226.5 Q 104.7 225.9, 104.3 225.6 Q 103.9 225.2, 103.2 225.2 M 103.3 232.2 Q 104.1 232.2, 104.6 231.8 Q 105.0 231.3, 105.0 230.6 Q 105.0 230.2, 104.8 229.9 Q 104.5 229.6, 104.1 229.4 Q 103.8 229.2, 103.1 229.0 L 102.5 228.8 Q 101.9 229.2, 101.7 229.6 Q 101.4 230.1, 101.4 230.6 Q 101.4 231.3, 101.9 231.8 Q 102.4 232.2, 103.3 232.2 " fill="#000000"/>
<path class="legend" d="" fill="#000000"/>
<path class="legend" d="M 111.9 223.6 L 112.9 223.6 L 112.9 235.3 L 111.9 235.3 L 111.9 223.6 " fill="#000000"/>
<path class="legend" d="" fill="#000000"/>
<path class="legend" d="M 122.1 226.6 Q 123.1 226.6, 123.6 227.2 Q 124.1 227.8, 124.1 228.9 L 124.1 233.0 L 123.0 233.0 L 123.0 229.0 Q 123.0 228.2, 122.7 227.9 Q 122.4 227.5, 121.8 227.5 Q 121.2 227.5, 120.8 227.8 Q 120.3 228.1, 120.0 228.5 L 120.0 233.0 L 118.8 233.0 L 118.8 226.8 L 119.8 226.8 L 119.9 227.6 Q 120.7 226.6, 122.1 226.6 " fill="#000000"/>
<path class="legend" d="M 125.5 229.9 Q 125.5 228.4, 126.3 227.5 Q 127.0 226.6, 128.5 226.6 Q 129.9 226.6, 130.6 227.7 L 129.9 228.2 Q 129.6 227.9, 129.2 227.7 Q 128.9 227.5, 128.5 227.5 Q 127.6 227.5, 127.1 228.1 Q 126.7 228.7, 126.7 229.9 Q 126.7 231.0, 127.2 231.6 Q 127.6 232.2, 128.6 232.2 Q 129.1 232.2, 129.4 232.1 Q 129.8 232.0, 130.2 231.8 L 130.5 232.5 Q 129.6 233.1, 128.5 233.1 Q 127.0 233.1, 126.3 232.2 Q 125.5 231.4, 125.5 229.9 " fill="#000000"/>
<path class="legend" d="M 131.4 224.4 L 132.5 224.4 L 132.5 225.5 L 131.4 225.5 L 131.4 224.4 M 131.4 226.8 L 132.5 226.8 L 132.5 233.0 L 131.4 233.0 L 131.4 226.8 " fill="#000000"/>
<path class="legend" d="M 134.4 232.0 L 136.3 232.0 L 136.3 225.6 L 134.2 226.2 L 133.9 225.5 L 136.6 224.4 L 137.4 224.5 L 137.4 232.0 L 139.1 232.0 L 139.1 233.0 L 134.4 233.0 L 134.4 232.0 " fill="#000000"/>
<path class="legend" d="M 143.2 233.1 Q 141.6 233.1, 140.8 231.9 Q 140.0 230.8, 140.0 228.7 Q 140.0 226.6, 140.8 225.5 Q 141.6 224.3, 143.2 224.3 Q 144.8 224.3, 145.6 225.5 Q 146.3 226.6, 146.3 228.7 Q 146.3 230.8, 145.5 231.9 Q 144.8 233.1, 143.2 233.1 M 143.2 232.1 Q 144.1 232.1, 144.6 231.3 Q 145.1 230.4, 145.1 228.7 Q 145.1 227.0, 144.6 226.1 Q 144.1 225.3, 143.2 225.3 Q 142.3 225.3, 141.8 226.1 Q 141.3 227.0, 141.3 228.7 Q 141.3 230.4, 141.8 231.3 Q 142.3 232.1, 143.2 232.1 " fill="#000000"/>
<path class="legend" d="M 150.4 224.3 Q 152.0 224.3, 152.7 225.3 Q 153.5 226.4, 153.5 228.4 Q 153.5 230.7, 152.5 231.9 Q 151.6 233.1, 149.8 233.1 Q 149.2 233.1, 148.8 233.0 Q 148.3 232.8, 147.9 232.6 L 148.4 231.8 Q 149.0 232.1, 149.7 232.1 Q 151.0 232.1, 151.6 231.3 Q 152.2 230.6, 152.3 228.9 Q 151.8 229.3, 151.3 229.6 Q 150.7 229.8, 150.1 229.8 Q 149.4 229.8, 148.8 229.4 Q 148.2 229.1, 147.9 228.5 Q 147.5 227.9, 147.5 227.2 Q 147.5 226.3, 147.9 225.7 Q 148.3 225.0, 148.9 224.7 Q 149.6 224.3, 150.4 224.3 M 148.8 227.2 Q 148.8 227.9, 149.2 228.4 Q 149.6 228.8, 150.4 228.8 Q 150.9 228.8, 151.4 228.6 Q 151.9 228.4, 152.3 228.0 Q 152.2 226.6, 151.8 225.9 Q 151.3 225.3, 150.4 225.3 Q 150.0 225.3, 149.6 225.5 Q 149.2 225.8, 149.0 226.2 Q 148.8 226.6, 148.8 227.2 " fill="#000000"/>
<path class="legend" d="M 160.9 233.6 L 160.9 234.6 L 154.7 234.6 L 154.7 233.6 L 160.9 233.6 " fill="#000000"/>
<path class="legend" d="M 161.7 231.7 Q 162.3 231.9, 162.6 232.0 Q 163.0 232.2, 163.5 232.2 Q 164.0 232.2, 164.3 231.9 Q 164.6 231.7, 164.6 231.2 Q 164.6 231.0, 164.5 230.8 Q 164.3 230.6, 164.1 230.5 Q 163.9 230.4, 163.4 230.3 Q 163.3 230.2, 162.7 230.0 Q 162.2 229.9, 161.8 229.4 Q 161.6 229.0, 161.6 228.4 Q 161.6 227.7, 162.1 227.2 Q 162.7 226.6, 163.9 226.6 Q 164.3 226.6, 164.7 226.8 Q 165.2 226.9, 165.6 227.0 L 165.3 227.9 Q 164.9 227.8, 164.6 227.7 Q 164.2 227.6, 163.9 227.6 Q 163.3 227.6, 163.0 227.8 Q 162.7 228.0, 162.7 228.4 Q 162.7 228.7, 162.9 228.9 Q 163.2 229.1, 163.7 229.3 Q 163.8 229.3, 163.9 229.3 L 164.2 229.4 Q 164.7 229.6, 165.0 229.8 Q 165.3 230.0, 165.6 230.3 Q 165.8 230.7, 165.8 231.2 Q 165.8 232.1, 165.1 232.6 Q 164.5 233.1, 163.5 233.1 Q 162.9 233.1, 162.4 233.0 Q 161.9 232.8, 161.4 232.6 L 161.7 231.7 " fill="#000000"/>
<path class="legend" d="M 174.0 226.6 Q 175.1 226.6, 175.6 227.2 Q 176.2 227.8, 176.2 228.9 L 176.2 233.0 L 175.0 233.0 L 175.0 229.0 Q 175.0 228.2, 174.7 227.9 Q 174.5 227.5, 173.8 227.5 Q 173.3 227.5, 172.8 227.8 Q 172.3 228.1, 172.1 228.5 Q 172.1 228.6, 172.1 228.9 L 172.1 233.0 L 170.9 233.0 L 170.9 229.0 Q 170.9 228.2, 170.6 227.9 Q 170.4 227.5, 169.7 227.5 Q 169.2 227.5, 168.7 227.8 Q 168.3 228.1, 168.0 228.5 L 168.0 233.0 L 166.8 233.0 L 166.8 226.8 L 167.8 226.8 L 167.9 227.6 Q 168.7 226.6, 170.0 226.6 Q 171.4 226.6, 171.9 227.7 Q 172.7 226.6, 174.0 226.6 " fill="#000000"/>
<path class="legend" d="M 177.5 224.4 L 178.6 224.4 L 178.6 225.5 L 177.5 225.5 L 177.5 224.4 M 177.5 226.8 L 178.6 226.8 L 178.6 233.0 L 177.5 233.0 L 177.5 226.8 " fill="#000000"/>
<path class="legend" d="M 180.1 223.8 L 181.2 223.8 L 181.2 233.0 L 180.1 233.0 L 180.1 223.8 " fill="#000000"/>
<path class="legend" d="M 182.7 229.9 Q 182.7 228.3, 183.4 227.5 Q 184.2 226.6, 185.6 226.6 Q 187.0 226.6, 187.6 227.5 Q 188.2 228.3, 188.2 229.8 L 188.2 230.0 L 183.8 230.0 Q 183.9 231.1, 184.3 231.6 Q 184.8 232.2, 185.7 232.2 Q 186.2 232.2, 186.6 232.1 Q 187.1 232.0, 187.6 231.7 L 188.0 232.5 Q 187.3 232.8, 186.8 233.0 Q 186.2 233.1, 185.6 233.1 Q 184.2 233.1, 183.5 232.2 Q 182.7 231.4, 182.7 229.9 M 185.6 227.5 Q 184.9 227.5, 184.4 228.0 Q 184.0 228.4, 183.9 229.2 L 187.0 229.2 Q 186.9 228.3, 186.6 227.9 Q 186.2 227.5, 185.6 227.5 " fill="#000000"/>
<path class="legend" d="M 189.4 231.7 Q 190.0 231.9, 190.4 232.0 Q 190.8 232.2, 191.2 232.2 Q 191.7 232.2, 192.0 231.9 Q 192.4 231.7, 192.4 231.2 Q 192.4 231.0, 192.2 230.8 Q 192.0 230.6, 191.8 230.5 Q 191.6 230.4, 191.1 230.3 Q 191.0 230.2, 190.4 230.0 Q 189.9 229.9, 189.6 229.4 Q 189.3 229.0, 189.3 228.4 Q 189.3 227.7, 189.9 227.2 Q 190.5 226.6, 191.6 226.6 Q 192.1 226.6, 192.5 226.8 Q 192.9 226.9, 193.4 227.0 L 193.0 227.9 Q 192.6 227.8, 192.3 227.7 Q 192.0 227.6, 191.6 227.6 Q 191.0 227.6, 190.7 227.8 Q 190.4 228.0, 190.4 228.4 Q 190.4 228.7, 190.7 228.9 Q 190.9 229.1, 191.4 229.3 Q 191.5 229.3, 191.6 229.3 L 191.9 229.4 Q 192.4 229.6, 192.7 229.8 Q 193.1 230.0, 193.3 230.3 Q 193.5 230.7, 193.5 231.2 Q 193.5 232.1, 192.9 232.6 Q 192.2 233.1, 191.2 233.1 Q 190.6 233.1, 190.1 233.0 Q 189.6 232.8, 189.1 232.6 L 189.4 231.7 " fill="#000000"/>
<path class="legend" d="M 194.6 231.8 L 195.8 231.8 L 195.8 233.0 L 194.6 233.0 L 194.6 231.8 " fill="#000000"/>
<path class="legend" d="M 197.3 231.7 Q 197.9 231.9, 198.3 232.0 Q 198.7 232.2, 199.1 232.2 Q 199.6 232.2, 199.9 231.9 Q 200.3 231.7, 200.3 231.2 Q 200.3 231.0, 200.1 230.8 Q 199.9 230.6, 199.7 230.5 Q 199.5 230.4, 199.0 230.3 Q 198.9 230.2, 198.3 230.0 Q 197.8 229.9, 197.5 229.4 Q 197.2 229.0, 197.2 228.4 Q 197.2 227.7, 197.8 227.2 Q 198.4 226.6, 199.5 226.6 Q 200.0 226.6, 200.4 226.8 Q 200.8 226.9, 201.3 227.0 L 200.9 227.9 Q 200.5 227.8, 200.2 227.7 Q 199.9 227.6, 199.5 227.6 Q 198.9 227.6, 198.6 227.8 Q 198.3 228.0, 198.3 228.4 Q 198.3 228.7, 198.6 228.9 Q 198.8 229.1, 199.3 229.3 Q 199.4 229.3, 199.5 229.3 L 199.8 229.4 Q 200.3 229.6, 200.6 229.8 Q 201.0 230.0, 201.2 230.3 Q 201.4 230.7, 201.4 231.2 Q 201.4 232.1, 200.8 232.6 Q 200.1 233.1, 199.1 233.1 Q 198.5 233.1, 198.0 233.0 Q 197.5 232.8, 197.0 232.6 L 197.3 231.7 " fill="#000000"/>
<path class="legend" d="M 209.7 226.6 Q 210.7 226.6, 211.3 227.2 Q 211.8 227.8, 211.8 228.9 L 211.8 233.0 L 210.7 233.0 L 210.7 229.0 Q 210.7 228.2, 210.4 227.9 Q 210.1 227.5, 209.5 227.5 Q 208.9 227.5, 208.4 227.8 Q 208.0 228.1, 207.7 228.5 Q 207.7 228.6, 207.7 228.9 L 207.7 233.0 L 206.6 233.0 L 206.6 229.0 Q 206.6 228.2, 206.3 227.9 Q 206.0 227.5, 205.4 227.5 Q 204.8 227.5, 204.4 227.8 Q 203.9 228.1, 203.6 228.5 L 203.6 233.0 L 202.5 233.0 L 202.5 226.8 L 203.4 226.8 L 203.5 227.6 Q 204.3 226.6, 205.6 226.6 Q 207.0 226.6, 207.5 227.7 Q 208.3 226.6, 209.7 226.6 " fill="#000000"/>
<path class="legend" d="M 213.1 224.4 L 214.3 224.4 L 214.3 225.5 L 213.1 225.5 L 213.1 224.4 M 213.1 226.8 L 214.3 226.8 L 214.3 233.0 L 213.1 233.0 L 213.1 226.8 " fill="#000000"/>
<path class="legend" d="M 110.0 238.7 L 110.0 237.8 L 111.2 237.8 L 111.4 236.0 L 112.2 236.0 L 112.2 237.8 L 114.2 237.8 L 114.2 238.7 L 112.2 238.7 L 112.2 242.1 Q 112.2 243.2, 113.2 243.2 Q 113.5 243.2, 114.1 243.0 L 114.2 243.8 Q 113.6 244.1, 113.0 244.1 Q 112.1 244.1, 111.6 243.6 Q 111.1 243.1, 111.1 242.2 L 111.1 238.7 L 110.0 238.7 " fill="#000000"/>
<path class="legend" d="M 115.1 240.9 Q 115.1 239.4, 115.8 238.5 Q 116.6 237.7, 118.0 237.7 Q 119.5 237.7, 120.2 238.5 Q 121.0 239.4, 121.0 240.9 Q 121.0 242.4, 120.2 243.3 Q 119.5 244.1, 118.0 244.1 Q 116.6 244.1, 115.8 243.3 Q 115.1 242.4, 115.1 240.9 M 116.2 240.9 Q 116.2 242.0, 116.7 242.6 Q 117.2 243.2, 118.0 243.2 Q 118.9 243.2, 119.4 242.6 Q 119.8 242.0, 119.8 240.9 Q 119.8 239.8, 119.4 239.2 Q 118.9 238.6, 118.0 238.6 Q 117.2 238.6, 116.7 239.2 Q 116.2 239.8, 116.2 240.9 " fill="#000000"/>
<path class="legend" d="M 125.0 237.7 Q 126.3 237.7, 127.0 238.5 Q 127.7 239.3, 127.7 240.8 Q 127.7 242.4, 126.9 243.2 Q 126.0 244.1, 124.5 244.1 Q 123.8 244.1, 123.2 244.0 L 123.2 247.0 L 122.1 247.0 L 122.1 237.8 L 123.0 237.8 L 123.2 238.5 Q 123.5 238.1, 123.9 237.9 Q 124.4 237.7, 125.0 237.7 M 124.5 243.2 Q 125.5 243.2, 126.0 242.6 Q 126.6 242.0, 126.6 240.8 Q 126.6 239.7, 126.1 239.2 Q 125.7 238.6, 124.9 238.6 Q 124.3 238.6, 123.8 238.9 Q 123.4 239.2, 123.2 239.8 L 123.2 243.0 Q 123.8 243.2, 124.5 243.2 " fill="#000000"/>
<path class="legend" d="M 128.8 238.7 L 134.4 238.7 L 134.4 239.6 L 128.8 239.6 L 128.8 238.7 M 128.8 241.3 L 134.4 241.3 L 134.4 242.2 L 128.8 242.2 L 128.8 241.3 " fill="#000000"/>
<path class="legend" d="M 139.1 244.1 Q 137.6 244.1, 136.8 243.0 Q 136.0 241.8, 136.0 239.7 Q 136.0 237.6, 136.8 236.5 Q 137.5 235.3, 139.1 235.3 Q 140.7 235.3, 141.5 236.5 Q 142.3 237.6, 142.3 239.7 Q 142.3 241.8, 141.5 243.0 Q 140.7 244.1, 139.1 244.1 M 139.1 243.2 Q 140.1 243.2, 140.6 242.3 Q 141.1 241.4, 141.1 239.7 Q 141.1 238.0, 140.6 237.2 Q 140.1 236.3, 139.1 236.3 Q 138.2 236.3, 137.7 237.2 Q 137.2 238.0, 137.2 239.7 Q 137.2 241.4, 137.7 242.3 Q 138.2 243.2, 139.1 243.2 " fill="#000000"/>
<path class="legend" d="" fill="#000000"/>
<path class="legend" d="M 148.2 242.3 Q 148.2 241.3, 149.0 240.8 Q 149.8 240.3, 151.2 240.3 L 152.2 240.3 L 152.2 240.0 Q 152.2 239.2, 151.8 238.9 Q 151.5 238.6, 150.7 238.6 Q 150.2 238.6, 149.8 238.7 Q 149.5 238.8, 148.9 239.0 L 148.5 238.2 Q 149.7 237.7, 150.8 237.7 Q 152.1 237.7, 152.7 238.2 Q 153.3 238.8, 153.3 240.0 L 153.3 244.0 L 152.4 244.0 Q 152.4 244.0, 152.4 243.8 Q 152.3 243.6, 152.2 243.3 Q 151.4 244.2, 150.2 244.2 Q 149.3 244.2, 148.7 243.7 Q 148.2 243.2, 148.2 242.3 M 149.3 242.3 Q 149.3 242.8, 149.6 243.0 Q 149.9 243.3, 150.4 243.3 Q 150.9 243.3, 151.4 243.1 Q 151.8 242.8, 152.2 242.4 L 152.2 241.1 L 151.3 241.1 Q 150.3 241.1, 149.8 241.4 Q 149.3 241.7, 149.3 242.3 " fill="#000000"/>
<path class="legend" d="M 154.8 238.7 L 154.8 237.8 L 155.9 237.8 L 156.1 236.0 L 157.0 236.0 L 157.0 237.8 L 158.9 237.8 L 158.9 238.7 L 157.0 238.7 L 157.0 242.1 Q 157.0 243.2, 157.9 243.2 Q 158.3 243.2, 158.8 243.0 L 159.0 243.8 Q 158.3 244.1, 157.7 244.1 Q 156.9 244.1, 156.4 243.6 Q 155.8 243.1, 155.8 242.2 L 155.8 238.7 L 154.8 238.7 " fill="#000000"/>
<path class="legend" d="M 159.8 240.9 Q 159.8 239.4, 160.6 238.5 Q 161.4 237.7, 162.8 237.7 Q 164.2 237.7, 165.0 238.5 Q 165.7 239.4, 165.7 240.9 Q 165.7 242.4, 165.0 243.3 Q 164.2 244.1, 162.8 244.1 Q 161.4 244.1, 160.6 243.3 Q 159.8 242.4, 159.8 240.9 M 161.0 240.9 Q 161.0 242.0, 161.4 242.6 Q 161.9 243.2, 162.8 243.2 Q 163.6 243.2, 164.1 242.6 Q 164.6 242.0, 164.6 240.9 Q 164.6 239.8, 164.1 239.2 Q 163.6 238.6, 162.8 238.6 Q 161.9 238.6, 161.4 239.2 Q 161.0 239.8, 161.0 240.9 " fill="#000000"/>
<path class="legend" d="M 174.0 237.7 Q 175.1 237.7, 175.6 238.2 Q 176.2 238.8, 176.2 239.9 L 176.2 244.0 L 175.0 244.0 L 175.0 240.0 Q 175.0 239.2, 174.7 238.9 Q 174.4 238.6, 173.8 238.6 Q 173.3 238.6, 172.8 238.8 Q 172.3 239.1, 172.1 239.6 Q 172.1 239.7, 172.1 239.9 L 172.1 244.0 L 170.9 244.0 L 170.9 240.0 Q 170.9 239.2, 170.6 238.9 Q 170.4 238.6, 169.7 238.6 Q 169.2 238.6, 168.7 238.8 Q 168.3 239.1, 168.0 239.5 L 168.0 244.0 L 166.8 244.0 L 166.8 237.8 L 167.8 237.8 L 167.9 238.6 Q 168.7 237.7, 169.9 237.7 Q 171.4 237.7, 171.9 238.8 Q 172.7 237.7, 174.0 237.7 " fill="#000000"/>
<path class="legend" d="M 177.6 238.7 L 183.2 238.7 L 183.2 239.6 L 177.6 239.6 L 177.6 238.7 M 177.6 241.3 L 183.2 241.3 L 183.2 242.2 L 177.6 242.2 L 177.6 241.3 " fill="#000000"/>
<path class="legend" d="M 185.3 243.1 L 187.2 243.1 L 187.2 236.6 L 185.1 237.3 L 184.8 236.6 L 187.4 235.4 L 188.3 235.5 L 188.3 243.1 L 190.0 243.1 L 190.0 244.0 L 185.3 244.0 L 185.3 243.1 " fill="#000000"/>
<path class="bond-0 atom-0 atom-1" d="M 351.1,199.4 L 376.0,191.3" style="fill:none;fill-rule:evenodd;stroke:#FF0000;stroke-width:2.0px;stroke-linecap:butt;stroke-linejoin:miter;stroke-opacity:1"/>
<path class="bond-0 atom-0 atom-1" d="M 376.0,191.3 L 400.8,183.3" style="fill:none;fill-rule:evenodd;stroke:#000000;stroke-width:2.0px;stroke-linecap:butt;stroke-linejoin:miter;stroke-opacity:1"/>
<path class="bond-1 atom-1 atom-2" d="M 400.8,183.3 L 451.8,220.3" style="fill:none;fill-rule:evenodd;stroke:#000000;stroke-width:2.0px;stroke-linecap:butt;stroke-linejoin:miter;stroke-opacity:1"/>
<path class="bond-2 atom-2 atom-3" d="M 451.8,220.3 L 502.9,183.3" style="fill:none;fill-rule:evenodd;stroke:#000000;stroke-width:2.0px;stroke-linecap:butt;stroke-linejoin:miter;stroke-opacity:1"/>
<path class="bond-3 atom-3 atom-4" d="M 502.9,183.3 L 528.9,191.7" style="fill:none;fill-rule:evenodd;stroke:#000000;stroke-width:2.0px;stroke-linecap:butt;stroke-linejoin:miter;stroke-opacity:1"/>
<path class="bond-3 atom-3 atom-4" d="M 528.9,191.7 L 555.0,200.2" style="fill:none;fill-rule:evenodd;stroke:#CCCC00;stroke-width:2.0px;stroke-linecap:butt;stroke-linejoin:miter;stroke-opacity:1"/>
<path class="bond-4 atom-3 atom-5" d="M 502.9,183.3 L 483.4,123.3" style="fill:none;fill-rule:evenodd;stroke:#000000;stroke-width:2.0px;stroke-linecap:butt;stroke-linejoin:miter;stroke-opacity:1"/>
<path class="bond-5 atom-5 atom-6" d="M 483.4,123.3 L 502.9,63.3" style="fill:none;fill-rule:evenodd;stroke:#000000;stroke-width:2.0px;stroke-linecap:butt;stroke-linejoin:miter;stroke-opacity:1"/>
<path class="bond-6 atom-6 atom-7" d="M 502.9,63.3 L 528.8,54.9" style="fill:none;fill-rule:evenodd;stroke:#000000;stroke-width:2.0px;stroke-linecap:butt;stroke-linejoin:miter;stroke-opacity:1"/>
<path class="bond-6 atom-6 atom-7" d="M 528.8,54.9 L 554.7,46.5" style="fill:none;fill-rule:evenodd;stroke:#7F4C19;stroke-width:2.0px;stroke-linecap:butt;stroke-linejoin:miter;stroke-opacity:1"/>
<path class="bond-7 atom-6 atom-8" d="M 502.9,63.3 L 482.9,48.8" style="fill:none;fill-rule:evenodd;stroke:#000000;stroke-width:2.0px;stroke-linecap:butt;stroke-linejoin:miter;stroke-opacity:1"/>
<path class="bond-7 atom-6 atom-8" d="M 482.9,48.8 L 462.9,34.3" style="fill:none;fill-rule:evenodd;stroke:#00CC00;stroke-width:2.0px;stroke-linecap:butt;stroke-linejoin:miter;stroke-opacity:1"/>
<path class="bond-8 atom-8 atom-9" d="M 440.7,34.3 L 420.8,48.8" style="fill:none;fill-rule:evenodd;stroke:#00CC00;stroke-width:2.0px;stroke-linecap:butt;stroke-linejoin:miter;stroke-opacity:1"/>
<path class="bond-8 atom-8 atom-9" d="M 420.8,48.8 L 400.8,63.3" style="fill:none;fill-rule:evenodd;stroke:#000000;stroke-width:2.0px;stroke-linecap:butt;stroke-linejoin:miter;stroke-opacity:1"/>
<path class="bond-9 atom-9 atom-10" d="M 400.8,63.3 L 373.7,54.5" style="fill:none;fill-rule:evenodd;stroke:#000000;stroke-width:2.0px;stroke-linecap:butt;stroke-linejoin:miter;stroke-opacity:1"/>
<path class="bond-9 atom-9 atom-10" d="M 373.7,54.5 L 346.6,45.7" style="fill:none;fill-rule:evenodd;stroke:#7F4C19;stroke-width:2.0px;stroke-linecap:butt;stroke-linejoin:miter;stroke-opacity:1"/>
<path class="bond-10 atom-9 atom-11" d="M 400.8,63.3 L 420.3,123.3" style="fill:none;fill-rule:evenodd;stroke:#000000;stroke-width:2.0px;stroke-linecap:butt;stroke-linejoin:miter;stroke-opacity:1"/>
<path class="bond-11 atom-11 atom-1" d="M 420.3,123.3 L 400.8,183.3" style="fill:none;fill-rule:evenodd;stroke:#000000;stroke-width:2.0px;stroke-linecap:butt;stroke-linejoin:miter;stroke-opacity:1"/>
<path class="bond-12 atom-11 atom-5" d="M 420.3,123.3 L 483.4,123.3" style="fill:none;fill-rule:evenodd;stroke:#000000;stroke-width:2.0px;stroke-linecap:butt;stroke-linejoin:miter;stroke-opacity:1"/>
<path d="M 449.3,218.5 L 451.8,220.3 L 454.4,218.5" style="fill:none;stroke:#000000;stroke-width:2.0px;stroke-linecap:butt;stroke-linejoin:miter;stroke-miterlimit:10;stroke-opacity:1;"/>
<path class="atom-0" d="M 315.0 193.9 L 317.4 193.9 L 317.4 201.5 L 326.6 201.5 L 326.6 193.9 L 329.0 193.9 L 329.0 211.8 L 326.6 211.8 L 326.6 203.5 L 317.4 203.5 L 317.4 211.8 L 315.0 211.8 L 315.0 193.9 " fill="#FF0000"/>
<path class="atom-0" d="M 332.6 202.8 Q 332.6 198.5, 334.8 196.1 Q 336.9 193.7, 340.8 193.7 Q 344.8 193.7, 346.9 196.1 Q 349.0 198.5, 349.0 202.8 Q 349.0 207.1, 346.9 209.6 Q 344.7 212.1, 340.8 212.1 Q 336.9 212.1, 334.8 209.6 Q 332.6 207.2, 332.6 202.8 M 340.8 210.0 Q 343.6 210.0, 345.0 208.2 Q 346.5 206.4, 346.5 202.8 Q 346.5 199.3, 345.0 197.5 Q 343.6 195.7, 340.8 195.7 Q 338.1 195.7, 336.6 197.5 Q 335.2 199.3, 335.2 202.8 Q 335.2 206.4, 336.6 208.2 Q 338.1 210.0, 340.8 210.0 " fill="#FF0000"/>
<path class="atom-4" d="M 557.8 208.9 Q 558.0 209.0, 558.8 209.3 Q 559.7 209.7, 560.6 209.9 Q 561.5 210.1, 562.4 210.1 Q 564.1 210.1, 565.1 209.3 Q 566.1 208.5, 566.1 207.0 Q 566.1 206.1, 565.6 205.5 Q 565.1 204.8, 564.3 204.5 Q 563.6 204.2, 562.3 203.8 Q 560.7 203.3, 559.8 202.9 Q 558.8 202.4, 558.1 201.5 Q 557.5 200.5, 557.5 198.9 Q 557.5 196.7, 559.0 195.3 Q 560.5 193.9, 563.6 193.9 Q 565.6 193.9, 568.0 194.9 L 567.4 196.8 Q 565.3 195.9, 563.6 195.9 Q 561.9 195.9, 560.9 196.7 Q 560.0 197.4, 560.0 198.6 Q 560.0 199.6, 560.5 200.1 Q 561.0 200.7, 561.7 201.0 Q 562.4 201.4, 563.6 201.7 Q 565.3 202.3, 566.2 202.8 Q 567.2 203.3, 567.9 204.3 Q 568.6 205.3, 568.6 207.0 Q 568.6 209.5, 566.9 210.9 Q 565.3 212.2, 562.5 212.2 Q 560.9 212.2, 559.7 211.8 Q 558.5 211.5, 557.1 210.9 L 557.8 208.9 " fill="#CCCC00"/>
<path class="atom-4" d="M 571.0 193.8 L 573.4 193.8 L 573.4 201.4 L 582.6 201.4 L 582.6 193.8 L 585.0 193.8 L 585.0 211.7 L 582.6 211.7 L 582.6 203.4 L 573.4 203.4 L 573.4 211.7 L 571.0 211.7 L 571.0 193.8 " fill="#CCCC00"/>
<path class="atom-7" d="M 565.5 43.4 Q 567.2 43.8, 568.0 44.9 Q 568.9 45.9, 568.9 47.5 Q 568.9 49.9, 567.3 51.4 Q 565.8 52.7, 562.8 52.7 L 556.8 52.7 L 556.8 34.9 L 562.0 34.9 Q 565.1 34.9, 566.6 36.1 Q 568.2 37.4, 568.2 39.6 Q 568.2 42.3, 565.5 43.4 M 559.2 36.9 L 559.2 42.5 L 562.0 42.5 Q 563.8 42.5, 564.7 41.8 Q 565.7 41.1, 565.7 39.6 Q 565.7 36.9, 562.0 36.9 L 559.2 36.9 M 562.8 50.7 Q 564.5 50.7, 565.5 49.9 Q 566.4 49.1, 566.4 47.5 Q 566.4 46.0, 565.4 45.3 Q 564.3 44.5, 562.4 44.5 L 559.2 44.5 L 559.2 50.7 L 562.8 50.7 " fill="#7F4C19"/>
<path class="atom-7" d="M 573.0 39.8 L 573.2 41.6 Q 574.6 39.6, 576.8 39.6 Q 577.5 39.6, 578.5 39.8 L 578.1 41.9 Q 577.0 41.7, 576.4 41.7 Q 575.4 41.7, 574.7 42.1 Q 574.0 42.5, 573.4 43.5 L 573.4 52.7 L 571.0 52.7 L 571.0 39.8 L 573.0 39.8 " fill="#7F4C19"/>
<path class="atom-8" d="M 442.8 26.9 Q 442.8 22.4, 444.9 20.1 Q 447.0 17.7, 450.9 17.7 Q 454.6 17.7, 456.6 20.3 L 454.9 21.7 Q 453.5 19.8, 450.9 19.8 Q 448.2 19.8, 446.8 21.6 Q 445.4 23.4, 445.4 26.9 Q 445.4 30.4, 446.9 32.2 Q 448.3 34.0, 451.2 34.0 Q 453.2 34.0, 455.5 32.8 L 456.2 34.7 Q 455.3 35.3, 453.8 35.7 Q 452.4 36.0, 450.9 36.0 Q 447.0 36.0, 444.9 33.7 Q 442.8 31.3, 442.8 26.9 " fill="#00CC00"/>
<path class="atom-8" d="M 458.5 16.7 L 460.9 16.7 L 460.9 35.8 L 458.5 35.8 L 458.5 16.7 " fill="#00CC00"/>
<path class="atom-8" d="M 464.0 20.5 L 467.1 20.5 L 467.1 17.2 L 468.5 17.2 L 468.5 20.5 L 471.7 20.5 L 471.7 21.7 L 468.5 21.7 L 468.5 25.1 L 467.1 25.1 L 467.1 21.7 L 464.0 21.7 L 464.0 20.5 " fill="#00CC00"/>
<path class="atom-10" d="M 331.5 43.4 Q 333.2 43.8, 334.1 44.9 Q 335.0 45.9, 335.0 47.5 Q 335.0 49.9, 333.4 51.4 Q 331.8 52.7, 328.8 52.7 L 322.8 52.7 L 322.8 34.9 L 328.1 34.9 Q 331.2 34.9, 332.7 36.1 Q 334.2 37.4, 334.2 39.6 Q 334.2 42.3, 331.5 43.4 M 325.2 36.9 L 325.2 42.5 L 328.1 42.5 Q 329.9 42.5, 330.8 41.8 Q 331.7 41.1, 331.7 39.6 Q 331.7 36.9, 328.1 36.9 L 325.2 36.9 M 328.8 50.7 Q 330.6 50.7, 331.5 49.9 Q 332.5 49.1, 332.5 47.5 Q 332.5 46.0, 331.4 45.3 Q 330.4 44.5, 328.5 44.5 L 325.2 44.5 L 325.2 50.7 L 328.8 50.7 " fill="#7F4C19"/>
<path class="atom-10" d="M 339.0 39.8 L 339.3 41.6 Q 340.7 39.6, 342.9 39.6 Q 343.6 39.6, 344.6 39.8 L 344.2 41.9 Q 343.1 41.7, 342.5 41.7 Q 341.4 41.7, 340.7 42.1 Q 340.0 42.5, 339.5 43.5 L 339.5 52.7 L 337.1 52.7 L 337.1 39.8 L 339.0 39.8 " fill="#7F4C19"/>
<path class="legend" d="M 387.1 232.0 L 388.9 232.0 L 388.9 225.6 L 386.9 226.2 L 386.6 225.5 L 389.2 224.4 L 390.1 224.5 L 390.1 232.0 L 391.8 232.0 L 391.8 233.0 L 387.1 233.0 L 387.1 232.0 " fill="#000000"/>
<path class="legend" d="M 395.6 224.3 Q 397.1 224.3, 397.9 225.3 Q 398.6 226.4, 398.6 228.4 Q 398.6 230.7, 397.7 231.9 Q 396.7 233.1, 394.9 233.1 Q 394.4 233.1, 393.9 233.0 Q 393.5 232.8, 393.0 232.6 L 393.5 231.8 Q 394.1 232.1, 394.9 232.1 Q 396.1 232.1, 396.7 231.3 Q 397.3 230.6, 397.4 228.9 Q 397.0 229.3, 396.4 229.6 Q 395.9 229.8, 395.3 229.8 Q 394.5 229.8, 393.9 229.4 Q 393.3 229.1, 393.0 228.5 Q 392.7 227.9, 392.7 227.2 Q 392.7 226.3, 393.1 225.7 Q 393.4 225.0, 394.1 224.7 Q 394.7 224.3, 395.6 224.3 M 393.9 227.2 Q 393.9 227.9, 394.3 228.4 Q 394.7 228.8, 395.5 228.8 Q 396.0 228.8, 396.5 228.6 Q 397.1 228.4, 397.4 228.0 Q 397.4 226.6, 396.9 225.9 Q 396.5 225.3, 395.6 225.3 Q 395.1 225.3, 394.7 225.5 Q 394.3 225.8, 394.1 226.2 Q 393.9 226.6, 393.9 227.2 " fill="#000000"/>
<path class="legend" d="M 403.0 227.6 Q 403.8 227.6, 404.4 227.9 Q 405.0 228.3, 405.3 228.9 Q 405.7 229.5, 405.7 230.3 Q 405.7 231.2, 405.3 231.8 Q 404.8 232.4, 404.1 232.8 Q 403.4 233.1, 402.6 233.1 Q 401.8 233.1, 401.1 232.8 Q 400.4 232.5, 399.9 232.0 L 400.6 231.2 Q 401.0 231.6, 401.6 231.9 Q 402.1 232.1, 402.7 232.1 Q 403.4 232.1, 404.0 231.6 Q 404.5 231.2, 404.5 230.3 Q 404.5 229.4, 404.0 229.0 Q 403.4 228.5, 402.6 228.5 Q 401.8 228.5, 401.0 228.9 L 400.3 228.5 L 400.7 224.4 L 405.2 224.4 L 405.0 225.4 L 401.7 225.4 L 401.5 227.9 Q 402.3 227.6, 403.0 227.6 " fill="#000000"/>
<path class="legend" d="" fill="#000000"/>
<path class="legend" d="M 411.2 223.6 L 412.2 223.6 L 412.2 235.3 L 411.2 235.3 L 411.2 223.6 " fill="#000000"/>
<path class="legend" d="" fill="#000000"/>
<path class="legend" d="M 421.3 226.6 Q 422.3 226.6, 422.8 227.2 Q 423.4 227.8, 423.4 228.9 L 423.4 233.0 L 422.2 233.0 L 422.2 229.0 Q 422.2 228.2, 422.0 227.9 Q 421.7 227.5, 421.0 227.5 Q 420.5 227.5, 420.0 227.8 Q 419.5 228.1, 419.2 228.5 L 419.2 233.0 L 418.1 233.0 L 418.1 226.8 L 419.0 226.8 L 419.1 227.6 Q 420.0 226.6, 421.3 226.6 " fill="#000000"/>
<path class="legend" d="M 424.7 229.9 Q 424.7 228.4, 425.5 227.5 Q 426.2 226.6, 427.7 226.6 Q 429.1 226.6, 429.9 227.7 L 429.1 228.2 Q 428.8 227.9, 428.5 227.7 Q 428.2 227.5, 427.7 227.5 Q 426.9 227.5, 426.4 228.1 Q 425.9 228.7, 425.9 229.9 Q 425.9 231.0, 426.4 231.6 Q 426.9 232.2, 427.8 232.2 Q 428.3 232.2, 428.7 232.1 Q 429.0 232.0, 429.4 231.8 L 429.8 232.5 Q 428.9 233.1, 427.7 233.1 Q 426.2 233.1, 425.5 232.2 Q 424.7 231.4, 424.7 229.9 " fill="#000000"/>
<path class="legend" d="M 430.6 224.4 L 431.7 224.4 L 431.7 225.5 L 430.6 225.5 L 430.6 224.4 M 430.6 226.8 L 431.7 226.8 L 431.7 233.0 L 430.6 233.0 L 430.6 226.8 " fill="#000000"/>
<path class="legend" d="M 433.6 232.0 L 435.5 232.0 L 435.5 225.6 L 433.4 226.2 L 433.2 225.5 L 435.8 224.4 L 436.7 224.5 L 436.7 232.0 L 438.3 232.0 L 438.3 233.0 L 433.6 233.0 L 433.6 232.0 " fill="#000000"/>
<path class="legend" d="M 442.4 233.1 Q 440.8 233.1, 440.0 231.9 Q 439.3 230.8, 439.3 228.7 Q 439.3 226.6, 440.0 225.5 Q 440.8 224.3, 442.4 224.3 Q 444.0 224.3, 444.8 225.5 Q 445.5 226.6, 445.5 228.7 Q 445.5 230.8, 444.8 231.9 Q 444.0 233.1, 442.4 233.1 M 442.4 232.1 Q 443.3 232.1, 443.8 231.3 Q 444.3 230.4, 444.3 228.7 Q 444.3 227.0, 443.8 226.1 Q 443.3 225.3, 442.4 225.3 Q 441.5 225.3, 441.0 226.1 Q 440.5 227.0, 440.5 228.7 Q 440.5 230.4, 441.0 231.3 Q 441.5 232.1, 442.4 232.1 " fill="#000000"/>
<path class="legend" d="M 449.6 224.3 Q 451.2 224.3, 451.9 225.3 Q 452.7 226.4, 452.7 228.4 Q 452.7 230.7, 451.8 231.9 Q 450.8 233.1, 449.0 233.1 Q 448.4 233.1, 448.0 233.0 Q 447.5 232.8, 447.1 232.6 L 447.6 231.8 Q 448.2 232.1, 449.0 232.1 Q 450.2 232.1, 450.8 231.3 Q 451.4 230.6, 451.5 228.9 Q 451.0 229.3, 450.5 229.6 Q 449.9 229.8, 449.3 229.8 Q 448.6 229.8, 448.0 229.4 Q 447.4 229.1, 447.1 228.5 Q 446.8 227.9, 446.8 227.2 Q 446.8 226.3, 447.1 225.7 Q 447.5 225.0, 448.1 224.7 Q 448.8 224.3, 449.6 224.3 M 448.0 227.2 Q 448.0 227.9, 448.4 228.4 Q 448.8 228.8, 449.6 228.8 Q 450.1 228.8, 450.6 228.6 Q 451.1 228.4, 451.5 228.0 Q 451.4 226.6, 451.0 225.9 Q 450.5 225.3, 449.6 225.3 Q 449.2 225.3, 448.8 225.5 Q 448.4 225.8, 448.2 226.2 Q 448.0 226.6, 448.0 227.2 " fill="#000000"/>
<path class="legend" d="M 460.1 233.6 L 460.1 234.6 L 453.9 234.6 L 453.9 233.6 L 460.1 233.6 " fill="#000000"/>
<path class="legend" d="M 460.9 231.7 Q 461.5 231.9, 461.8 232.0 Q 462.2 232.2, 462.7 232.2 Q 463.2 232.2, 463.5 231.9 Q 463.8 231.7, 463.8 231.2 Q 463.8 231.0, 463.7 230.8 Q 463.5 230.6, 463.3 230.5 Q 463.1 230.4, 462.6 230.3 Q 462.5 230.2, 461.9 230.0 Q 461.4 229.9, 461.1 229.4 Q 460.8 229.0, 460.8 228.4 Q 460.8 227.7, 461.3 227.2 Q 461.9 226.6, 463.1 226.6 Q 463.5 226.6, 463.9 226.8 Q 464.4 226.9, 464.8 227.0 L 464.5 227.9 Q 464.1 227.8, 463.8 227.7 Q 463.4 227.6, 463.1 227.6 Q 462.5 227.6, 462.2 227.8 Q 461.9 228.0, 461.9 228.4 Q 461.9 228.7, 462.1 228.9 Q 462.4 229.1, 462.9 229.3 Q 463.0 229.3, 463.1 229.3 L 463.4 229.4 Q 463.9 229.6, 464.2 229.8 Q 464.5 230.0, 464.8 230.3 Q 465.0 230.7, 465.0 231.2 Q 465.0 232.1, 464.3 232.6 Q 463.7 233.1, 462.7 233.1 Q 462.1 233.1, 461.6 233.0 Q 461.1 232.8, 460.6 232.6 L 460.9 231.7 " fill="#000000"/>
<path class="legend" d="M 473.2 226.6 Q 474.3 226.6, 474.8 227.2 Q 475.4 227.8, 475.4 228.9 L 475.4 233.0 L 474.2 233.0 L 474.2 229.0 Q 474.2 228.2, 473.9 227.9 Q 473.7 227.5, 473.0 227.5 Q 472.5 227.5, 472.0 227.8 Q 471.5 228.1, 471.3 228.5 Q 471.3 228.6, 471.3 228.9 L 471.3 233.0 L 470.1 233.0 L 470.1 229.0 Q 470.1 228.2, 469.8 227.9 Q 469.6 227.5, 468.9 227.5 Q 468.4 227.5, 467.9 227.8 Q 467.5 228.1, 467.2 228.5 L 467.2 233.0 L 466.0 233.0 L 466.0 226.8 L 467.0 226.8 L 467.1 227.6 Q 467.9 226.6, 469.1 226.6 Q 470.6 226.6, 471.1 227.7 Q 471.9 226.6, 473.2 226.6 " fill="#000000"/>
<path class="legend" d="M 476.7 224.4 L 477.8 224.4 L 477.8 225.5 L 476.7 225.5 L 476.7 224.4 M 476.7 226.8 L 477.8 226.8 L 477.8 233.0 L 476.7 233.0 L 476.7 226.8 " fill="#000000"/>
<path class="legend" d="M 479.3 223.8 L 480.4 223.8 L 480.4 233.0 L 479.3 233.0 L 479.3 223.8 " fill="#000000"/>
<path class="legend" d="M 481.9 229.9 Q 481.9 228.3, 482.6 227.5 Q 483.4 226.6, 484.8 226.6 Q 486.2 226.6, 486.8 227.5 Q 487.4 228.3, 487.4 229.8 L 487.4 230.0 L 483.0 230.0 Q 483.0 231.1, 483.5 231.6 Q 484.0 232.2, 484.9 232.2 Q 485.4 232.2, 485.8 232.1 Q 486.3 232.0, 486.8 231.7 L 487.1 232.5 Q 486.5 232.8, 486.0 233.0 Q 485.4 233.1, 484.8 233.1 Q 483.4 233.1, 482.6 232.2 Q 481.9 231.4, 481.9 229.9 M 484.8 227.5 Q 484.1 227.5, 483.6 228.0 Q 483.2 228.4, 483.1 229.2 L 486.2 229.2 Q 486.1 228.3, 485.8 227.9 Q 485.4 227.5, 484.8 227.5 " fill="#000000"/>
<path class="legend" d="M 488.6 231.7 Q 489.2 231.9, 489.5 232.0 Q 489.9 232.2, 490.4 232.2 Q 490.9 232.2, 491.2 231.9 Q 491.5 231.7, 491.5 231.2 Q 491.5 231.0, 491.4 230.8 Q 491.2 230.6, 491.0 230.5 Q 490.8 230.4, 490.3 230.3 Q 490.2 230.2, 489.6 230.0 Q 489.1 229.9, 488.8 229.4 Q 488.5 229.0, 488.5 228.4 Q 488.5 227.7, 489.0 227.2 Q 489.6 226.6, 490.8 226.6 Q 491.2 226.6, 491.6 226.8 Q 492.1 226.9, 492.5 227.0 L 492.2 227.9 Q 491.8 227.8, 491.5 227.7 Q 491.1 227.6, 490.8 227.6 Q 490.2 227.6, 489.9 227.8 Q 489.6 228.0, 489.6 228.4 Q 489.6 228.7, 489.8 228.9 Q 490.1 229.1, 490.6 229.3 Q 490.7 229.3, 490.8 229.3 L 491.1 229.4 Q 491.6 229.6, 491.9 229.8 Q 492.2 230.0, 492.5 230.3 Q 492.7 230.7, 492.7 231.2 Q 492.7 232.1, 492.0 232.6 Q 491.4 233.1, 490.4 233.1 Q 489.8 233.1, 489.3 233.0 Q 488.8 232.8, 488.3 232.6 L 488.6 231.7 " fill="#000000"/>
<path class="legend" d="M 493.7 231.8 L 494.9 231.8 L 494.9 233.0 L 493.7 233.0 L 493.7 231.8 " fill="#000000"/>
<path class="legend" d="M 496.5 231.7 Q 497.0 231.9, 497.4 232.0 Q 497.8 232.2, 498.3 232.2 Q 498.8 232.2, 499.1 231.9 Q 499.4 231.7, 499.4 231.2 Q 499.4 231.0, 499.3 230.8 Q 499.1 230.6, 498.9 230.5 Q 498.7 230.4, 498.1 230.3 Q 498.1 230.2, 497.5 230.0 Q 496.9 229.9, 496.6 229.4 Q 496.4 229.0, 496.4 228.4 Q 496.4 227.7, 496.9 227.2 Q 497.5 226.6, 498.6 226.6 Q 499.1 226.6, 499.5 226.8 Q 500.0 226.9, 500.4 227.0 L 500.1 227.9 Q 499.7 227.8, 499.4 227.7 Q 499.0 227.6, 498.6 227.6 Q 498.1 227.6, 497.8 227.8 Q 497.5 228.0, 497.5 228.4 Q 497.5 228.7, 497.7 228.9 Q 498.0 229.1, 498.5 229.3 Q 498.6 229.3, 498.7 229.3 L 499.0 229.4 Q 499.5 229.6, 499.8 229.8 Q 500.1 230.0, 500.3 230.3 Q 500.6 230.7, 500.6 231.2 Q 500.6 232.1, 499.9 232.6 Q 499.3 233.1, 498.3 233.1 Q 497.7 233.1, 497.2 233.0 Q 496.7 232.8, 496.1 232.6 L 496.5 231.7 " fill="#000000"/>
<path class="legend" d="M 508.8 226.6 Q 509.9 226.6, 510.4 227.2 Q 511.0 227.8, 511.0 228.9 L 511.0 233.0 L 509.8 233.0 L 509.8 229.0 Q 509.8 228.2, 509.5 227.9 Q 509.2 227.5, 508.6 227.5 Q 508.1 227.5, 507.6 227.8 Q 507.1 228.1, 506.9 228.5 Q 506.9 228.6, 506.9 228.9 L 506.9 233.0 L 505.7 233.0 L 505.7 229.0 Q 505.7 228.2, 505.4 227.9 Q 505.2 227.5, 504.5 227.5 Q 504.0 227.5, 503.5 227.8 Q 503.1 228.1, 502.8 228.5 L 502.8 233.0 L 501.6 233.0 L 501.6 226.8 L 502.6 226.8 L 502.7 227.6 Q 503.5 226.6, 504.7 226.6 Q 506.2 226.6, 506.7 227.7 Q 507.5 226.6, 508.8 226.6 " fill="#000000"/>
<path class="legend" d="M 512.3 224.4 L 513.4 224.4 L 513.4 225.5 L 512.3 225.5 L 512.3 224.4 M 512.3 226.8 L 513.4 226.8 L 513.4 233.0 L 512.3 233.0 L 512.3 226.8 " fill="#000000"/>
<path class="legend" d="M 410.0 238.7 L 410.0 237.8 L 411.2 237.8 L 411.4 236.0 L 412.2 236.0 L 412.2 237.8 L 414.2 237.8 L 414.2 238.7 L 412.2 238.7 L 412.2 242.1 Q 412.2 243.2, 413.2 243.2 Q 413.5 243.2, 414.1 243.0 L 414.2 243.8 Q 413.6 244.1, 413.0 244.1 Q 412.1 244.1, 411.6 243.6 Q 411.1 243.1, 411.1 242.2 L 411.1 238.7 L 410.0 238.7 " fill="#000000"/>
<path class="legend" d="M 415.1 240.9 Q 415.1 239.4, 415.8 238.5 Q 416.6 237.7, 418.0 237.7 Q 419.5 237.7, 420.2 238.5 Q 421.0 239.4, 421.0 240.9 Q 421.0 242.4, 420.2 243.3 Q 419.5 244.1, 418.0 244.1 Q 416.6 244.1, 415.8 243.3 Q 415.1 242.4, 415.1 240.9 M 416.2 240.9 Q 416.2 242.0, 416.7 242.6 Q 417.2 243.2, 418.0 243.2 Q 418.9 243.2, 419.4 242.6 Q 419.8 242.0, 419.8 240.9 Q 419.8 239.8, 419.4 239.2 Q 418.9 238.6, 418.0 238.6 Q 417.2 238.6, 416.7 239.2 Q 416.2 239.8, 416.2 240.9 " fill="#000000"/>
<path class="legend" d="M 425.0 237.7 Q 426.3 237.7, 427.0 238.5 Q 427.7 239.3, 427.7 240.8 Q 427.7 242.4, 426.9 243.2 Q 426.0 244.1, 424.5 244.1 Q 423.8 244.1, 423.2 244.0 L 423.2 247.0 L 422.1 247.0 L 422.1 237.8 L 423.0 237.8 L 423.2 238.5 Q 423.5 238.1, 423.9 237.9 Q 424.4 237.7, 425.0 237.7 M 424.5 243.2 Q 425.5 243.2, 426.0 242.6 Q 426.6 242.0, 426.6 240.8 Q 426.6 239.7, 426.1 239.2 Q 425.7 238.6, 424.9 238.6 Q 424.3 238.6, 423.8 238.9 Q 423.4 239.2, 423.2 239.8 L 423.2 243.0 Q 423.8 243.2, 424.5 243.2 " fill="#000000"/>
<path class="legend" d="M 428.8 238.7 L 434.4 238.7 L 434.4 239.6 L 428.8 239.6 L 428.8 238.7 M 428.8 241.3 L 434.4 241.3 L 434.4 242.2 L 428.8 242.2 L 428.8 241.3 " fill="#000000"/>
<path class="legend" d="M 439.1 244.1 Q 437.6 244.1, 436.8 243.0 Q 436.0 241.8, 436.0 239.7 Q 436.0 237.6, 436.8 236.5 Q 437.5 235.3, 439.1 235.3 Q 440.7 235.3, 441.5 236.5 Q 442.3 237.6, 442.3 239.7 Q 442.3 241.8, 441.5 243.0 Q 440.7 244.1, 439.1 244.1 M 439.1 243.2 Q 440.1 243.2, 440.6 242.3 Q 441.1 241.4, 441.1 239.7 Q 441.1 238.0, 440.6 237.2 Q 440.1 236.3, 439.1 236.3 Q 438.2 236.3, 437.7 237.2 Q 437.2 238.0, 437.2 239.7 Q 437.2 241.4, 437.7 242.3 Q 438.2 243.2, 439.1 243.2 " fill="#000000"/>
<path class="legend" d="" fill="#000000"/>
<path class="legend" d="M 448.2 242.3 Q 448.2 241.3, 449.0 240.8 Q 449.8 240.3, 451.2 240.3 L 452.2 240.3 L 452.2 240.0 Q 452.2 239.2, 451.8 238.9 Q 451.5 238.6, 450.7 238.6 Q 450.2 238.6, 449.8 238.7 Q 449.5 238.8, 448.9 239.0 L 448.5 238.2 Q 449.7 237.7, 450.8 237.7 Q 452.1 237.7, 452.7 238.2 Q 453.3 238.8, 453.3 240.0 L 453.3 244.0 L 452.4 244.0 Q 452.4 244.0, 452.4 243.8 Q 452.3 243.6, 452.2 243.3 Q 451.4 244.2, 450.2 244.2 Q 449.3 244.2, 448.7 243.7 Q 448.2 243.2, 448.2 242.3 M 449.3 242.3 Q 449.3 242.8, 449.6 243.0 Q 449.9 243.3, 450.4 243.3 Q 450.9 243.3, 451.4 243.1 Q 451.8 242.8, 452.2 242.4 L 452.2 241.1 L 451.3 241.1 Q 450.3 241.1, 449.8 241.4 Q 449.3 241.7, 449.3 242.3 " fill="#000000"/>
<path class="legend" d="M 454.8 238.7 L 454.8 237.8 L 455.9 237.8 L 456.1 236.0 L 457.0 236.0 L 457.0 237.8 L 458.9 237.8 L 458.9 238.7 L 457.0 238.7 L 457.0 242.1 Q 457.0 243.2, 457.9 243.2 Q 458.3 243.2, 458.8 243.0 L 459.0 243.8 Q 458.3 244.1, 457.7 244.1 Q 456.9 244.1, 456.4 243.6 Q 455.8 243.1, 455.8 242.2 L 455.8 238.7 L 454.8 238.7 " fill="#000000"/>
<path class="legend" d="M 459.8 240.9 Q 459.8 239.4, 460.6 238.5 Q 461.4 237.7, 462.8 237.7 Q 464.2 237.7, 465.0 238.5 Q 465.7 239.4, 465.7 240.9 Q 465.7 242.4, 465.0 243.3 Q 464.2 244.1, 462.8 244.1 Q 461.4 244.1, 460.6 243.3 Q 459.8 242.4, 459.8 240.9 M 461.0 240.9 Q 461.0 242.0, 461.4 242.6 Q 461.9 243.2, 462.8 243.2 Q 463.6 243.2, 464.1 242.6 Q 464.6 242.0, 464.6 240.9 Q 464.6 239.8, 464.1 239.2 Q 463.6 238.6, 462.8 238.6 Q 461.9 238.6, 461.4 239.2 Q 461.0 239.8, 461.0 240.9 " fill="#000000"/>
<path class="legend" d="M 474.0 237.7 Q 475.1 237.7, 475.6 238.2 Q 476.2 238.8, 476.2 239.9 L 476.2 244.0 L 475.0 244.0 L 475.0 240.0 Q 475.0 239.2, 474.7 238.9 Q 474.4 238.6, 473.8 238.6 Q 473.3 238.6, 472.8 238.8 Q 472.3 239.1, 472.1 239.6 Q 472.1 239.7, 472.1 239.9 L 472.1 244.0 L 470.9 244.0 L 470.9 240.0 Q 470.9 239.2, 470.6 238.9 Q 470.4 238.6, 469.7 238.6 Q 469.2 238.6, 468.7 238.8 Q 468.3 239.1, 468.0 239.5 L 468.0 244.0 L 466.8 244.0 L 466.8 237.8 L 467.8 237.8 L 467.9 238.6 Q 468.7 237.7, 469.9 237.7 Q 471.4 237.7, 471.9 238.8 Q 472.7 237.7, 474.0 237.7 " fill="#000000"/>
<path class="legend" d="M 477.6 238.7 L 483.2 238.7 L 483.2 239.6 L 477.6 239.6 L 477.6 238.7 M 477.6 241.3 L 483.2 241.3 L 483.2 242.2 L 477.6 242.2 L 477.6 241.3 " fill="#000000"/>
<path class="legend" d="M 485.3 243.1 L 487.2 243.1 L 487.2 236.6 L 485.1 237.3 L 484.8 236.6 L 487.4 235.4 L 488.3 235.5 L 488.3 243.1 L 490.0 243.1 L 490.0 244.0 L 485.3 244.0 L 485.3 243.1 " fill="#000000"/>
</svg>