<svg xmlns="http://www.w3.org/2000/svg" xmlns:rdkit="http://www.rdkit.org/xml" xmlns:xlink="http://www.w3.org/1999/xlink" version="1.1" baseProfile="full" xml:space="preserve" width="1200px" height="260px" viewBox="0 0 1200 260">
<!-- END OF HEADER -->
<rect style="opacity:1.0;fill:#FFFFFF;stroke:none" width="300.0" height="260.0" x="0.0" y="0.0"> </rect>
<path class="bond-0 atom-0 atom-1" d="M 250.3,91.3 L 244.1,102.0" style="fill:none;fill-rule:evenodd;stroke:#FF0000;stroke-width:2.0px;stroke-linecap:butt;stroke-linejoin:miter;stroke-opacity:1"/>
<path class="bond-0 atom-0 atom-1" d="M 244.1,102.0 L 237.9,112.7" style="fill:none;fill-rule:evenodd;stroke:#0000FF;stroke-width:2.0px;stroke-linecap:butt;stroke-linejoin:miter;stroke-opacity:1"/>
<path class="bond-0 atom-0 atom-1" d="M 244.8,88.1 L 238.6,98.8" style="fill:none;fill-rule:evenodd;stroke:#FF0000;stroke-width:2.0px;stroke-linecap:butt;stroke-linejoin:miter;stroke-opacity:1"/>
<path class="bond-0 atom-0 atom-1" d="M 238.6,98.8 L 232.5,109.5" style="fill:none;fill-rule:evenodd;stroke:#0000FF;stroke-width:2.0px;stroke-linecap:butt;stroke-linejoin:miter;stroke-opacity:1"/>
<path class="bond-1 atom-1 atom-2" d="M 235.2,125.7 L 241.4,136.5" style="fill:none;fill-rule:evenodd;stroke:#0000FF;stroke-width:2.0px;stroke-linecap:butt;stroke-linejoin:miter;stroke-opacity:1"/>
<path class="bond-1 atom-1 atom-2" d="M 241.4,136.5 L 247.6,147.3" style="fill:none;fill-rule:evenodd;stroke:#FF0000;stroke-width:2.0px;stroke-linecap:butt;stroke-linejoin:miter;stroke-opacity:1"/>
<path class="bond-2 atom-1 atom-3" d="M 225.1,118.4 L 207.1,118.4" style="fill:none;fill-rule:evenodd;stroke:#0000FF;stroke-width:2.0px;stroke-linecap:butt;stroke-linejoin:miter;stroke-opacity:1"/>
<path class="bond-2 atom-1 atom-3" d="M 207.1,118.4 L 189.0,118.4" style="fill:none;fill-rule:evenodd;stroke:#000000;stroke-width:2.0px;stroke-linecap:butt;stroke-linejoin:miter;stroke-opacity:1"/>
<path class="bond-3 atom-3 atom-4" d="M 189.0,118.4 L 168.1,154.7" style="fill:none;fill-rule:evenodd;stroke:#000000;stroke-width:2.0px;stroke-linecap:butt;stroke-linejoin:miter;stroke-opacity:1"/>
<path class="bond-3 atom-3 atom-4" d="M 181.8,118.4 L 164.5,148.4" style="fill:none;fill-rule:evenodd;stroke:#000000;stroke-width:2.0px;stroke-linecap:butt;stroke-linejoin:miter;stroke-opacity:1"/>
<path class="bond-4 atom-4 atom-5" d="M 168.1,154.7 L 126.2,154.7" style="fill:none;fill-rule:evenodd;stroke:#000000;stroke-width:2.0px;stroke-linecap:butt;stroke-linejoin:miter;stroke-opacity:1"/>
<path class="bond-5 atom-5 atom-6" d="M 126.2,154.7 L 105.2,118.4" style="fill:none;fill-rule:evenodd;stroke:#000000;stroke-width:2.0px;stroke-linecap:butt;stroke-linejoin:miter;stroke-opacity:1"/>
<path class="bond-5 atom-5 atom-6" d="M 129.8,148.4 L 112.5,118.4" style="fill:none;fill-rule:evenodd;stroke:#000000;stroke-width:2.0px;stroke-linecap:butt;stroke-linejoin:miter;stroke-opacity:1"/>
<path class="bond-6 atom-6 atom-7" d="M 105.2,118.4 L 90.9,118.4" style="fill:none;fill-rule:evenodd;stroke:#000000;stroke-width:2.0px;stroke-linecap:butt;stroke-linejoin:miter;stroke-opacity:1"/>
<path class="bond-6 atom-6 atom-7" d="M 90.9,118.4 L 76.6,118.4" style="fill:none;fill-rule:evenodd;stroke:#0000FF;stroke-width:2.0px;stroke-linecap:butt;stroke-linejoin:miter;stroke-opacity:1"/>
<path class="bond-7 atom-7 atom-8" d="M 56.3,124.2 L 50.1,135.0" style="fill:none;fill-rule:evenodd;stroke:#0000FF;stroke-width:2.0px;stroke-linecap:butt;stroke-linejoin:miter;stroke-opacity:1"/>
<path class="bond-7 atom-7 atom-8" d="M 50.1,135.0 L 43.9,145.7" style="fill:none;fill-rule:evenodd;stroke:#FF0000;stroke-width:2.0px;stroke-linecap:butt;stroke-linejoin:miter;stroke-opacity:1"/>
<path class="bond-7 atom-7 atom-8" d="M 61.8,127.3 L 55.6,138.1" style="fill:none;fill-rule:evenodd;stroke:#0000FF;stroke-width:2.0px;stroke-linecap:butt;stroke-linejoin:miter;stroke-opacity:1"/>
<path class="bond-7 atom-7 atom-8" d="M 55.6,138.1 L 49.3,148.9" style="fill:none;fill-rule:evenodd;stroke:#FF0000;stroke-width:2.0px;stroke-linecap:butt;stroke-linejoin:miter;stroke-opacity:1"/>
<path class="bond-8 atom-7 atom-9" d="M 59.1,111.1 L 52.9,100.4" style="fill:none;fill-rule:evenodd;stroke:#0000FF;stroke-width:2.0px;stroke-linecap:butt;stroke-linejoin:miter;stroke-opacity:1"/>
<path class="bond-8 atom-7 atom-9" d="M 52.9,100.4 L 46.7,89.7" style="fill:none;fill-rule:evenodd;stroke:#FF0000;stroke-width:2.0px;stroke-linecap:butt;stroke-linejoin:miter;stroke-opacity:1"/>
<path class="bond-9 atom-6 atom-10" d="M 105.2,118.4 L 126.2,82.1" style="fill:none;fill-rule:evenodd;stroke:#000000;stroke-width:2.0px;stroke-linecap:butt;stroke-linejoin:miter;stroke-opacity:1"/>
<path class="bond-10 atom-10 atom-11" d="M 126.2,82.1 L 168.1,82.1" style="fill:none;fill-rule:evenodd;stroke:#000000;stroke-width:2.0px;stroke-linecap:butt;stroke-linejoin:miter;stroke-opacity:1"/>
<path class="bond-10 atom-10 atom-11" d="M 129.8,88.4 L 164.5,88.4" style="fill:none;fill-rule:evenodd;stroke:#000000;stroke-width:2.0px;stroke-linecap:butt;stroke-linejoin:miter;stroke-opacity:1"/>
<path class="bond-11 atom-11 atom-3" d="M 168.1,82.1 L 189.0,118.4" style="fill:none;fill-rule:evenodd;stroke:#000000;stroke-width:2.0px;stroke-linecap:butt;stroke-linejoin:miter;stroke-opacity:1"/>
<path d="M 169.1,152.9 L 168.1,154.7 L 166.0,154.7" style="fill:none;stroke:#000000;stroke-width:2.0px;stroke-linecap:butt;stroke-linejoin:miter;stroke-miterlimit:10;stroke-opacity:1;"/>
<path d="M 128.3,154.7 L 126.2,154.7 L 125.1,152.9" style="fill:none;stroke:#000000;stroke-width:2.0px;stroke-linecap:butt;stroke-linejoin:miter;stroke-miterlimit:10;stroke-opacity:1;"/>
<path d="M 125.1,83.9 L 126.2,82.1 L 128.3,82.1" style="fill:none;stroke:#000000;stroke-width:2.0px;stroke-linecap:butt;stroke-linejoin:miter;stroke-miterlimit:10;stroke-opacity:1;"/>
<path d="M 166.0,82.1 L 168.1,82.1 L 169.1,83.9" style="fill:none;stroke:#000000;stroke-width:2.0px;stroke-linecap:butt;stroke-linejoin:miter;stroke-miterlimit:10;stroke-opacity:1;"/>
<path class="atom-0" d="M 246.5 82.1 Q 246.5 79.3, 247.9 77.7 Q 249.3 76.1, 251.9 76.1 Q 254.5 76.1, 255.9 77.7 Q 257.4 79.3, 257.4 82.1 Q 257.4 85.0, 255.9 86.7 Q 254.5 88.3, 251.9 88.3 Q 249.3 88.3, 247.9 86.7 Q 246.5 85.0, 246.5 82.1 M 251.9 87.0 Q 253.7 87.0, 254.7 85.7 Q 255.7 84.5, 255.7 82.1 Q 255.7 79.8, 254.7 78.6 Q 253.7 77.4, 251.9 77.4 Q 250.1 77.4, 249.1 78.6 Q 248.1 79.8, 248.1 82.1 Q 248.1 84.5, 249.1 85.7 Q 250.1 87.0, 251.9 87.0 " fill="#FF0000"/>
<path class="atom-1" d="M 228.3 112.5 L 232.2 118.8 Q 232.6 119.4, 233.2 120.5 Q 233.8 121.6, 233.9 121.7 L 233.9 112.5 L 235.5 112.5 L 235.5 124.3 L 233.8 124.3 L 229.7 117.5 Q 229.2 116.7, 228.6 115.7 Q 228.1 114.8, 228.0 114.5 L 228.0 124.3 L 226.5 124.3 L 226.5 112.5 L 228.3 112.5 " fill="#0000FF"/>
<path class="atom-1" d="M 237.7 114.6 L 239.8 114.6 L 239.8 112.4 L 240.7 112.4 L 240.7 114.6 L 242.9 114.6 L 242.9 115.4 L 240.7 115.4 L 240.7 117.6 L 239.8 117.6 L 239.8 115.4 L 237.7 115.4 L 237.7 114.6 " fill="#0000FF"/>
<path class="atom-2" d="M 246.5 154.7 Q 246.5 151.9, 247.9 150.3 Q 249.3 148.7, 251.9 148.7 Q 254.5 148.7, 255.9 150.3 Q 257.4 151.9, 257.4 154.7 Q 257.4 157.6, 255.9 159.3 Q 254.5 160.9, 251.9 160.9 Q 249.3 160.9, 247.9 159.3 Q 246.5 157.6, 246.5 154.7 M 251.9 159.6 Q 253.7 159.6, 254.7 158.3 Q 255.7 157.1, 255.7 154.7 Q 255.7 152.4, 254.7 151.2 Q 253.7 150.0, 251.9 150.0 Q 250.1 150.0, 249.1 151.2 Q 248.1 152.4, 248.1 154.7 Q 248.1 157.1, 249.1 158.3 Q 250.1 159.6, 251.9 159.6 " fill="#FF0000"/>
<path class="atom-2" d="M 259.0 150.6 L 263.1 150.6 L 263.1 151.5 L 259.0 151.5 L 259.0 150.6 " fill="#FF0000"/>
<path class="atom-7" d="M 60.7 112.5 L 64.6 118.8 Q 64.9 119.4, 65.6 120.5 Q 66.2 121.6, 66.2 121.7 L 66.2 112.5 L 67.8 112.5 L 67.8 124.3 L 66.2 124.3 L 62.0 117.5 Q 61.5 116.7, 61.0 115.7 Q 60.5 114.8, 60.3 114.5 L 60.3 124.3 L 58.8 124.3 L 58.8 112.5 L 60.7 112.5 " fill="#0000FF"/>
<path class="atom-7" d="M 70.0 114.6 L 72.1 114.6 L 72.1 112.4 L 73.1 112.4 L 73.1 114.6 L 75.2 114.6 L 75.2 115.4 L 73.1 115.4 L 73.1 117.6 L 72.1 117.6 L 72.1 115.4 L 70.0 115.4 L 70.0 114.6 " fill="#0000FF"/>
<path class="atom-8" d="M 36.9 154.7 Q 36.9 151.9, 38.3 150.3 Q 39.7 148.7, 42.3 148.7 Q 45.0 148.7, 46.4 150.3 Q 47.8 151.9, 47.8 154.7 Q 47.8 157.6, 46.4 159.3 Q 44.9 160.9, 42.3 160.9 Q 39.7 160.9, 38.3 159.3 Q 36.9 157.6, 36.9 154.7 M 42.3 159.6 Q 44.2 159.6, 45.1 158.3 Q 46.1 157.1, 46.1 154.7 Q 46.1 152.4, 45.1 151.2 Q 44.2 150.0, 42.3 150.0 Q 40.5 150.0, 39.5 151.2 Q 38.6 152.4, 38.6 154.7 Q 38.6 157.1, 39.5 158.3 Q 40.5 159.6, 42.3 159.6 " fill="#FF0000"/>
<path class="atom-9" d="M 36.9 82.1 Q 36.9 79.3, 38.3 77.7 Q 39.7 76.1, 42.3 76.1 Q 45.0 76.1, 46.4 77.7 Q 47.8 79.3, 47.8 82.1 Q 47.8 85.0, 46.4 86.7 Q 44.9 88.3, 42.3 88.3 Q 39.7 88.3, 38.3 86.7 Q 36.9 85.0, 36.9 82.1 M 42.3 87.0 Q 44.2 87.0, 45.1 85.7 Q 46.1 84.5, 46.1 82.1 Q 46.1 79.8, 45.1 78.6 Q 44.2 77.4, 42.3 77.4 Q 40.5 77.4, 39.5 78.6 Q 38.6 79.8, 38.6 82.1 Q 38.6 84.5, 39.5 85.7 Q 40.5 87.0, 42.3 87.0 " fill="#FF0000"/>
<path class="atom-9" d="M 49.5 78.0 L 53.5 78.0 L 53.5 78.9 L 49.5 78.9 L 49.5 78.0 " fill="#FF0000"/>
<path class="legend" d="M 96.4 229.9 L 97.4 229.9 L 97.4 230.8 L 96.4 230.8 L 96.4 232.7 L 95.3 232.7 L 95.3 230.8 L 91.0 230.8 L 91.0 230.1 L 94.6 224.4 L 96.4 224.4 L 96.4 229.9 M 92.3 229.9 L 95.3 229.9 L 95.3 225.1 L 92.3 229.9 " fill="#000000"/>
<path class="legend" d="M 101.4 227.5 Q 102.1 227.5, 102.7 227.8 Q 103.3 228.1, 103.7 228.7 Q 104.0 229.3, 104.0 230.1 Q 104.0 230.9, 103.6 231.6 Q 103.2 232.2, 102.5 232.5 Q 101.8 232.8, 101.0 232.8 Q 100.3 232.8, 99.6 232.5 Q 98.9 232.2, 98.4 231.7 L 99.1 231.0 Q 99.5 231.4, 100.0 231.6 Q 100.5 231.9, 101.1 231.9 Q 101.8 231.9, 102.3 231.4 Q 102.8 230.9, 102.8 230.1 Q 102.8 229.2, 102.3 228.8 Q 101.8 228.4, 101.0 228.4 Q 100.3 228.4, 99.5 228.7 L 98.8 228.4 L 99.2 224.4 L 103.5 224.4 L 103.4 225.3 L 100.2 225.3 L 99.9 227.8 Q 100.7 227.5, 101.4 227.5 " fill="#000000"/>
<path class="legend" d="" fill="#000000"/>
<path class="legend" d="M 109.4 223.6 L 110.4 223.6 L 110.4 235.0 L 109.4 235.0 L 109.4 223.6 " fill="#000000"/>
<path class="legend" d="" fill="#000000"/>
<path class="legend" d="M 123.1 226.6 Q 124.2 226.6, 124.7 227.1 Q 125.2 227.7, 125.2 228.7 L 125.2 232.7 L 124.1 232.7 L 124.1 228.8 Q 124.1 228.1, 123.8 227.8 Q 123.5 227.4, 122.9 227.4 Q 122.4 227.4, 121.9 227.7 Q 121.5 227.9, 121.2 228.4 Q 121.2 228.5, 121.2 228.7 L 121.2 232.7 L 120.1 232.7 L 120.1 228.8 Q 120.1 228.1, 119.8 227.8 Q 119.6 227.4, 118.9 227.4 Q 118.4 227.4, 118.0 227.7 Q 117.5 227.9, 117.2 228.4 L 117.2 232.7 L 116.1 232.7 L 116.1 226.7 L 117.0 226.7 L 117.2 227.5 Q 117.9 226.6, 119.2 226.6 Q 120.6 226.6, 121.0 227.6 Q 121.8 226.6, 123.1 226.6 " fill="#000000"/>
<path class="legend" d="M 131.7 226.7 L 131.7 232.7 L 130.8 232.7 L 130.6 231.9 Q 129.8 232.8, 128.6 232.8 Q 127.6 232.8, 127.0 232.3 Q 126.5 231.7, 126.5 230.7 L 126.5 226.7 L 127.6 226.7 L 127.6 230.6 Q 127.6 231.3, 127.9 231.6 Q 128.2 232.0, 128.8 232.0 Q 129.3 232.0, 129.8 231.7 Q 130.3 231.4, 130.6 231.0 L 130.6 226.7 L 131.7 226.7 " fill="#000000"/>
<path class="legend" d="M 133.1 227.5 L 133.1 226.7 L 134.2 226.7 L 134.4 224.9 L 135.2 224.9 L 135.2 226.7 L 137.1 226.7 L 137.1 227.5 L 135.2 227.5 L 135.2 230.9 Q 135.2 231.9, 136.1 231.9 Q 136.5 231.9, 137.0 231.7 L 137.2 232.5 Q 136.5 232.8, 135.9 232.8 Q 135.1 232.8, 134.6 232.3 Q 134.1 231.8, 134.1 230.9 L 134.1 227.5 L 133.1 227.5 " fill="#000000"/>
<path class="legend" d="M 137.9 231.1 Q 137.9 230.1, 138.7 229.6 Q 139.4 229.1, 140.9 229.1 L 141.8 229.1 L 141.8 228.8 Q 141.8 228.1, 141.4 227.7 Q 141.1 227.4, 140.4 227.4 Q 139.9 227.4, 139.5 227.5 Q 139.1 227.6, 138.6 227.9 L 138.2 227.1 Q 139.3 226.6, 140.4 226.6 Q 141.7 226.6, 142.3 227.1 Q 142.9 227.7, 142.9 228.8 L 142.9 232.7 L 142.0 232.7 Q 142.0 232.7, 142.0 232.5 Q 141.9 232.3, 141.9 232.0 Q 141.0 232.9, 139.9 232.9 Q 139.0 232.9, 138.4 232.4 Q 137.9 231.9, 137.9 231.1 M 139.0 231.1 Q 139.0 231.5, 139.3 231.8 Q 139.6 232.0, 140.1 232.0 Q 140.6 232.0, 141.0 231.8 Q 141.5 231.6, 141.8 231.2 L 141.8 229.9 L 140.9 229.9 Q 140.0 229.9, 139.5 230.2 Q 139.0 230.5, 139.0 231.1 " fill="#000000"/>
<path class="legend" d="M 149.7 226.7 L 149.7 233.1 Q 149.7 235.7, 146.9 235.7 Q 145.6 235.7, 144.4 235.1 L 144.8 234.3 Q 145.4 234.6, 145.9 234.7 Q 146.4 234.8, 146.9 234.8 Q 147.8 234.8, 148.2 234.4 Q 148.6 234.0, 148.6 233.1 L 148.6 232.0 Q 148.0 232.8, 146.9 232.8 Q 145.6 232.8, 144.9 232.0 Q 144.2 231.2, 144.2 229.8 Q 144.2 228.3, 145.0 227.4 Q 145.9 226.6, 147.3 226.6 Q 148.1 226.6, 148.8 226.8 L 148.8 226.7 L 149.7 226.7 M 146.9 231.9 Q 147.5 231.9, 148.0 231.6 Q 148.4 231.3, 148.6 230.7 L 148.6 227.6 Q 148.0 227.4, 147.3 227.4 Q 146.4 227.4, 145.9 228.1 Q 145.3 228.7, 145.3 229.8 Q 145.3 230.8, 145.7 231.4 Q 146.2 231.9, 146.9 231.9 " fill="#000000"/>
<path class="legend" d="M 157.1 233.3 L 157.1 234.3 L 151.1 234.3 L 151.1 233.3 L 157.1 233.3 " fill="#000000"/>
<path class="legend" d="M 157.9 231.5 Q 158.4 231.7, 158.8 231.8 Q 159.2 231.9, 159.6 231.9 Q 160.1 231.9, 160.4 231.7 Q 160.7 231.5, 160.7 231.0 Q 160.7 230.8, 160.5 230.6 Q 160.4 230.4, 160.2 230.3 Q 160.0 230.2, 159.5 230.1 Q 159.4 230.0, 158.9 229.9 Q 158.3 229.7, 158.0 229.3 Q 157.7 228.9, 157.7 228.3 Q 157.7 227.5, 158.3 227.1 Q 158.9 226.6, 160.0 226.6 Q 160.4 226.6, 160.8 226.7 Q 161.2 226.8, 161.7 226.9 L 161.4 227.8 Q 161.0 227.7, 160.7 227.6 Q 160.3 227.5, 160.0 227.5 Q 159.4 227.5, 159.1 227.7 Q 158.8 227.9, 158.8 228.3 Q 158.8 228.6, 159.1 228.8 Q 159.3 228.9, 159.8 229.1 Q 159.9 229.1, 160.0 229.2 L 160.3 229.3 Q 160.8 229.4, 161.1 229.6 Q 161.4 229.8, 161.6 230.1 Q 161.8 230.4, 161.8 231.0 Q 161.8 231.9, 161.2 232.4 Q 160.6 232.8, 159.6 232.8 Q 159.0 232.8, 158.5 232.7 Q 158.0 232.6, 157.5 232.4 L 157.9 231.5 " fill="#000000"/>
<path class="legend" d="M 169.9 226.6 Q 170.9 226.6, 171.4 227.1 Q 171.9 227.7, 171.9 228.7 L 171.9 232.7 L 170.8 232.7 L 170.8 228.8 Q 170.8 228.1, 170.5 227.8 Q 170.3 227.4, 169.7 227.4 Q 169.1 227.4, 168.7 227.7 Q 168.2 227.9, 167.9 228.4 Q 168.0 228.5, 168.0 228.7 L 168.0 232.7 L 166.8 232.7 L 166.8 228.8 Q 166.8 228.1, 166.6 227.8 Q 166.3 227.4, 165.7 227.4 Q 165.2 227.4, 164.7 227.7 Q 164.3 227.9, 164.0 228.4 L 164.0 232.7 L 162.9 232.7 L 162.9 226.7 L 163.8 226.7 L 163.9 227.5 Q 164.7 226.6, 165.9 226.6 Q 167.3 226.6, 167.8 227.6 Q 168.6 226.6, 169.9 226.6 " fill="#000000"/>
<path class="legend" d="M 173.3 224.4 L 174.3 224.4 L 174.3 225.4 L 173.3 225.4 L 173.3 224.4 M 173.3 226.7 L 174.3 226.7 L 174.3 232.7 L 173.3 232.7 L 173.3 226.7 " fill="#000000"/>
<path class="legend" d="M 175.8 223.8 L 176.9 223.8 L 176.9 232.7 L 175.8 232.7 L 175.8 223.8 " fill="#000000"/>
<path class="legend" d="M 178.3 229.7 Q 178.3 228.2, 179.0 227.4 Q 179.8 226.6, 181.1 226.6 Q 182.5 226.6, 183.1 227.4 Q 183.7 228.1, 183.7 229.6 L 183.7 229.8 L 179.4 229.8 Q 179.5 230.9, 179.9 231.4 Q 180.4 231.9, 181.2 231.9 Q 181.7 231.9, 182.1 231.8 Q 182.6 231.7, 183.1 231.5 L 183.4 232.2 Q 182.8 232.5, 182.3 232.7 Q 181.7 232.8, 181.2 232.8 Q 179.8 232.8, 179.0 232.0 Q 178.3 231.2, 178.3 229.7 M 181.1 227.4 Q 180.4 227.4, 180.0 227.8 Q 179.6 228.2, 179.5 229.0 L 182.5 229.0 Q 182.4 228.2, 182.1 227.8 Q 181.7 227.4, 181.1 227.4 " fill="#000000"/>
<path class="legend" d="M 184.9 231.5 Q 185.4 231.7, 185.8 231.8 Q 186.2 231.9, 186.6 231.9 Q 187.1 231.9, 187.4 231.7 Q 187.7 231.5, 187.7 231.0 Q 187.7 230.8, 187.5 230.6 Q 187.4 230.4, 187.2 230.3 Q 187.0 230.2, 186.5 230.1 Q 186.4 230.0, 185.8 229.9 Q 185.3 229.7, 185.0 229.3 Q 184.7 228.9, 184.7 228.3 Q 184.7 227.5, 185.3 227.1 Q 185.9 226.6, 187.0 226.6 Q 187.4 226.6, 187.8 226.7 Q 188.2 226.8, 188.7 226.9 L 188.4 227.8 Q 188.0 227.7, 187.6 227.6 Q 187.3 227.5, 187.0 227.5 Q 186.4 227.5, 186.1 227.7 Q 185.8 227.9, 185.8 228.3 Q 185.8 228.6, 186.1 228.8 Q 186.3 228.9, 186.8 229.1 Q 186.9 229.1, 187.0 229.2 L 187.3 229.3 Q 187.8 229.4, 188.1 229.6 Q 188.4 229.8, 188.6 230.1 Q 188.8 230.4, 188.8 231.0 Q 188.8 231.9, 188.2 232.4 Q 187.6 232.8, 186.6 232.8 Q 186.0 232.8, 185.5 232.7 Q 185.0 232.6, 184.5 232.4 L 184.9 231.5 " fill="#000000"/>
<path class="legend" d="M 189.9 231.5 L 191.0 231.5 L 191.0 232.7 L 189.9 232.7 L 189.9 231.5 " fill="#000000"/>
<path class="legend" d="M 192.6 231.5 Q 193.1 231.7, 193.5 231.8 Q 193.9 231.9, 194.3 231.9 Q 194.8 231.9, 195.1 231.7 Q 195.4 231.5, 195.4 231.0 Q 195.4 230.8, 195.2 230.6 Q 195.1 230.4, 194.9 230.3 Q 194.7 230.2, 194.2 230.1 Q 194.1 230.0, 193.5 229.9 Q 193.0 229.7, 192.7 229.3 Q 192.4 228.9, 192.4 228.3 Q 192.4 227.5, 193.0 227.1 Q 193.6 226.6, 194.7 226.6 Q 195.1 226.6, 195.5 226.7 Q 195.9 226.8, 196.4 226.9 L 196.1 227.8 Q 195.7 227.7, 195.4 227.6 Q 195.0 227.5, 194.7 227.5 Q 194.1 227.5, 193.8 227.7 Q 193.5 227.9, 193.5 228.3 Q 193.5 228.6, 193.8 228.8 Q 194.0 228.9, 194.5 229.1 Q 194.6 229.1, 194.7 229.2 L 195.0 229.3 Q 195.5 229.4, 195.8 229.6 Q 196.1 229.8, 196.3 230.1 Q 196.5 230.4, 196.5 231.0 Q 196.5 231.9, 195.9 232.4 Q 195.3 232.8, 194.3 232.8 Q 193.7 232.8, 193.2 232.7 Q 192.7 232.6, 192.2 232.4 L 192.6 231.5 " fill="#000000"/>
<path class="legend" d="M 204.6 226.6 Q 205.6 226.6, 206.1 227.1 Q 206.6 227.7, 206.6 228.7 L 206.6 232.7 L 205.5 232.7 L 205.5 228.8 Q 205.5 228.1, 205.2 227.8 Q 205.0 227.4, 204.4 227.4 Q 203.8 227.4, 203.4 227.7 Q 202.9 227.9, 202.6 228.4 Q 202.7 228.5, 202.7 228.7 L 202.7 232.7 L 201.5 232.7 L 201.5 228.8 Q 201.5 228.1, 201.3 227.8 Q 201.0 227.4, 200.4 227.4 Q 199.8 227.4, 199.4 227.7 Q 199.0 227.9, 198.7 228.4 L 198.7 232.7 L 197.6 232.7 L 197.6 226.7 L 198.5 226.7 L 198.6 227.5 Q 199.4 226.6, 200.6 226.6 Q 202.0 226.6, 202.5 227.6 Q 203.3 226.6, 204.6 226.6 " fill="#000000"/>
<path class="legend" d="M 208.0 224.4 L 209.0 224.4 L 209.0 225.4 L 208.0 225.4 L 208.0 224.4 M 208.0 226.7 L 209.0 226.7 L 209.0 232.7 L 208.0 232.7 L 208.0 226.7 " fill="#000000"/>
<path class="legend" d="M 110.6 238.9 L 110.6 238.1 L 111.8 238.1 L 111.9 236.3 L 112.8 236.3 L 112.8 238.1 L 114.6 238.1 L 114.6 238.9 L 112.8 238.9 L 112.8 242.3 Q 112.8 243.3, 113.6 243.3 Q 114.0 243.3, 114.5 243.1 L 114.7 243.9 Q 114.1 244.2, 113.4 244.2 Q 112.7 244.2, 112.2 243.7 Q 111.7 243.2, 111.7 242.3 L 111.7 238.9 L 110.6 238.9 " fill="#000000"/>
<path class="legend" d="M 115.5 241.1 Q 115.5 239.6, 116.3 238.8 Q 117.0 238.0, 118.4 238.0 Q 119.8 238.0, 120.5 238.8 Q 121.3 239.6, 121.3 241.1 Q 121.3 242.5, 120.5 243.4 Q 119.8 244.2, 118.4 244.2 Q 117.0 244.2, 116.3 243.4 Q 115.5 242.5, 115.5 241.1 M 116.7 241.1 Q 116.7 242.2, 117.1 242.8 Q 117.6 243.3, 118.4 243.3 Q 119.2 243.3, 119.7 242.8 Q 120.1 242.2, 120.1 241.1 Q 120.1 240.0, 119.7 239.4 Q 119.2 238.8, 118.4 238.8 Q 117.6 238.8, 117.1 239.4 Q 116.7 240.0, 116.7 241.1 " fill="#000000"/>
<path class="legend" d="M 125.1 238.0 Q 126.4 238.0, 127.1 238.7 Q 127.8 239.5, 127.8 241.0 Q 127.8 242.5, 127.0 243.4 Q 126.1 244.2, 124.7 244.2 Q 124.0 244.2, 123.4 244.0 L 123.4 247.0 L 122.3 247.0 L 122.3 238.1 L 123.2 238.1 L 123.4 238.8 Q 123.7 238.4, 124.1 238.2 Q 124.6 238.0, 125.1 238.0 M 124.7 243.3 Q 125.6 243.3, 126.1 242.7 Q 126.7 242.1, 126.7 241.0 Q 126.7 239.9, 126.3 239.4 Q 125.8 238.8, 125.1 238.8 Q 124.5 238.8, 124.0 239.1 Q 123.6 239.5, 123.4 240.0 L 123.4 243.2 Q 124.0 243.3, 124.7 243.3 " fill="#000000"/>
<path class="legend" d="M 128.9 239.0 L 134.3 239.0 L 134.3 239.8 L 128.9 239.8 L 128.9 239.0 M 128.9 241.5 L 134.3 241.5 L 134.3 242.4 L 128.9 242.4 L 128.9 241.5 " fill="#000000"/>
<path class="legend" d="M 138.9 244.2 Q 137.4 244.2, 136.6 243.1 Q 135.8 241.9, 135.8 239.9 Q 135.8 237.9, 136.6 236.8 Q 137.4 235.7, 138.9 235.7 Q 140.4 235.7, 141.2 236.8 Q 142.0 237.9, 142.0 239.9 Q 142.0 241.9, 141.2 243.1 Q 140.4 244.2, 138.9 244.2 M 138.9 243.3 Q 139.8 243.3, 140.3 242.4 Q 140.8 241.6, 140.8 239.9 Q 140.8 238.3, 140.3 237.5 Q 139.8 236.6, 138.9 236.6 Q 138.0 236.6, 137.5 237.5 Q 137.0 238.3, 137.0 239.9 Q 137.0 241.6, 137.5 242.4 Q 138.0 243.3, 138.9 243.3 " fill="#000000"/>
<path class="legend" d="" fill="#000000"/>
<path class="legend" d="M 147.7 242.5 Q 147.7 241.5, 148.5 241.0 Q 149.2 240.4, 150.7 240.4 L 151.6 240.4 L 151.6 240.2 Q 151.6 239.5, 151.2 239.1 Q 150.9 238.8, 150.2 238.8 Q 149.7 238.8, 149.3 238.9 Q 148.9 239.0, 148.4 239.3 L 148.0 238.5 Q 149.1 238.0, 150.2 238.0 Q 151.5 238.0, 152.1 238.5 Q 152.7 239.0, 152.7 240.2 L 152.7 244.1 L 151.8 244.1 Q 151.8 244.1, 151.8 243.9 Q 151.7 243.7, 151.7 243.4 Q 150.8 244.3, 149.7 244.3 Q 148.8 244.3, 148.2 243.8 Q 147.7 243.3, 147.7 242.5 M 148.8 242.5 Q 148.8 242.9, 149.1 243.1 Q 149.4 243.4, 149.9 243.4 Q 150.4 243.4, 150.8 243.2 Q 151.3 242.9, 151.6 242.6 L 151.6 241.3 L 150.7 241.3 Q 149.8 241.3, 149.3 241.6 Q 148.8 241.9, 148.8 242.5 " fill="#000000"/>
<path class="legend" d="M 154.1 238.9 L 154.1 238.1 L 155.2 238.1 L 155.4 236.3 L 156.3 236.3 L 156.3 238.1 L 158.1 238.1 L 158.1 238.9 L 156.3 238.9 L 156.3 242.3 Q 156.3 243.3, 157.1 243.3 Q 157.5 243.3, 158.0 243.1 L 158.2 243.9 Q 157.6 244.2, 156.9 244.2 Q 156.2 244.2, 155.6 243.7 Q 155.2 243.2, 155.2 242.3 L 155.2 238.9 L 154.1 238.9 " fill="#000000"/>
<path class="legend" d="M 159.0 241.1 Q 159.0 239.6, 159.8 238.8 Q 160.5 238.0, 161.9 238.0 Q 163.3 238.0, 164.0 238.8 Q 164.8 239.6, 164.8 241.1 Q 164.8 242.5, 164.0 243.4 Q 163.3 244.2, 161.9 244.2 Q 160.5 244.2, 159.8 243.4 Q 159.0 242.5, 159.0 241.1 M 160.1 241.1 Q 160.1 242.2, 160.6 242.8 Q 161.1 243.3, 161.9 243.3 Q 162.7 243.3, 163.2 242.8 Q 163.6 242.2, 163.6 241.1 Q 163.6 240.0, 163.2 239.4 Q 162.7 238.8, 161.9 238.8 Q 161.1 238.8, 160.6 239.4 Q 160.1 240.0, 160.1 241.1 " fill="#000000"/>
<path class="legend" d="M 172.8 238.0 Q 173.9 238.0, 174.4 238.5 Q 174.9 239.0, 174.9 240.1 L 174.9 244.1 L 173.8 244.1 L 173.8 240.2 Q 173.8 239.5, 173.5 239.2 Q 173.2 238.8, 172.6 238.8 Q 172.1 238.8, 171.6 239.1 Q 171.2 239.3, 170.9 239.8 Q 170.9 239.9, 170.9 240.1 L 170.9 244.1 L 169.8 244.1 L 169.8 240.2 Q 169.8 239.5, 169.5 239.2 Q 169.3 238.8, 168.6 238.8 Q 168.1 238.8, 167.7 239.1 Q 167.2 239.3, 166.9 239.8 L 166.9 244.1 L 165.8 244.1 L 165.8 238.1 L 166.7 238.1 L 166.9 238.9 Q 167.6 238.0, 168.9 238.0 Q 170.3 238.0, 170.7 239.0 Q 171.5 238.0, 172.8 238.0 " fill="#000000"/>
<path class="legend" d="M 176.3 239.0 L 181.7 239.0 L 181.7 239.8 L 176.3 239.8 L 176.3 239.0 M 176.3 241.5 L 181.7 241.5 L 181.7 242.4 L 176.3 242.4 L 176.3 241.5 " fill="#000000"/>
<path class="legend" d="M 186.4 244.2 Q 184.8 244.2, 184.1 243.1 Q 183.3 241.9, 183.3 239.9 Q 183.3 237.9, 184.1 236.8 Q 184.8 235.7, 186.4 235.7 Q 187.9 235.7, 188.7 236.8 Q 189.4 237.9, 189.4 239.9 Q 189.4 241.9, 188.6 243.1 Q 187.9 244.2, 186.4 244.2 M 186.4 243.3 Q 187.3 243.3, 187.7 242.4 Q 188.2 241.6, 188.2 239.9 Q 188.2 238.3, 187.7 237.5 Q 187.3 236.6, 186.4 236.6 Q 185.5 236.6, 185.0 237.5 Q 184.5 238.3, 184.5 239.9 Q 184.5 241.6, 185.0 242.4 Q 185.5 243.3, 186.4 243.3 " fill="#000000"/>
<path class="bond-0 atom-0 atom-1" d="M 351.9,160.7 L 352.3,147.1" style="fill:none;fill-rule:evenodd;stroke:#FF0000;stroke-width:2.0px;stroke-linecap:butt;stroke-linejoin:miter;stroke-opacity:1"/>
<path class="bond-0 atom-0 atom-1" d="M 352.3,147.1 L 352.7,133.5" style="fill:none;fill-rule:evenodd;stroke:#0000FF;stroke-width:2.0px;stroke-linecap:butt;stroke-linejoin:miter;stroke-opacity:1"/>
<path class="bond-0 atom-0 atom-1" d="M 358.2,160.9 L 358.6,147.3" style="fill:none;fill-rule:evenodd;stroke:#FF0000;stroke-width:2.0px;stroke-linecap:butt;stroke-linejoin:miter;stroke-opacity:1"/>
<path class="bond-0 atom-0 atom-1" d="M 358.6,147.3 L 359.0,133.7" style="fill:none;fill-rule:evenodd;stroke:#0000FF;stroke-width:2.0px;stroke-linecap:butt;stroke-linejoin:miter;stroke-opacity:1"/>
<path class="bond-1 atom-1 atom-2" d="M 350.2,122.6 L 338.8,115.5" style="fill:none;fill-rule:evenodd;stroke:#0000FF;stroke-width:2.0px;stroke-linecap:butt;stroke-linejoin:miter;stroke-opacity:1"/>
<path class="bond-1 atom-1 atom-2" d="M 338.8,115.5 L 327.3,108.5" style="fill:none;fill-rule:evenodd;stroke:#FF0000;stroke-width:2.0px;stroke-linecap:butt;stroke-linejoin:miter;stroke-opacity:1"/>
<path class="bond-2 atom-1 atom-3" d="M 369.4,119.1 L 381.2,112.8" style="fill:none;fill-rule:evenodd;stroke:#0000FF;stroke-width:2.0px;stroke-linecap:butt;stroke-linejoin:miter;stroke-opacity:1"/>
<path class="bond-2 atom-1 atom-3" d="M 381.2,112.8 L 393.0,106.4" style="fill:none;fill-rule:evenodd;stroke:#000000;stroke-width:2.0px;stroke-linecap:butt;stroke-linejoin:miter;stroke-opacity:1"/>
<path class="bond-3 atom-3 atom-4" d="M 393.0,106.4 L 394.3,64.5" style="fill:none;fill-rule:evenodd;stroke:#000000;stroke-width:2.0px;stroke-linecap:butt;stroke-linejoin:miter;stroke-opacity:1"/>
<path class="bond-3 atom-3 atom-4" d="M 399.4,103.0 L 400.4,68.3" style="fill:none;fill-rule:evenodd;stroke:#000000;stroke-width:2.0px;stroke-linecap:butt;stroke-linejoin:miter;stroke-opacity:1"/>
<path class="bond-4 atom-4 atom-5" d="M 394.3,64.5 L 431.2,44.6" style="fill:none;fill-rule:evenodd;stroke:#000000;stroke-width:2.0px;stroke-linecap:butt;stroke-linejoin:miter;stroke-opacity:1"/>
<path class="bond-5 atom-5 atom-6" d="M 431.2,44.6 L 466.8,66.7" style="fill:none;fill-rule:evenodd;stroke:#000000;stroke-width:2.0px;stroke-linecap:butt;stroke-linejoin:miter;stroke-opacity:1"/>
<path class="bond-5 atom-5 atom-6" d="M 431.0,51.9 L 460.4,70.1" style="fill:none;fill-rule:evenodd;stroke:#000000;stroke-width:2.0px;stroke-linecap:butt;stroke-linejoin:miter;stroke-opacity:1"/>
<path class="bond-6 atom-6 atom-7" d="M 466.8,66.7 L 465.6,108.6" style="fill:none;fill-rule:evenodd;stroke:#000000;stroke-width:2.0px;stroke-linecap:butt;stroke-linejoin:miter;stroke-opacity:1"/>
<path class="bond-7 atom-7 atom-8" d="M 465.6,108.6 L 501.2,130.6" style="fill:none;fill-rule:evenodd;stroke:#000000;stroke-width:2.0px;stroke-linecap:butt;stroke-linejoin:miter;stroke-opacity:1"/>
<path class="bond-7 atom-7 atom-8" d="M 465.4,115.8 L 494.8,134.0" style="fill:none;fill-rule:evenodd;stroke:#000000;stroke-width:2.0px;stroke-linecap:butt;stroke-linejoin:miter;stroke-opacity:1"/>
<path class="bond-8 atom-8 atom-9" d="M 501.2,130.6 L 516.7,122.2" style="fill:none;fill-rule:evenodd;stroke:#000000;stroke-width:2.0px;stroke-linecap:butt;stroke-linejoin:miter;stroke-opacity:1"/>
<path class="bond-8 atom-8 atom-9" d="M 516.7,122.2 L 532.3,113.9" style="fill:none;fill-rule:evenodd;stroke:#0000FF;stroke-width:2.0px;stroke-linecap:butt;stroke-linejoin:miter;stroke-opacity:1"/>
<path class="bond-9 atom-9 atom-10" d="M 541.5,103.5 L 541.9,90.0" style="fill:none;fill-rule:evenodd;stroke:#0000FF;stroke-width:2.0px;stroke-linecap:butt;stroke-linejoin:miter;stroke-opacity:1"/>
<path class="bond-9 atom-9 atom-10" d="M 541.9,90.0 L 542.3,76.5" style="fill:none;fill-rule:evenodd;stroke:#FF0000;stroke-width:2.0px;stroke-linecap:butt;stroke-linejoin:miter;stroke-opacity:1"/>
<path class="bond-9 atom-9 atom-10" d="M 535.2,103.3 L 535.6,89.8" style="fill:none;fill-rule:evenodd;stroke:#0000FF;stroke-width:2.0px;stroke-linecap:butt;stroke-linejoin:miter;stroke-opacity:1"/>
<path class="bond-9 atom-9 atom-10" d="M 535.6,89.8 L 536.0,76.3" style="fill:none;fill-rule:evenodd;stroke:#FF0000;stroke-width:2.0px;stroke-linecap:butt;stroke-linejoin:miter;stroke-opacity:1"/>
<path class="bond-10 atom-9 atom-11" d="M 544.0,114.4 L 555.5,121.5" style="fill:none;fill-rule:evenodd;stroke:#0000FF;stroke-width:2.0px;stroke-linecap:butt;stroke-linejoin:miter;stroke-opacity:1"/>
<path class="bond-10 atom-9 atom-11" d="M 555.5,121.5 L 567.0,128.5" style="fill:none;fill-rule:evenodd;stroke:#FF0000;stroke-width:2.0px;stroke-linecap:butt;stroke-linejoin:miter;stroke-opacity:1"/>
<path class="bond-11 atom-8 atom-12" d="M 501.2,130.6 L 500.0,172.5" style="fill:none;fill-rule:evenodd;stroke:#000000;stroke-width:2.0px;stroke-linecap:butt;stroke-linejoin:miter;stroke-opacity:1"/>
<path class="bond-12 atom-12 atom-13" d="M 500.0,172.5 L 463.1,192.4" style="fill:none;fill-rule:evenodd;stroke:#000000;stroke-width:2.0px;stroke-linecap:butt;stroke-linejoin:miter;stroke-opacity:1"/>
<path class="bond-12 atom-12 atom-13" d="M 493.8,168.7 L 463.3,185.1" style="fill:none;fill-rule:evenodd;stroke:#000000;stroke-width:2.0px;stroke-linecap:butt;stroke-linejoin:miter;stroke-opacity:1"/>
<path class="bond-13 atom-13 atom-14" d="M 463.1,192.4 L 427.4,170.3" style="fill:none;fill-rule:evenodd;stroke:#000000;stroke-width:2.0px;stroke-linecap:butt;stroke-linejoin:miter;stroke-opacity:1"/>
<path class="bond-14 atom-14 atom-15" d="M 427.4,170.3 L 428.7,128.4" style="fill:none;fill-rule:evenodd;stroke:#000000;stroke-width:2.0px;stroke-linecap:butt;stroke-linejoin:miter;stroke-opacity:1"/>
<path class="bond-14 atom-14 atom-15" d="M 433.8,166.9 L 434.8,132.2" style="fill:none;fill-rule:evenodd;stroke:#000000;stroke-width:2.0px;stroke-linecap:butt;stroke-linejoin:miter;stroke-opacity:1"/>
<path class="bond-15 atom-15 atom-3" d="M 428.7,128.4 L 393.0,106.4" style="fill:none;fill-rule:evenodd;stroke:#000000;stroke-width:2.0px;stroke-linecap:butt;stroke-linejoin:miter;stroke-opacity:1"/>
<path class="bond-16 atom-15 atom-7" d="M 428.7,128.4 L 465.6,108.6" style="fill:none;fill-rule:evenodd;stroke:#000000;stroke-width:2.0px;stroke-linecap:butt;stroke-linejoin:miter;stroke-opacity:1"/>
<path d="M 394.2,66.6 L 394.3,64.5 L 396.1,63.5" style="fill:none;stroke:#000000;stroke-width:2.0px;stroke-linecap:butt;stroke-linejoin:miter;stroke-miterlimit:10;stroke-opacity:1;"/>
<path d="M 429.3,45.6 L 431.2,44.6 L 433.0,45.7" style="fill:none;stroke:#000000;stroke-width:2.0px;stroke-linecap:butt;stroke-linejoin:miter;stroke-miterlimit:10;stroke-opacity:1;"/>
<path d="M 465.0,65.6 L 466.8,66.7 L 466.8,68.8" style="fill:none;stroke:#000000;stroke-width:2.0px;stroke-linecap:butt;stroke-linejoin:miter;stroke-miterlimit:10;stroke-opacity:1;"/>
<path d="M 500.0,170.4 L 500.0,172.5 L 498.1,173.5" style="fill:none;stroke:#000000;stroke-width:2.0px;stroke-linecap:butt;stroke-linejoin:miter;stroke-miterlimit:10;stroke-opacity:1;"/>
<path d="M 464.9,191.4 L 463.1,192.4 L 461.3,191.3" style="fill:none;stroke:#000000;stroke-width:2.0px;stroke-linecap:butt;stroke-linejoin:miter;stroke-miterlimit:10;stroke-opacity:1;"/>
<path d="M 429.2,171.4 L 427.4,170.3 L 427.5,168.2" style="fill:none;stroke:#000000;stroke-width:2.0px;stroke-linecap:butt;stroke-linejoin:miter;stroke-miterlimit:10;stroke-opacity:1;"/>
<path class="atom-0" d="M 349.4 168.2 Q 349.4 165.3, 350.8 163.8 Q 352.2 162.2, 354.9 162.2 Q 357.5 162.2, 358.9 163.8 Q 360.3 165.3, 360.3 168.2 Q 360.3 171.1, 358.9 172.7 Q 357.5 174.3, 354.9 174.3 Q 352.2 174.3, 350.8 172.7 Q 349.4 171.1, 349.4 168.2 M 354.9 173.0 Q 356.7 173.0, 357.6 171.8 Q 358.6 170.6, 358.6 168.2 Q 358.6 165.9, 357.6 164.7 Q 356.7 163.5, 354.9 163.5 Q 353.0 163.5, 352.1 164.7 Q 351.1 165.8, 351.1 168.2 Q 351.1 170.6, 352.1 171.8 Q 353.0 173.0, 354.9 173.0 " fill="#FF0000"/>
<path class="atom-1" d="M 353.5 120.3 L 357.4 126.6 Q 357.8 127.2, 358.4 128.4 Q 359.0 129.5, 359.0 129.6 L 359.0 120.3 L 360.6 120.3 L 360.6 132.2 L 359.0 132.2 L 354.8 125.3 Q 354.3 124.5, 353.8 123.6 Q 353.3 122.7, 353.1 122.4 L 353.1 132.2 L 351.6 132.2 L 351.6 120.3 L 353.5 120.3 " fill="#0000FF"/>
<path class="atom-1" d="M 362.8 122.5 L 364.9 122.5 L 364.9 120.3 L 365.9 120.3 L 365.9 122.5 L 368.0 122.5 L 368.0 123.3 L 365.9 123.3 L 365.9 125.5 L 364.9 125.5 L 364.9 123.3 L 362.8 123.3 L 362.8 122.5 " fill="#0000FF"/>
<path class="atom-2" d="M 315.0 104.3 Q 315.0 101.4, 316.4 99.8 Q 317.8 98.2, 320.4 98.2 Q 323.1 98.2, 324.5 99.8 Q 325.9 101.4, 325.9 104.3 Q 325.9 107.2, 324.5 108.8 Q 323.0 110.4, 320.4 110.4 Q 317.8 110.4, 316.4 108.8 Q 315.0 107.2, 315.0 104.3 M 320.4 109.1 Q 322.3 109.1, 323.2 107.9 Q 324.2 106.7, 324.2 104.3 Q 324.2 101.9, 323.2 100.8 Q 322.3 99.6, 320.4 99.6 Q 318.6 99.6, 317.6 100.8 Q 316.7 101.9, 316.7 104.3 Q 316.7 106.7, 317.6 107.9 Q 318.6 109.1, 320.4 109.1 " fill="#FF0000"/>
<path class="atom-2" d="M 327.6 100.2 L 331.6 100.2 L 331.6 101.1 L 327.6 101.1 L 327.6 100.2 " fill="#FF0000"/>
<path class="atom-9" d="M 535.5 104.8 L 539.4 111.1 Q 539.8 111.7, 540.4 112.8 Q 541.0 114.0, 541.1 114.0 L 541.1 104.8 L 542.6 104.8 L 542.6 116.7 L 541.0 116.7 L 536.8 109.8 Q 536.4 109.0, 535.8 108.1 Q 535.3 107.1, 535.2 106.9 L 535.2 116.7 L 533.6 116.7 L 533.6 104.8 L 535.5 104.8 " fill="#0000FF"/>
<path class="atom-9" d="M 544.9 106.9 L 547.0 106.9 L 547.0 104.7 L 547.9 104.7 L 547.9 106.9 L 550.0 106.9 L 550.0 107.7 L 547.9 107.7 L 547.9 109.9 L 547.0 109.9 L 547.0 107.7 L 544.9 107.7 L 544.9 106.9 " fill="#0000FF"/>
<path class="atom-10" d="M 533.9 68.9 Q 533.9 66.0, 535.4 64.4 Q 536.8 62.8, 539.4 62.8 Q 542.0 62.8, 543.4 64.4 Q 544.8 66.0, 544.8 68.9 Q 544.8 71.8, 543.4 73.4 Q 542.0 75.0, 539.4 75.0 Q 536.8 75.0, 535.4 73.4 Q 533.9 71.8, 533.9 68.9 M 539.4 73.7 Q 541.2 73.7, 542.2 72.5 Q 543.2 71.3, 543.2 68.9 Q 543.2 66.5, 542.2 65.4 Q 541.2 64.2, 539.4 64.2 Q 537.6 64.2, 536.6 65.4 Q 535.6 66.5, 535.6 68.9 Q 535.6 71.3, 536.6 72.5 Q 537.6 73.7, 539.4 73.7 " fill="#FF0000"/>
<path class="atom-11" d="M 568.4 132.8 Q 568.4 129.9, 569.8 128.4 Q 571.2 126.8, 573.8 126.8 Q 576.4 126.8, 577.8 128.4 Q 579.2 129.9, 579.2 132.8 Q 579.2 135.7, 577.8 137.3 Q 576.4 138.9, 573.8 138.9 Q 571.2 138.9, 569.8 137.3 Q 568.4 135.7, 568.4 132.8 M 573.8 137.6 Q 575.6 137.6, 576.6 136.4 Q 577.6 135.2, 577.6 132.8 Q 577.6 130.5, 576.6 129.3 Q 575.6 128.1, 573.8 128.1 Q 572.0 128.1, 571.0 129.3 Q 570.0 130.4, 570.0 132.8 Q 570.0 135.2, 571.0 136.4 Q 572.0 137.6, 573.8 137.6 " fill="#FF0000"/>
<path class="atom-11" d="M 580.9 128.7 L 585.0 128.7 L 585.0 129.6 L 580.9 129.6 L 580.9 128.7 " fill="#FF0000"/>
<path class="legend" d="M 394.1 227.5 Q 394.8 227.5, 395.4 227.8 Q 396.0 228.1, 396.3 228.7 Q 396.7 229.3, 396.7 230.1 Q 396.7 230.9, 396.3 231.6 Q 395.8 232.2, 395.2 232.5 Q 394.5 232.8, 393.7 232.8 Q 392.9 232.8, 392.2 232.5 Q 391.5 232.2, 391.0 231.7 L 391.7 231.0 Q 392.1 231.4, 392.7 231.6 Q 393.2 231.9, 393.7 231.9 Q 394.5 231.9, 395.0 231.4 Q 395.5 230.9, 395.5 230.1 Q 395.5 229.2, 395.0 228.8 Q 394.5 228.4, 393.7 228.4 Q 392.9 228.4, 392.1 228.7 L 391.5 228.4 L 391.9 224.4 L 396.2 224.4 L 396.0 225.3 L 392.8 225.3 L 392.6 227.8 Q 393.3 227.5, 394.1 227.5 " fill="#000000"/>
<path class="legend" d="M 400.7 232.8 Q 399.2 232.8, 398.4 231.7 Q 397.7 230.6, 397.7 228.5 Q 397.7 226.5, 398.4 225.4 Q 399.2 224.3, 400.7 224.3 Q 402.3 224.3, 403.0 225.4 Q 403.8 226.5, 403.8 228.5 Q 403.8 230.6, 403.0 231.7 Q 402.3 232.8, 400.7 232.8 M 400.7 231.9 Q 401.6 231.9, 402.1 231.0 Q 402.6 230.2, 402.6 228.5 Q 402.6 226.9, 402.1 226.1 Q 401.6 225.2, 400.7 225.2 Q 399.8 225.2, 399.3 226.1 Q 398.9 226.9, 398.9 228.5 Q 398.9 230.2, 399.3 231.0 Q 399.8 231.9, 400.7 231.9 " fill="#000000"/>
<path class="legend" d="" fill="#000000"/>
<path class="legend" d="M 409.3 223.6 L 410.3 223.6 L 410.3 235.0 L 409.3 235.0 L 409.3 223.6 " fill="#000000"/>
<path class="legend" d="" fill="#000000"/>
<path class="legend" d="M 423.1 226.6 Q 424.1 226.6, 424.6 227.1 Q 425.1 227.7, 425.1 228.7 L 425.1 232.7 L 424.0 232.7 L 424.0 228.8 Q 424.0 228.1, 423.7 227.8 Q 423.5 227.4, 422.9 227.4 Q 422.3 227.4, 421.9 227.7 Q 421.4 227.9, 421.1 228.4 Q 421.2 228.5, 421.2 228.7 L 421.2 232.7 L 420.1 232.7 L 420.1 228.8 Q 420.1 228.1, 419.8 227.8 Q 419.5 227.4, 418.9 227.4 Q 418.4 227.4, 417.9 227.7 Q 417.5 227.9, 417.2 228.4 L 417.2 232.7 L 416.1 232.7 L 416.1 226.7 L 417.0 226.7 L 417.1 227.5 Q 417.9 226.6, 419.1 226.6 Q 420.5 226.6, 421.0 227.6 Q 421.8 226.6, 423.1 226.6 " fill="#000000"/>
<path class="legend" d="M 431.6 226.7 L 431.6 232.7 L 430.7 232.7 L 430.6 231.9 Q 429.8 232.8, 428.5 232.8 Q 427.5 232.8, 427.0 232.3 Q 426.5 231.7, 426.5 230.7 L 426.5 226.7 L 427.6 226.7 L 427.6 230.6 Q 427.6 231.3, 427.8 231.6 Q 428.1 232.0, 428.7 232.0 Q 429.3 232.0, 429.7 231.7 Q 430.2 231.4, 430.5 231.0 L 430.5 226.7 L 431.6 226.7 " fill="#000000"/>
<path class="legend" d="M 433.0 227.5 L 433.0 226.7 L 434.1 226.7 L 434.3 224.9 L 435.2 224.9 L 435.2 226.7 L 437.0 226.7 L 437.0 227.5 L 435.2 227.5 L 435.2 230.9 Q 435.2 231.9, 436.0 231.9 Q 436.4 231.9, 436.9 231.7 L 437.1 232.5 Q 436.5 232.8, 435.8 232.8 Q 435.1 232.8, 434.6 232.3 Q 434.1 231.8, 434.1 230.9 L 434.1 227.5 L 433.0 227.5 " fill="#000000"/>
<path class="legend" d="M 437.8 231.1 Q 437.8 230.1, 438.6 229.6 Q 439.4 229.1, 440.8 229.1 L 441.7 229.1 L 441.7 228.8 Q 441.7 228.1, 441.4 227.7 Q 441.1 227.4, 440.3 227.4 Q 439.8 227.4, 439.5 227.5 Q 439.1 227.6, 438.5 227.9 L 438.2 227.1 Q 439.3 226.6, 440.3 226.6 Q 441.6 226.6, 442.2 227.1 Q 442.8 227.7, 442.8 228.8 L 442.8 232.7 L 441.9 232.7 Q 441.9 232.7, 441.9 232.5 Q 441.9 232.3, 441.8 232.0 Q 440.9 232.9, 439.8 232.9 Q 438.9 232.9, 438.4 232.4 Q 437.8 231.9, 437.8 231.1 M 438.9 231.1 Q 438.9 231.5, 439.2 231.8 Q 439.5 232.0, 440.0 232.0 Q 440.5 232.0, 440.9 231.8 Q 441.4 231.6, 441.7 231.2 L 441.7 229.9 L 440.9 229.9 Q 439.9 229.9, 439.4 230.2 Q 438.9 230.5, 438.9 231.1 " fill="#000000"/>
<path class="legend" d="M 449.6 226.7 L 449.6 233.1 Q 449.6 235.7, 446.9 235.7 Q 445.5 235.7, 444.4 235.1 L 444.7 234.3 Q 445.4 234.6, 445.8 234.7 Q 446.3 234.8, 446.9 234.8 Q 447.8 234.8, 448.1 234.4 Q 448.5 234.0, 448.5 233.1 L 448.5 232.0 Q 447.9 232.8, 446.8 232.8 Q 445.5 232.8, 444.8 232.0 Q 444.1 231.2, 444.1 229.8 Q 444.1 228.3, 445.0 227.4 Q 445.8 226.6, 447.2 226.6 Q 448.0 226.6, 448.7 226.8 L 448.8 226.7 L 449.6 226.7 M 446.9 231.9 Q 447.5 231.9, 447.9 231.6 Q 448.4 231.3, 448.5 230.7 L 448.5 227.6 Q 447.9 227.4, 447.3 227.4 Q 446.3 227.4, 445.8 228.1 Q 445.3 228.7, 445.3 229.8 Q 445.3 230.8, 445.7 231.4 Q 446.1 231.9, 446.9 231.9 " fill="#000000"/>
<path class="legend" d="M 457.0 233.3 L 457.0 234.3 L 451.0 234.3 L 451.0 233.3 L 457.0 233.3 " fill="#000000"/>
<path class="legend" d="M 457.8 231.5 Q 458.3 231.7, 458.7 231.8 Q 459.1 231.9, 459.5 231.9 Q 460.0 231.9, 460.3 231.7 Q 460.6 231.5, 460.6 231.0 Q 460.6 230.8, 460.5 230.6 Q 460.3 230.4, 460.1 230.3 Q 459.9 230.2, 459.4 230.1 Q 459.3 230.0, 458.8 229.9 Q 458.2 229.7, 457.9 229.3 Q 457.7 228.9, 457.7 228.3 Q 457.7 227.5, 458.2 227.1 Q 458.8 226.6, 459.9 226.6 Q 460.4 226.6, 460.8 226.7 Q 461.2 226.8, 461.6 226.9 L 461.3 227.8 Q 460.9 227.7, 460.6 227.6 Q 460.3 227.5, 459.9 227.5 Q 459.3 227.5, 459.1 227.7 Q 458.8 227.9, 458.8 228.3 Q 458.8 228.6, 459.0 228.8 Q 459.2 228.9, 459.7 229.1 Q 459.8 229.1, 460.0 229.2 L 460.2 229.3 Q 460.7 229.4, 461.0 229.6 Q 461.3 229.8, 461.5 230.1 Q 461.8 230.4, 461.8 231.0 Q 461.8 231.9, 461.1 232.4 Q 460.5 232.8, 459.5 232.8 Q 458.9 232.8, 458.5 232.7 Q 458.0 232.6, 457.5 232.4 L 457.8 231.5 " fill="#000000"/>
<path class="legend" d="M 469.8 226.6 Q 470.8 226.6, 471.3 227.1 Q 471.9 227.7, 471.9 228.7 L 471.9 232.7 L 470.8 232.7 L 470.8 228.8 Q 470.8 228.1, 470.5 227.8 Q 470.2 227.4, 469.6 227.4 Q 469.1 227.4, 468.6 227.7 Q 468.1 227.9, 467.9 228.4 Q 467.9 228.5, 467.9 228.7 L 467.9 232.7 L 466.8 232.7 L 466.8 228.8 Q 466.8 228.1, 466.5 227.8 Q 466.2 227.4, 465.6 227.4 Q 465.1 227.4, 464.6 227.7 Q 464.2 227.9, 463.9 228.4 L 463.9 232.7 L 462.8 232.7 L 462.8 226.7 L 463.7 226.7 L 463.8 227.5 Q 464.6 226.6, 465.8 226.6 Q 467.3 226.6, 467.7 227.6 Q 468.5 226.6, 469.8 226.6 " fill="#000000"/>
<path class="legend" d="M 473.2 224.4 L 474.3 224.4 L 474.3 225.4 L 473.2 225.4 L 473.2 224.4 M 473.2 226.7 L 474.3 226.7 L 474.3 232.7 L 473.2 232.7 L 473.2 226.7 " fill="#000000"/>
<path class="legend" d="M 475.7 223.8 L 476.8 223.8 L 476.8 232.7 L 475.7 232.7 L 475.7 223.8 " fill="#000000"/>
<path class="legend" d="M 478.2 229.7 Q 478.2 228.2, 479.0 227.4 Q 479.7 226.6, 481.1 226.6 Q 482.4 226.6, 483.0 227.4 Q 483.6 228.1, 483.6 229.6 L 483.6 229.8 L 479.4 229.8 Q 479.4 230.9, 479.8 231.4 Q 480.3 231.9, 481.2 231.9 Q 481.6 231.9, 482.1 231.8 Q 482.5 231.7, 483.0 231.5 L 483.3 232.2 Q 482.7 232.5, 482.2 232.7 Q 481.7 232.8, 481.1 232.8 Q 479.7 232.8, 479.0 232.0 Q 478.2 231.2, 478.2 229.7 M 481.1 227.4 Q 480.4 227.4, 479.9 227.8 Q 479.5 228.2, 479.4 229.0 L 482.4 229.0 Q 482.3 228.2, 482.0 227.8 Q 481.7 227.4, 481.1 227.4 " fill="#000000"/>
<path class="legend" d="M 484.8 231.5 Q 485.3 231.7, 485.7 231.8 Q 486.1 231.9, 486.5 231.9 Q 487.0 231.9, 487.3 231.7 Q 487.6 231.5, 487.6 231.0 Q 487.6 230.8, 487.5 230.6 Q 487.3 230.4, 487.1 230.3 Q 486.9 230.2, 486.4 230.1 Q 486.3 230.0, 485.8 229.9 Q 485.2 229.7, 484.9 229.3 Q 484.7 228.9, 484.7 228.3 Q 484.7 227.5, 485.2 227.1 Q 485.8 226.6, 486.9 226.6 Q 487.3 226.6, 487.7 226.7 Q 488.2 226.8, 488.6 226.9 L 488.3 227.8 Q 487.9 227.7, 487.6 227.6 Q 487.2 227.5, 486.9 227.5 Q 486.3 227.5, 486.0 227.7 Q 485.8 227.9, 485.8 228.3 Q 485.8 228.6, 486.0 228.8 Q 486.2 228.9, 486.7 229.1 Q 486.8 229.1, 486.9 229.2 L 487.2 229.3 Q 487.7 229.4, 488.0 229.6 Q 488.3 229.8, 488.5 230.1 Q 488.7 230.4, 488.7 231.0 Q 488.7 231.9, 488.1 232.4 Q 487.5 232.8, 486.5 232.8 Q 485.9 232.8, 485.4 232.7 Q 484.9 232.6, 484.5 232.4 L 484.8 231.5 " fill="#000000"/>
<path class="legend" d="M 489.8 231.5 L 491.0 231.5 L 491.0 232.7 L 489.8 232.7 L 489.8 231.5 " fill="#000000"/>
<path class="legend" d="M 492.5 231.5 Q 493.0 231.7, 493.4 231.8 Q 493.8 231.9, 494.2 231.9 Q 494.7 231.9, 495.0 231.7 Q 495.3 231.5, 495.3 231.0 Q 495.3 230.8, 495.2 230.6 Q 495.0 230.4, 494.8 230.3 Q 494.6 230.2, 494.1 230.1 Q 494.0 230.0, 493.5 229.9 Q 492.9 229.7, 492.6 229.3 Q 492.4 228.9, 492.4 228.3 Q 492.4 227.5, 492.9 227.1 Q 493.5 226.6, 494.6 226.6 Q 495.0 226.6, 495.4 226.7 Q 495.9 226.8, 496.3 226.9 L 496.0 227.8 Q 495.6 227.7, 495.3 227.6 Q 494.9 227.5, 494.6 227.5 Q 494.0 227.5, 493.7 227.7 Q 493.5 227.9, 493.5 228.3 Q 493.5 228.6, 493.7 228.8 Q 493.9 228.9, 494.4 229.1 Q 494.5 229.1, 494.6 229.2 L 494.9 229.3 Q 495.4 229.4, 495.7 229.6 Q 496.0 229.8, 496.2 230.1 Q 496.4 230.4, 496.4 231.0 Q 496.4 231.9, 495.8 232.4 Q 495.2 232.8, 494.2 232.8 Q 493.6 232.8, 493.1 232.7 Q 492.6 232.6, 492.2 232.4 L 492.5 231.5 " fill="#000000"/>
<path class="legend" d="M 504.5 226.6 Q 505.5 226.6, 506.0 227.1 Q 506.5 227.7, 506.5 228.7 L 506.5 232.7 L 505.4 232.7 L 505.4 228.8 Q 505.4 228.1, 505.2 227.8 Q 504.9 227.4, 504.3 227.4 Q 503.7 227.4, 503.3 227.7 Q 502.8 227.9, 502.6 228.4 Q 502.6 228.5, 502.6 228.7 L 502.6 232.7 L 501.5 232.7 L 501.5 228.8 Q 501.5 228.1, 501.2 227.8 Q 500.9 227.4, 500.3 227.4 Q 499.8 227.4, 499.3 227.7 Q 498.9 227.9, 498.6 228.4 L 498.6 232.7 L 497.5 232.7 L 497.5 226.7 L 498.4 226.7 L 498.5 227.5 Q 499.3 226.6, 500.5 226.6 Q 501.9 226.6, 502.4 227.6 Q 503.2 226.6, 504.5 226.6 " fill="#000000"/>
<path class="legend" d="M 507.9 224.4 L 509.0 224.4 L 509.0 225.4 L 507.9 225.4 L 507.9 224.4 M 507.9 226.7 L 509.0 226.7 L 509.0 232.7 L 507.9 232.7 L 507.9 226.7 " fill="#000000"/>
<path class="legend" d="M 410.6 238.9 L 410.6 238.1 L 411.8 238.1 L 411.9 236.3 L 412.8 236.3 L 412.8 238.1 L 414.6 238.1 L 414.6 238.9 L 412.8 238.9 L 412.8 242.3 Q 412.8 243.3, 413.6 243.3 Q 414.0 243.3, 414.5 243.1 L 414.7 243.9 Q 414.1 244.2, 413.4 244.2 Q 412.7 244.2, 412.2 243.7 Q 411.7 243.2, 411.7 242.3 L 411.7 238.9 L 410.6 238.9 " fill="#000000"/>
<path class="legend" d="M 415.5 241.1 Q 415.5 239.6, 416.3 238.8 Q 417.0 238.0, 418.4 238.0 Q 419.8 238.0, 420.5 238.8 Q 421.3 239.6, 421.3 241.1 Q 421.3 242.5, 420.5 243.4 Q 419.8 244.2, 418.4 244.2 Q 417.0 244.2, 416.3 243.4 Q 415.5 242.5, 415.5 241.1 M 416.7 241.1 Q 416.7 242.2, 417.1 242.8 Q 417.6 243.3, 418.4 243.3 Q 419.2 243.3, 419.7 242.8 Q 420.1 242.2, 420.1 241.1 Q 420.1 240.0, 419.7 239.4 Q 419.2 238.8, 418.4 238.8 Q 417.6 238.8, 417.1 239.4 Q 416.7 240.0, 416.7 241.1 " fill="#000000"/>
<path class="legend" d="M 425.1 238.0 Q 426.4 238.0, 427.1 238.7 Q 427.8 239.5, 427.8 241.0 Q 427.8 242.5, 427.0 243.4 Q 426.1 244.2, 424.7 244.2 Q 424.0 244.2, 423.4 244.0 L 423.4 247.0 L 422.3 247.0 L 422.3 238.1 L 423.2 238.1 L 423.4 238.8 Q 423.7 238.4, 424.1 238.2 Q 424.6 238.0, 425.1 238.0 M 424.7 243.3 Q 425.6 243.3, 426.1 242.7 Q 426.7 242.1, 426.7 241.0 Q 426.7 239.9, 426.3 239.4 Q 425.8 238.8, 425.1 238.8 Q 424.5 238.8, 424.0 239.1 Q 423.6 239.5, 423.4 240.0 L 423.4 243.2 Q 424.0 243.3, 424.7 243.3 " fill="#000000"/>
<path class="legend" d="M 428.9 239.0 L 434.3 239.0 L 434.3 239.8 L 428.9 239.8 L 428.9 239.0 M 428.9 241.5 L 434.3 241.5 L 434.3 242.4 L 428.9 242.4 L 428.9 241.5 " fill="#000000"/>
<path class="legend" d="M 438.9 244.2 Q 437.4 244.2, 436.6 243.1 Q 435.8 241.9, 435.8 239.9 Q 435.8 237.9, 436.6 236.8 Q 437.4 235.7, 438.9 235.7 Q 440.4 235.7, 441.2 236.8 Q 442.0 237.9, 442.0 239.9 Q 442.0 241.9, 441.2 243.1 Q 440.4 244.2, 438.9 244.2 M 438.9 243.3 Q 439.8 243.3, 440.3 242.4 Q 440.8 241.6, 440.8 239.9 Q 440.8 238.3, 440.3 237.5 Q 439.8 236.6, 438.9 236.6 Q 438.0 236.6, 437.5 237.5 Q 437.0 238.3, 437.0 239.9 Q 437.0 241.6, 437.5 242.4 Q 438.0 243.3, 438.9 243.3 " fill="#000000"/>
<path class="legend" d="" fill="#000000"/>
<path class="legend" d="M 447.7 242.5 Q 447.7 241.5, 448.5 241.0 Q 449.2 240.4, 450.7 240.4 L 451.6 240.4 L 451.6 240.2 Q 451.6 239.5, 451.2 239.1 Q 450.9 238.8, 450.2 238.8 Q 449.7 238.8, 449.3 238.9 Q 448.9 239.0, 448.4 239.3 L 448.0 238.5 Q 449.1 238.0, 450.2 238.0 Q 451.5 238.0, 452.1 238.5 Q 452.7 239.0, 452.7 240.2 L 452.7 244.1 L 451.8 244.1 Q 451.8 244.1, 451.8 243.9 Q 451.7 243.7, 451.7 243.4 Q 450.8 244.3, 449.7 244.3 Q 448.8 244.3, 448.2 243.8 Q 447.7 243.3, 447.7 242.5 M 448.8 242.5 Q 448.8 242.9, 449.1 243.1 Q 449.4 243.4, 449.9 243.4 Q 450.4 243.4, 450.8 243.2 Q 451.3 242.9, 451.6 242.6 L 451.6 241.3 L 450.7 241.3 Q 449.8 241.3, 449.3 241.6 Q 448.8 241.9, 448.8 242.5 " fill="#000000"/>
<path class="legend" d="M 454.1 238.9 L 454.1 238.1 L 455.2 238.1 L 455.4 236.3 L 456.3 236.3 L 456.3 238.1 L 458.1 238.1 L 458.1 238.9 L 456.3 238.9 L 456.3 242.3 Q 456.3 243.3, 457.1 243.3 Q 457.5 243.3, 458.0 243.1 L 458.2 243.9 Q 457.6 244.2, 456.9 244.2 Q 456.2 244.2, 455.6 243.7 Q 455.2 243.2, 455.2 242.3 L 455.2 238.9 L 454.1 238.9 " fill="#000000"/>
<path class="legend" d="M 459.0 241.1 Q 459.0 239.6, 459.8 238.8 Q 460.5 238.0, 461.9 238.0 Q 463.3 238.0, 464.0 238.8 Q 464.8 239.6, 464.8 241.1 Q 464.8 242.5, 464.0 243.4 Q 463.3 244.2, 461.9 244.2 Q 460.5 244.2, 459.8 243.4 Q 459.0 242.5, 459.0 241.1 M 460.1 241.1 Q 460.1 242.2, 460.6 242.8 Q 461.1 243.3, 461.9 243.3 Q 462.7 243.3, 463.2 242.8 Q 463.6 242.2, 463.6 241.1 Q 463.6 240.0, 463.2 239.4 Q 462.7 238.8, 461.9 238.8 Q 461.1 238.8, 460.6 239.4 Q 460.1 240.0, 460.1 241.1 " fill="#000000"/>
<path class="legend" d="M 472.8 238.0 Q 473.9 238.0, 474.4 238.5 Q 474.9 239.0, 474.9 240.1 L 474.9 244.1 L 473.8 244.1 L 473.8 240.2 Q 473.8 239.5, 473.5 239.2 Q 473.2 238.8, 472.6 238.8 Q 472.1 238.8, 471.6 239.1 Q 471.2 239.3, 470.9 239.8 Q 470.9 239.9, 470.9 240.1 L 470.9 244.1 L 469.8 244.1 L 469.8 240.2 Q 469.8 239.5, 469.5 239.2 Q 469.3 238.8, 468.6 238.8 Q 468.1 238.8, 467.7 239.1 Q 467.2 239.3, 466.9 239.8 L 466.9 244.1 L 465.8 244.1 L 465.8 238.1 L 466.7 238.1 L 466.9 238.9 Q 467.6 238.0, 468.9 238.0 Q 470.3 238.0, 470.7 239.0 Q 471.5 238.0, 472.8 238.0 " fill="#000000"/>
<path class="legend" d="M 476.3 239.0 L 481.7 239.0 L 481.7 239.8 L 476.3 239.8 L 476.3 239.0 M 476.3 241.5 L 481.7 241.5 L 481.7 242.4 L 476.3 242.4 L 476.3 241.5 " fill="#000000"/>
<path class="legend" d="M 486.4 244.2 Q 484.8 244.2, 484.1 243.1 Q 483.3 241.9, 483.3 239.9 Q 483.3 237.9, 484.1 236.8 Q 484.8 235.7, 486.4 235.7 Q 487.9 235.7, 488.7 236.8 Q 489.4 237.9, 489.4 239.9 Q 489.4 241.9, 488.6 243.1 Q 487.9 244.2, 486.4 244.2 M 486.4 243.3 Q 487.3 243.3, 487.7 242.4 Q 488.2 241.6, 488.2 239.9 Q 488.2 238.3, 487.7 237.5 Q 487.3 236.6, 486.4 236.6 Q 485.5 236.6, 485.0 237.5 Q 484.5 238.3, 484.5 239.9 Q 484.5 241.6, 485.0 242.4 Q 485.5 243.3, 486.4 243.3 " fill="#000000"/>
</svg>