<svg xmlns="http://www.w3.org/2000/svg" xmlns:rdkit="http://www.rdkit.org/xml" xmlns:xlink="http://www.w3.org/1999/xlink" version="1.1" baseProfile="full" xml:space="preserve" width="1200px" height="260px" viewBox="0 0 1200 260">
<!-- END OF HEADER -->
<rect style="opacity:1.0;fill:#FFFFFF;stroke:none" width="300.0" height="260.0" x="0.0" y="0.0"> </rect>
<path class="bond-0 atom-0 atom-1" d="M 60.9,190.0 L 82.9,182.8" style="fill:none;fill-rule:evenodd;stroke:#FF0000;stroke-width:2.0px;stroke-linecap:butt;stroke-linejoin:miter;stroke-opacity:1"/>
<path class="bond-0 atom-0 atom-1" d="M 82.9,182.8 L 104.9,175.6" style="fill:none;fill-rule:evenodd;stroke:#000000;stroke-width:2.0px;stroke-linecap:butt;stroke-linejoin:miter;stroke-opacity:1"/>
<path class="bond-1 atom-1 atom-2" d="M 104.9,175.6 L 150.2,208.5" style="fill:none;fill-rule:evenodd;stroke:#000000;stroke-width:2.0px;stroke-linecap:butt;stroke-linejoin:miter;stroke-opacity:1"/>
<path class="bond-2 atom-2 atom-3" d="M 150.2,208.5 L 195.4,175.6" style="fill:none;fill-rule:evenodd;stroke:#000000;stroke-width:2.0px;stroke-linecap:butt;stroke-linejoin:miter;stroke-opacity:1"/>
<path class="bond-3 atom-3 atom-4" d="M 195.4,175.6 L 241.7,190.7" style="fill:none;fill-rule:evenodd;stroke:#000000;stroke-width:2.0px;stroke-linecap:butt;stroke-linejoin:miter;stroke-opacity:1"/>
<path class="bond-4 atom-3 atom-5" d="M 195.4,175.6 L 178.1,122.4" style="fill:none;fill-rule:evenodd;stroke:#000000;stroke-width:2.0px;stroke-linecap:butt;stroke-linejoin:miter;stroke-opacity:1"/>
<path class="bond-5 atom-5 atom-6" d="M 178.1,122.4 L 195.4,69.3" style="fill:none;fill-rule:evenodd;stroke:#000000;stroke-width:2.0px;stroke-linecap:butt;stroke-linejoin:miter;stroke-opacity:1"/>
<path class="bond-6 atom-6 atom-7" d="M 195.4,69.3 L 241.7,54.2" style="fill:none;fill-rule:evenodd;stroke:#000000;stroke-width:2.0px;stroke-linecap:butt;stroke-linejoin:miter;stroke-opacity:1"/>
<path class="bond-7 atom-6 atom-8" d="M 195.4,69.3 L 176.3,55.3" style="fill:none;fill-rule:evenodd;stroke:#000000;stroke-width:2.0px;stroke-linecap:butt;stroke-linejoin:miter;stroke-opacity:1"/>
<path class="bond-7 atom-6 atom-8" d="M 176.3,55.3 L 157.1,41.4" style="fill:none;fill-rule:evenodd;stroke:#CCCC00;stroke-width:2.0px;stroke-linecap:butt;stroke-linejoin:miter;stroke-opacity:1"/>
<path class="bond-8 atom-8 atom-9" d="M 143.3,41.4 L 124.1,55.3" style="fill:none;fill-rule:evenodd;stroke:#CCCC00;stroke-width:2.0px;stroke-linecap:butt;stroke-linejoin:miter;stroke-opacity:1"/>
<path class="bond-8 atom-8 atom-9" d="M 124.1,55.3 L 104.9,69.3" style="fill:none;fill-rule:evenodd;stroke:#000000;stroke-width:2.0px;stroke-linecap:butt;stroke-linejoin:miter;stroke-opacity:1"/>
<path class="bond-9 atom-9 atom-10" d="M 104.9,69.3 L 58.5,54.2" style="fill:none;fill-rule:evenodd;stroke:#000000;stroke-width:2.0px;stroke-linecap:butt;stroke-linejoin:miter;stroke-opacity:1"/>
<path class="bond-10 atom-9 atom-11" d="M 104.9,69.3 L 122.2,122.4" style="fill:none;fill-rule:evenodd;stroke:#000000;stroke-width:2.0px;stroke-linecap:butt;stroke-linejoin:miter;stroke-opacity:1"/>
<path class="bond-11 atom-11 atom-1" d="M 122.2,122.4 L 104.9,175.6" style="fill:none;fill-rule:evenodd;stroke:#000000;stroke-width:2.0px;stroke-linecap:butt;stroke-linejoin:miter;stroke-opacity:1"/>
<path class="bond-12 atom-11 atom-5" d="M 122.2,122.4 L 178.1,122.4" style="fill:none;fill-rule:evenodd;stroke:#000000;stroke-width:2.0px;stroke-linecap:butt;stroke-linejoin:miter;stroke-opacity:1"/>
<path d="M 147.9,206.9 L 150.2,208.5 L 152.4,206.9" style="fill:none;stroke:#000000;stroke-width:2.0px;stroke-linecap:butt;stroke-linejoin:miter;stroke-miterlimit:10;stroke-opacity:1;"/>
<path class="atom-0" d="M 28.8 185.1 L 31.0 185.1 L 31.0 191.8 L 39.1 191.8 L 39.1 185.1 L 41.2 185.1 L 41.2 200.9 L 39.1 200.9 L 39.1 193.6 L 31.0 193.6 L 31.0 200.9 L 28.8 200.9 L 28.8 185.1 " fill="#FF0000"/>
<path class="atom-0" d="M 44.5 193.0 Q 44.5 189.2, 46.4 187.0 Q 48.2 184.9, 51.7 184.9 Q 55.3 184.9, 57.1 187.0 Q 59.0 189.2, 59.0 193.0 Q 59.0 196.8, 57.1 199.0 Q 55.2 201.2, 51.7 201.2 Q 48.3 201.2, 46.4 199.0 Q 44.5 196.8, 44.5 193.0 M 51.7 199.4 Q 54.2 199.4, 55.5 197.8 Q 56.8 196.1, 56.8 193.0 Q 56.8 189.9, 55.5 188.3 Q 54.2 186.7, 51.7 186.7 Q 49.3 186.7, 48.0 188.3 Q 46.7 189.8, 46.7 193.0 Q 46.7 196.2, 48.0 197.8 Q 49.3 199.4, 51.7 199.4 " fill="#FF0000"/>
<path class="atom-4" d="M 244.2 198.4 Q 244.3 198.5, 245.1 198.8 Q 245.8 199.1, 246.6 199.3 Q 247.4 199.5, 248.2 199.5 Q 249.7 199.5, 250.6 198.7 Q 251.5 198.0, 251.5 196.7 Q 251.5 195.9, 251.0 195.3 Q 250.6 194.8, 249.9 194.5 Q 249.3 194.2, 248.2 193.9 Q 246.7 193.4, 245.9 193.0 Q 245.1 192.6, 244.5 191.8 Q 243.9 190.9, 243.9 189.5 Q 243.9 187.5, 245.2 186.3 Q 246.6 185.1, 249.3 185.1 Q 251.1 185.1, 253.2 185.9 L 252.7 187.6 Q 250.8 186.9, 249.3 186.9 Q 247.8 186.9, 246.9 187.5 Q 246.1 188.1, 246.1 189.2 Q 246.1 190.1, 246.5 190.6 Q 247.0 191.1, 247.6 191.4 Q 248.3 191.7, 249.3 192.0 Q 250.8 192.5, 251.6 192.9 Q 252.5 193.4, 253.1 194.3 Q 253.7 195.2, 253.7 196.7 Q 253.7 198.9, 252.2 200.1 Q 250.8 201.3, 248.3 201.3 Q 246.9 201.3, 245.9 201.0 Q 244.8 200.7, 243.5 200.2 L 244.2 198.4 " fill="#000000"/>
<path class="atom-4" d="M 261.8 189.1 Q 263.7 189.1, 264.6 190.2 Q 265.6 191.2, 265.6 193.2 L 265.6 200.8 L 263.5 200.8 L 263.5 193.4 Q 263.5 192.0, 263.0 191.4 Q 262.5 190.8, 261.3 190.8 Q 260.2 190.8, 259.4 191.3 Q 258.5 191.8, 257.9 192.6 L 257.9 200.8 L 255.8 200.8 L 255.8 189.3 L 257.6 189.3 L 257.8 191.0 Q 259.3 189.1, 261.8 189.1 " fill="#000000"/>
<path class="atom-4" d="M 268.4 185.0 L 270.6 185.0 L 270.6 191.7 L 278.7 191.7 L 278.7 185.0 L 280.8 185.0 L 280.8 200.8 L 278.7 200.8 L 278.7 193.5 L 270.6 193.5 L 270.6 200.8 L 268.4 200.8 L 268.4 185.0 " fill="#000000"/>
<path class="atom-7" d="M 244.2 57.4 Q 244.3 57.5, 245.1 57.8 Q 245.8 58.1, 246.6 58.3 Q 247.4 58.5, 248.2 58.5 Q 249.7 58.5, 250.6 57.8 Q 251.5 57.1, 251.5 55.8 Q 251.5 54.9, 251.0 54.4 Q 250.6 53.8, 249.9 53.5 Q 249.3 53.2, 248.2 52.9 Q 246.7 52.5, 245.9 52.1 Q 245.1 51.7, 244.5 50.8 Q 243.9 50.0, 243.9 48.5 Q 243.9 46.6, 245.2 45.3 Q 246.6 44.1, 249.3 44.1 Q 251.1 44.1, 253.2 45.0 L 252.7 46.7 Q 250.8 45.9, 249.3 45.9 Q 247.8 45.9, 246.9 46.6 Q 246.1 47.2, 246.1 48.3 Q 246.1 49.1, 246.5 49.6 Q 247.0 50.2, 247.6 50.5 Q 248.3 50.7, 249.3 51.1 Q 250.8 51.5, 251.6 52.0 Q 252.5 52.4, 253.1 53.3 Q 253.7 54.2, 253.7 55.8 Q 253.7 58.0, 252.2 59.2 Q 250.8 60.3, 248.3 60.3 Q 246.9 60.3, 245.9 60.0 Q 244.8 59.7, 243.5 59.2 L 244.2 57.4 " fill="#000000"/>
<path class="atom-7" d="M 261.8 48.2 Q 263.7 48.2, 264.6 49.2 Q 265.6 50.3, 265.6 52.3 L 265.6 59.9 L 263.5 59.9 L 263.5 52.4 Q 263.5 51.1, 263.0 50.5 Q 262.5 49.8, 261.3 49.8 Q 260.2 49.8, 259.4 50.3 Q 258.5 50.8, 257.9 51.7 L 257.9 59.9 L 255.8 59.9 L 255.8 48.4 L 257.6 48.4 L 257.8 50.0 Q 259.3 48.2, 261.8 48.2 " fill="#000000"/>
<path class="atom-7" d="M 268.4 44.1 L 270.6 44.1 L 270.6 50.8 L 278.7 50.8 L 278.7 44.1 L 280.8 44.1 L 280.8 59.9 L 278.7 59.9 L 278.7 52.6 L 270.6 52.6 L 270.6 59.9 L 268.4 59.9 L 268.4 44.1 " fill="#000000"/>
<path class="atom-8" d="M 145.7 41.8 Q 145.9 41.9, 146.6 42.2 Q 147.4 42.5, 148.2 42.7 Q 149.0 42.9, 149.8 42.9 Q 151.3 42.9, 152.2 42.2 Q 153.0 41.4, 153.0 40.2 Q 153.0 39.3, 152.6 38.8 Q 152.2 38.2, 151.5 37.9 Q 150.8 37.6, 149.7 37.3 Q 148.3 36.9, 147.5 36.5 Q 146.6 36.1, 146.0 35.2 Q 145.4 34.4, 145.4 32.9 Q 145.4 30.9, 146.8 29.7 Q 148.1 28.5, 150.8 28.5 Q 152.7 28.5, 154.7 29.4 L 154.2 31.1 Q 152.3 30.3, 150.9 30.3 Q 149.4 30.3, 148.5 30.9 Q 147.7 31.6, 147.7 32.7 Q 147.7 33.5, 148.1 34.0 Q 148.6 34.5, 149.2 34.8 Q 149.8 35.1, 150.9 35.5 Q 152.3 35.9, 153.2 36.4 Q 154.0 36.8, 154.6 37.7 Q 155.3 38.6, 155.3 40.2 Q 155.3 42.4, 153.8 43.5 Q 152.3 44.7, 149.9 44.7 Q 148.5 44.7, 147.4 44.4 Q 146.4 44.1, 145.1 43.6 L 145.7 41.8 " fill="#CCCC00"/>
<path class="atom-10" d="M 19.2 44.1 L 21.3 44.1 L 21.3 50.8 L 29.4 50.8 L 29.4 44.1 L 31.6 44.1 L 31.6 59.9 L 29.4 59.9 L 29.4 52.6 L 21.3 52.6 L 21.3 59.9 L 19.2 59.9 L 19.2 44.1 " fill="#000000"/>
<path class="atom-10" d="M 35.2 57.4 Q 35.4 57.5, 36.1 57.8 Q 36.8 58.1, 37.6 58.3 Q 38.5 58.5, 39.3 58.5 Q 40.8 58.5, 41.6 57.8 Q 42.5 57.1, 42.5 55.8 Q 42.5 54.9, 42.1 54.4 Q 41.6 53.8, 41.0 53.5 Q 40.3 53.2, 39.2 52.9 Q 37.8 52.5, 36.9 52.1 Q 36.1 51.7, 35.5 50.8 Q 34.9 50.0, 34.9 48.5 Q 34.9 46.6, 36.2 45.3 Q 37.6 44.1, 40.3 44.1 Q 42.1 44.1, 44.2 45.0 L 43.7 46.7 Q 41.8 45.9, 40.4 45.9 Q 38.8 45.9, 38.0 46.6 Q 37.1 47.2, 37.1 48.3 Q 37.1 49.1, 37.6 49.6 Q 38.0 50.2, 38.6 50.5 Q 39.3 50.7, 40.4 51.1 Q 41.8 51.5, 42.6 52.0 Q 43.5 52.4, 44.1 53.3 Q 44.7 54.2, 44.7 55.8 Q 44.7 58.0, 43.2 59.2 Q 41.8 60.3, 39.4 60.3 Q 37.9 60.3, 36.9 60.0 Q 35.8 59.7, 34.6 59.2 L 35.2 57.4 " fill="#000000"/>
<path class="atom-10" d="M 52.9 48.2 Q 54.7 48.2, 55.6 49.2 Q 56.6 50.3, 56.6 52.3 L 56.6 59.9 L 54.5 59.9 L 54.5 52.4 Q 54.5 51.1, 54.0 50.5 Q 53.5 49.8, 52.3 49.8 Q 51.3 49.8, 50.4 50.3 Q 49.5 50.8, 49.0 51.7 L 49.0 59.9 L 46.9 59.9 L 46.9 48.4 L 48.6 48.4 L 48.8 50.0 Q 50.4 48.2, 52.9 48.2 " fill="#000000"/>
<path class="atom-4" d="M 285.3,195.2 L 285.3,195.3 L 285.3,195.4 L 285.2,195.4 L 285.2,195.5 L 285.2,195.6 L 285.1,195.7 L 285.1,195.8 L 285.0,195.9 L 285.0,195.9 L 284.9,196.0 L 284.8,196.1 L 284.7,196.1 L 284.6,196.2 L 284.6,196.2 L 284.5,196.2 L 284.4,196.3 L 284.3,196.3 L 284.2,196.3 L 284.1,196.3 L 284.0,196.3 L 283.9,196.2 L 283.8,196.2 L 283.7,196.2 L 283.6,196.1 L 283.5,196.1 L 283.5,196.0 L 283.4,196.0 L 283.3,195.9 L 283.3,195.8 L 283.2,195.8 L 283.2,195.7 L 283.1,195.6 L 283.1,195.5 L 283.1,195.4 L 283.1,195.3 L 283.0,195.2 L 283.0,195.1 L 283.1,195.0 L 283.1,194.9 L 283.1,194.8 L 283.1,194.7 L 283.2,194.7 L 283.2,194.6 L 283.3,194.5 L 283.3,194.4 L 283.4,194.3 L 283.5,194.3 L 283.5,194.2 L 283.6,194.2 L 283.7,194.1 L 283.8,194.1 L 283.9,194.1 L 284.0,194.1 L 284.1,194.0 L 284.2,194.0 L 284.3,194.1 L 284.4,194.1 L 284.5,194.1 L 284.6,194.1 L 284.6,194.2 L 284.7,194.2 L 284.8,194.3 L 284.9,194.3 L 285.0,194.4 L 285.0,194.5 L 285.1,194.5 L 285.1,194.6 L 285.2,194.7 L 285.2,194.8 L 285.2,194.9 L 285.3,195.0 L 285.3,195.1 L 285.3,195.2 L 284.2,195.2 Z" style="fill:#000000;fill-rule:evenodd;fill-opacity:1;stroke:#000000;stroke-width:0.0px;stroke-linecap:butt;stroke-linejoin:miter;stroke-miterlimit:10;stroke-opacity:1;"/>
<path class="atom-4" d="M 285.3,190.7 L 285.3,190.8 L 285.3,190.9 L 285.2,191.0 L 285.2,191.1 L 285.2,191.2 L 285.1,191.2 L 285.1,191.3 L 285.0,191.4 L 285.0,191.5 L 284.9,191.5 L 284.8,191.6 L 284.7,191.6 L 284.6,191.7 L 284.6,191.7 L 284.5,191.8 L 284.4,191.8 L 284.3,191.8 L 284.2,191.8 L 284.1,191.8 L 284.0,191.8 L 283.9,191.8 L 283.8,191.7 L 283.7,191.7 L 283.6,191.7 L 283.5,191.6 L 283.5,191.6 L 283.4,191.5 L 283.3,191.4 L 283.3,191.4 L 283.2,191.3 L 283.2,191.2 L 283.1,191.1 L 283.1,191.0 L 283.1,190.9 L 283.1,190.8 L 283.0,190.7 L 283.0,190.6 L 283.1,190.5 L 283.1,190.4 L 283.1,190.4 L 283.1,190.3 L 283.2,190.2 L 283.2,190.1 L 283.3,190.0 L 283.3,189.9 L 283.4,189.9 L 283.5,189.8 L 283.5,189.8 L 283.6,189.7 L 283.7,189.7 L 283.8,189.6 L 283.9,189.6 L 284.0,189.6 L 284.1,189.6 L 284.2,189.6 L 284.3,189.6 L 284.4,189.6 L 284.5,189.6 L 284.6,189.6 L 284.6,189.7 L 284.7,189.7 L 284.8,189.8 L 284.9,189.8 L 285.0,189.9 L 285.0,190.0 L 285.1,190.1 L 285.1,190.1 L 285.2,190.2 L 285.2,190.3 L 285.2,190.4 L 285.3,190.5 L 285.3,190.6 L 285.3,190.7 L 284.2,190.7 Z" style="fill:#000000;fill-rule:evenodd;fill-opacity:1;stroke:#000000;stroke-width:0.0px;stroke-linecap:butt;stroke-linejoin:miter;stroke-miterlimit:10;stroke-opacity:1;"/>
<path class="atom-7" d="M 285.3,54.2 L 285.3,54.3 L 285.3,54.4 L 285.2,54.5 L 285.2,54.6 L 285.2,54.7 L 285.1,54.8 L 285.1,54.8 L 285.0,54.9 L 285.0,55.0 L 284.9,55.1 L 284.8,55.1 L 284.7,55.2 L 284.6,55.2 L 284.6,55.3 L 284.5,55.3 L 284.4,55.3 L 284.3,55.3 L 284.2,55.3 L 284.1,55.3 L 284.0,55.3 L 283.9,55.3 L 283.8,55.3 L 283.7,55.2 L 283.6,55.2 L 283.5,55.1 L 283.5,55.1 L 283.4,55.0 L 283.3,55.0 L 283.3,54.9 L 283.2,54.8 L 283.2,54.7 L 283.1,54.6 L 283.1,54.5 L 283.1,54.4 L 283.1,54.4 L 283.0,54.3 L 283.0,54.2 L 283.1,54.1 L 283.1,54.0 L 283.1,53.9 L 283.1,53.8 L 283.2,53.7 L 283.2,53.6 L 283.3,53.5 L 283.3,53.5 L 283.4,53.4 L 283.5,53.3 L 283.5,53.3 L 283.6,53.2 L 283.7,53.2 L 283.8,53.1 L 283.9,53.1 L 284.0,53.1 L 284.1,53.1 L 284.2,53.1 L 284.3,53.1 L 284.4,53.1 L 284.5,53.1 L 284.6,53.2 L 284.6,53.2 L 284.7,53.2 L 284.8,53.3 L 284.9,53.4 L 285.0,53.4 L 285.0,53.5 L 285.1,53.6 L 285.1,53.7 L 285.2,53.7 L 285.2,53.8 L 285.2,53.9 L 285.3,54.0 L 285.3,54.1 L 285.3,54.2 L 284.2,54.2 Z" style="fill:#000000;fill-rule:evenodd;fill-opacity:1;stroke:#000000;stroke-width:0.0px;stroke-linecap:butt;stroke-linejoin:miter;stroke-miterlimit:10;stroke-opacity:1;"/>
<path class="atom-7" d="M 285.3,49.7 L 285.3,49.8 L 285.3,49.9 L 285.2,50.0 L 285.2,50.1 L 285.2,50.2 L 285.1,50.3 L 285.1,50.4 L 285.0,50.4 L 285.0,50.5 L 284.9,50.6 L 284.8,50.6 L 284.7,50.7 L 284.6,50.7 L 284.6,50.8 L 284.5,50.8 L 284.4,50.8 L 284.3,50.8 L 284.2,50.9 L 284.1,50.9 L 284.0,50.8 L 283.9,50.8 L 283.8,50.8 L 283.7,50.8 L 283.6,50.7 L 283.5,50.7 L 283.5,50.6 L 283.4,50.6 L 283.3,50.5 L 283.3,50.4 L 283.2,50.3 L 283.2,50.2 L 283.1,50.2 L 283.1,50.1 L 283.1,50.0 L 283.1,49.9 L 283.0,49.8 L 283.0,49.7 L 283.1,49.6 L 283.1,49.5 L 283.1,49.4 L 283.1,49.3 L 283.2,49.2 L 283.2,49.1 L 283.3,49.1 L 283.3,49.0 L 283.4,48.9 L 283.5,48.9 L 283.5,48.8 L 283.6,48.8 L 283.7,48.7 L 283.8,48.7 L 283.9,48.6 L 284.0,48.6 L 284.1,48.6 L 284.2,48.6 L 284.3,48.6 L 284.4,48.6 L 284.5,48.7 L 284.6,48.7 L 284.6,48.7 L 284.7,48.8 L 284.8,48.8 L 284.9,48.9 L 285.0,49.0 L 285.0,49.0 L 285.1,49.1 L 285.1,49.2 L 285.2,49.3 L 285.2,49.4 L 285.2,49.4 L 285.3,49.5 L 285.3,49.6 L 285.3,49.7 L 284.2,49.7 Z" style="fill:#000000;fill-rule:evenodd;fill-opacity:1;stroke:#000000;stroke-width:0.0px;stroke-linecap:butt;stroke-linejoin:miter;stroke-miterlimit:10;stroke-opacity:1;"/>
<path class="atom-10" d="M 17.0,54.2 L 17.0,54.3 L 16.9,54.4 L 16.9,54.5 L 16.9,54.6 L 16.9,54.7 L 16.8,54.8 L 16.8,54.8 L 16.7,54.9 L 16.6,55.0 L 16.6,55.1 L 16.5,55.1 L 16.4,55.2 L 16.3,55.2 L 16.2,55.3 L 16.1,55.3 L 16.1,55.3 L 16.0,55.3 L 15.9,55.3 L 15.8,55.3 L 15.7,55.3 L 15.6,55.3 L 15.5,55.3 L 15.4,55.2 L 15.3,55.2 L 15.2,55.1 L 15.1,55.1 L 15.1,55.0 L 15.0,55.0 L 14.9,54.9 L 14.9,54.8 L 14.8,54.7 L 14.8,54.6 L 14.8,54.5 L 14.7,54.4 L 14.7,54.4 L 14.7,54.3 L 14.7,54.2 L 14.7,54.1 L 14.7,54.0 L 14.8,53.9 L 14.8,53.8 L 14.8,53.7 L 14.9,53.6 L 14.9,53.5 L 15.0,53.5 L 15.1,53.4 L 15.1,53.3 L 15.2,53.3 L 15.3,53.2 L 15.4,53.2 L 15.5,53.1 L 15.6,53.1 L 15.7,53.1 L 15.8,53.1 L 15.9,53.1 L 16.0,53.1 L 16.1,53.1 L 16.1,53.1 L 16.2,53.2 L 16.3,53.2 L 16.4,53.2 L 16.5,53.3 L 16.6,53.4 L 16.6,53.4 L 16.7,53.5 L 16.8,53.6 L 16.8,53.7 L 16.9,53.7 L 16.9,53.8 L 16.9,53.9 L 16.9,54.0 L 17.0,54.1 L 17.0,54.2 L 15.8,54.2 Z" style="fill:#000000;fill-rule:evenodd;fill-opacity:1;stroke:#000000;stroke-width:0.0px;stroke-linecap:butt;stroke-linejoin:miter;stroke-miterlimit:10;stroke-opacity:1;"/>
<path class="atom-10" d="M 17.0,49.7 L 17.0,49.8 L 16.9,49.9 L 16.9,50.0 L 16.9,50.1 L 16.9,50.2 L 16.8,50.3 L 16.8,50.4 L 16.7,50.4 L 16.6,50.5 L 16.6,50.6 L 16.5,50.6 L 16.4,50.7 L 16.3,50.7 L 16.2,50.8 L 16.1,50.8 L 16.1,50.8 L 16.0,50.8 L 15.9,50.9 L 15.8,50.9 L 15.7,50.8 L 15.6,50.8 L 15.5,50.8 L 15.4,50.8 L 15.3,50.7 L 15.2,50.7 L 15.1,50.6 L 15.1,50.6 L 15.0,50.5 L 14.9,50.4 L 14.9,50.3 L 14.8,50.2 L 14.8,50.2 L 14.8,50.1 L 14.7,50.0 L 14.7,49.9 L 14.7,49.8 L 14.7,49.7 L 14.7,49.6 L 14.7,49.5 L 14.8,49.4 L 14.8,49.3 L 14.8,49.2 L 14.9,49.1 L 14.9,49.1 L 15.0,49.0 L 15.1,48.9 L 15.1,48.9 L 15.2,48.8 L 15.3,48.8 L 15.4,48.7 L 15.5,48.7 L 15.6,48.6 L 15.7,48.6 L 15.8,48.6 L 15.9,48.6 L 16.0,48.6 L 16.1,48.6 L 16.1,48.7 L 16.2,48.7 L 16.3,48.7 L 16.4,48.8 L 16.5,48.8 L 16.6,48.9 L 16.6,49.0 L 16.7,49.0 L 16.8,49.1 L 16.8,49.2 L 16.9,49.3 L 16.9,49.4 L 16.9,49.4 L 16.9,49.5 L 17.0,49.6 L 17.0,49.7 L 15.8,49.7 Z" style="fill:#000000;fill-rule:evenodd;fill-opacity:1;stroke:#000000;stroke-width:0.0px;stroke-linecap:butt;stroke-linejoin:miter;stroke-miterlimit:10;stroke-opacity:1;"/>
<path class="legend" d="M 93.4 226.0 Q 93.7 225.2, 94.5 224.8 Q 95.2 224.3, 96.3 224.3 Q 97.6 224.3, 98.3 225.0 Q 99.0 225.7, 99.0 227.0 Q 99.0 228.2, 98.1 229.4 Q 97.1 230.6, 95.2 232.0 L 99.2 232.0 L 99.2 233.0 L 93.4 233.0 L 93.4 232.2 Q 95.0 231.0, 95.9 230.2 Q 96.9 229.3, 97.4 228.6 Q 97.8 227.8, 97.8 227.0 Q 97.8 226.2, 97.4 225.7 Q 97.0 225.3, 96.3 225.3 Q 95.6 225.3, 95.1 225.6 Q 94.7 225.8, 94.3 226.5 L 93.4 226.0 " fill="#000000"/>
<path class="legend" d="M 105.9 230.0 L 106.9 230.0 L 106.9 231.0 L 105.9 231.0 L 105.9 233.0 L 104.7 233.0 L 104.7 231.0 L 100.3 231.0 L 100.3 230.3 L 104.1 224.4 L 105.9 224.4 L 105.9 230.0 M 101.7 230.0 L 104.7 230.0 L 104.7 225.2 L 101.7 230.0 " fill="#000000"/>
<path class="legend" d="M 112.0 228.5 Q 112.9 228.7, 113.3 229.3 Q 113.7 229.8, 113.7 230.6 Q 113.7 231.4, 113.3 231.9 Q 113.0 232.5, 112.3 232.8 Q 111.6 233.1, 110.7 233.1 Q 109.8 233.1, 109.1 232.8 Q 108.5 232.5, 107.9 231.8 L 108.6 231.1 Q 109.1 231.7, 109.6 231.9 Q 110.0 232.1, 110.7 232.1 Q 111.5 232.1, 112.0 231.7 Q 112.5 231.3, 112.5 230.6 Q 112.5 229.8, 112.0 229.4 Q 111.5 229.0, 110.4 229.0 L 109.8 229.0 L 109.8 228.1 L 110.4 228.1 Q 111.3 228.1, 111.8 227.7 Q 112.3 227.3, 112.3 226.5 Q 112.3 225.9, 111.9 225.6 Q 111.5 225.3, 110.8 225.3 Q 110.0 225.3, 109.6 225.5 Q 109.2 225.8, 108.8 226.4 L 108.0 226.0 Q 108.3 225.3, 109.0 224.8 Q 109.7 224.3, 110.8 224.3 Q 112.0 224.3, 112.8 224.9 Q 113.5 225.5, 113.5 226.5 Q 113.5 227.2, 113.1 227.7 Q 112.8 228.2, 112.0 228.5 " fill="#000000"/>
<path class="legend" d="" fill="#000000"/>
<path class="legend" d="M 119.3 223.6 L 120.3 223.6 L 120.3 235.3 L 119.3 235.3 L 119.3 223.6 " fill="#000000"/>
<path class="legend" d="" fill="#000000"/>
<path class="legend" d="M 129.4 226.6 Q 130.4 226.6, 130.9 227.2 Q 131.5 227.8, 131.5 228.9 L 131.5 233.0 L 130.3 233.0 L 130.3 229.0 Q 130.3 228.2, 130.0 227.9 Q 129.7 227.5, 129.1 227.5 Q 128.5 227.5, 128.1 227.8 Q 127.6 228.1, 127.3 228.5 L 127.3 233.0 L 126.1 233.0 L 126.1 226.8 L 127.1 226.8 L 127.2 227.6 Q 128.1 226.6, 129.4 226.6 " fill="#000000"/>
<path class="legend" d="M 132.8 229.9 Q 132.8 228.4, 133.5 227.5 Q 134.3 226.6, 135.8 226.6 Q 137.2 226.6, 137.9 227.7 L 137.2 228.2 Q 136.9 227.9, 136.5 227.7 Q 136.2 227.5, 135.8 227.5 Q 134.9 227.5, 134.4 228.1 Q 134.0 228.7, 134.0 229.9 Q 134.0 231.0, 134.4 231.6 Q 134.9 232.2, 135.8 232.2 Q 136.4 232.2, 136.7 232.1 Q 137.1 232.0, 137.5 231.8 L 137.8 232.5 Q 136.9 233.1, 135.8 233.1 Q 134.3 233.1, 133.5 232.2 Q 132.8 231.4, 132.8 229.9 " fill="#000000"/>
<path class="legend" d="M 138.6 224.4 L 139.7 224.4 L 139.7 225.5 L 138.6 225.5 L 138.6 224.4 M 138.6 226.8 L 139.7 226.8 L 139.7 233.0 L 138.6 233.0 L 138.6 226.8 " fill="#000000"/>
<path class="legend" d="M 141.7 232.0 L 143.5 232.0 L 143.5 225.6 L 141.5 226.2 L 141.2 225.5 L 143.8 224.4 L 144.7 224.5 L 144.7 232.0 L 146.4 232.0 L 146.4 233.0 L 141.7 233.0 L 141.7 232.0 " fill="#000000"/>
<path class="legend" d="M 153.5 233.6 L 153.5 234.6 L 147.3 234.6 L 147.3 233.6 L 153.5 233.6 " fill="#000000"/>
<path class="legend" d="M 154.2 231.7 Q 154.8 231.9, 155.2 232.0 Q 155.6 232.2, 156.0 232.2 Q 156.5 232.2, 156.8 231.9 Q 157.1 231.7, 157.1 231.2 Q 157.1 231.0, 157.0 230.8 Q 156.8 230.6, 156.6 230.5 Q 156.4 230.4, 155.9 230.3 Q 155.8 230.2, 155.2 230.0 Q 154.7 229.9, 154.4 229.4 Q 154.1 229.0, 154.1 228.4 Q 154.1 227.7, 154.7 227.2 Q 155.2 226.6, 156.4 226.6 Q 156.8 226.6, 157.3 226.8 Q 157.7 226.9, 158.1 227.0 L 157.8 227.9 Q 157.4 227.8, 157.1 227.7 Q 156.7 227.6, 156.4 227.6 Q 155.8 227.6, 155.5 227.8 Q 155.2 228.0, 155.2 228.4 Q 155.2 228.7, 155.4 228.9 Q 155.7 229.1, 156.2 229.3 Q 156.3 229.3, 156.4 229.3 L 156.7 229.4 Q 157.2 229.6, 157.5 229.8 Q 157.9 230.0, 158.1 230.3 Q 158.3 230.7, 158.3 231.2 Q 158.3 232.1, 157.6 232.6 Q 157.0 233.1, 156.0 233.1 Q 155.4 233.1, 154.9 233.0 Q 154.4 232.8, 153.9 232.6 L 154.2 231.7 " fill="#000000"/>
<path class="legend" d="M 166.5 226.6 Q 167.6 226.6, 168.1 227.2 Q 168.7 227.8, 168.7 228.9 L 168.7 233.0 L 167.5 233.0 L 167.5 229.0 Q 167.5 228.2, 167.2 227.9 Q 167.0 227.5, 166.3 227.5 Q 165.8 227.5, 165.3 227.8 Q 164.8 228.1, 164.6 228.5 Q 164.6 228.6, 164.6 228.9 L 164.6 233.0 L 163.4 233.0 L 163.4 229.0 Q 163.4 228.2, 163.1 227.9 Q 162.9 227.5, 162.2 227.5 Q 161.7 227.5, 161.2 227.8 Q 160.8 228.1, 160.5 228.5 L 160.5 233.0 L 159.3 233.0 L 159.3 226.8 L 160.3 226.8 L 160.4 227.6 Q 161.2 226.6, 162.5 226.6 Q 163.9 226.6, 164.4 227.7 Q 165.2 226.6, 166.5 226.6 " fill="#000000"/>
<path class="legend" d="M 170.0 224.4 L 171.1 224.4 L 171.1 225.5 L 170.0 225.5 L 170.0 224.4 M 170.0 226.8 L 171.1 226.8 L 171.1 233.0 L 170.0 233.0 L 170.0 226.8 " fill="#000000"/>
<path class="legend" d="M 172.6 223.8 L 173.7 223.8 L 173.7 233.0 L 172.6 233.0 L 172.6 223.8 " fill="#000000"/>
<path class="legend" d="M 175.1 229.9 Q 175.1 228.3, 175.9 227.5 Q 176.7 226.6, 178.0 226.6 Q 179.4 226.6, 180.0 227.5 Q 180.6 228.3, 180.6 229.8 L 180.6 230.0 L 176.3 230.0 Q 176.3 231.1, 176.8 231.6 Q 177.3 232.2, 178.1 232.2 Q 178.6 232.2, 179.1 232.1 Q 179.5 232.0, 180.1 231.7 L 180.4 232.5 Q 179.8 232.8, 179.2 233.0 Q 178.7 233.1, 178.1 233.1 Q 176.7 233.1, 175.9 232.2 Q 175.1 231.4, 175.1 229.9 M 178.0 227.5 Q 177.3 227.5, 176.9 228.0 Q 176.5 228.4, 176.3 229.2 L 179.4 229.2 Q 179.4 228.3, 179.0 227.9 Q 178.7 227.5, 178.0 227.5 " fill="#000000"/>
<path class="legend" d="M 181.9 231.7 Q 182.4 231.9, 182.8 232.0 Q 183.2 232.2, 183.6 232.2 Q 184.2 232.2, 184.5 231.9 Q 184.8 231.7, 184.8 231.2 Q 184.8 231.0, 184.6 230.8 Q 184.5 230.6, 184.2 230.5 Q 184.1 230.4, 183.5 230.3 Q 183.4 230.2, 182.9 230.0 Q 182.3 229.9, 182.0 229.4 Q 181.7 229.0, 181.7 228.4 Q 181.7 227.7, 182.3 227.2 Q 182.9 226.6, 184.0 226.6 Q 184.5 226.6, 184.9 226.8 Q 185.3 226.9, 185.8 227.0 L 185.5 227.9 Q 185.1 227.8, 184.7 227.7 Q 184.4 227.6, 184.0 227.6 Q 183.4 227.6, 183.1 227.8 Q 182.9 228.0, 182.9 228.4 Q 182.9 228.7, 183.1 228.9 Q 183.3 229.1, 183.8 229.3 Q 184.0 229.3, 184.1 229.3 L 184.4 229.4 Q 184.9 229.6, 185.2 229.8 Q 185.5 230.0, 185.7 230.3 Q 185.9 230.7, 185.9 231.2 Q 185.9 232.1, 185.3 232.6 Q 184.6 233.1, 183.6 233.1 Q 183.0 233.1, 182.5 233.0 Q 182.0 232.8, 181.5 232.6 L 181.9 231.7 " fill="#000000"/>
<path class="legend" d="M 187.0 231.8 L 188.2 231.8 L 188.2 233.0 L 187.0 233.0 L 187.0 231.8 " fill="#000000"/>
<path class="legend" d="M 189.7 231.7 Q 190.3 231.9, 190.7 232.0 Q 191.1 232.2, 191.5 232.2 Q 192.0 232.2, 192.3 231.9 Q 192.6 231.7, 192.6 231.2 Q 192.6 231.0, 192.5 230.8 Q 192.3 230.6, 192.1 230.5 Q 191.9 230.4, 191.4 230.3 Q 191.3 230.2, 190.7 230.0 Q 190.2 229.9, 189.9 229.4 Q 189.6 229.0, 189.6 228.4 Q 189.6 227.7, 190.2 227.2 Q 190.7 226.6, 191.9 226.6 Q 192.3 226.6, 192.8 226.8 Q 193.2 226.9, 193.6 227.0 L 193.3 227.9 Q 192.9 227.8, 192.6 227.7 Q 192.2 227.6, 191.9 227.6 Q 191.3 227.6, 191.0 227.8 Q 190.7 228.0, 190.7 228.4 Q 190.7 228.7, 190.9 228.9 Q 191.2 229.1, 191.7 229.3 Q 191.8 229.3, 191.9 229.3 L 192.2 229.4 Q 192.7 229.6, 193.0 229.8 Q 193.4 230.0, 193.6 230.3 Q 193.8 230.7, 193.8 231.2 Q 193.8 232.1, 193.1 232.6 Q 192.5 233.1, 191.5 233.1 Q 190.9 233.1, 190.4 233.0 Q 189.9 232.8, 189.4 232.6 L 189.7 231.7 " fill="#000000"/>
<path class="legend" d="M 202.0 226.6 Q 203.1 226.6, 203.6 227.2 Q 204.2 227.8, 204.2 228.9 L 204.2 233.0 L 203.0 233.0 L 203.0 229.0 Q 203.0 228.2, 202.7 227.9 Q 202.5 227.5, 201.8 227.5 Q 201.3 227.5, 200.8 227.8 Q 200.3 228.1, 200.1 228.5 Q 200.1 228.6, 200.1 228.9 L 200.1 233.0 L 198.9 233.0 L 198.9 229.0 Q 198.9 228.2, 198.6 227.9 Q 198.4 227.5, 197.7 227.5 Q 197.2 227.5, 196.7 227.8 Q 196.3 228.1, 196.0 228.5 L 196.0 233.0 L 194.8 233.0 L 194.8 226.8 L 195.8 226.8 L 195.9 227.6 Q 196.7 226.6, 198.0 226.6 Q 199.4 226.6, 199.9 227.7 Q 200.7 226.6, 202.0 226.6 " fill="#000000"/>
<path class="legend" d="M 205.5 224.4 L 206.6 224.4 L 206.6 225.5 L 205.5 225.5 L 205.5 224.4 M 205.5 226.8 L 206.6 226.8 L 206.6 233.0 L 205.5 233.0 L 205.5 226.8 " fill="#000000"/>
<path class="legend" d="M 110.0 238.7 L 110.0 237.8 L 111.2 237.8 L 111.4 236.0 L 112.2 236.0 L 112.2 237.8 L 114.2 237.8 L 114.2 238.7 L 112.2 238.7 L 112.2 242.1 Q 112.2 243.2, 113.2 243.2 Q 113.5 243.2, 114.1 243.0 L 114.2 243.8 Q 113.6 244.1, 113.0 244.1 Q 112.1 244.1, 111.6 243.6 Q 111.1 243.1, 111.1 242.2 L 111.1 238.7 L 110.0 238.7 " fill="#000000"/>
<path class="legend" d="M 115.1 240.9 Q 115.1 239.4, 115.8 238.5 Q 116.6 237.7, 118.0 237.7 Q 119.5 237.7, 120.2 238.5 Q 121.0 239.4, 121.0 240.9 Q 121.0 242.4, 120.2 243.3 Q 119.5 244.1, 118.0 244.1 Q 116.6 244.1, 115.8 243.3 Q 115.1 242.4, 115.1 240.9 M 116.2 240.9 Q 116.2 242.0, 116.7 242.6 Q 117.2 243.2, 118.0 243.2 Q 118.9 243.2, 119.4 242.6 Q 119.8 242.0, 119.8 240.9 Q 119.8 239.8, 119.4 239.2 Q 118.9 238.6, 118.0 238.6 Q 117.2 238.6, 116.7 239.2 Q 116.2 239.8, 116.2 240.9 " fill="#000000"/>
<path class="legend" d="M 125.0 237.7 Q 126.3 237.7, 127.0 238.5 Q 127.7 239.3, 127.7 240.8 Q 127.7 242.4, 126.9 243.2 Q 126.0 244.1, 124.5 244.1 Q 123.8 244.1, 123.2 244.0 L 123.2 247.0 L 122.1 247.0 L 122.1 237.8 L 123.0 237.8 L 123.2 238.5 Q 123.5 238.1, 123.9 237.9 Q 124.4 237.7, 125.0 237.7 M 124.5 243.2 Q 125.5 243.2, 126.0 242.6 Q 126.6 242.0, 126.6 240.8 Q 126.6 239.7, 126.1 239.2 Q 125.7 238.6, 124.9 238.6 Q 124.3 238.6, 123.8 238.9 Q 123.4 239.2, 123.2 239.8 L 123.2 243.0 Q 123.8 243.2, 124.5 243.2 " fill="#000000"/>
<path class="legend" d="M 128.8 238.7 L 134.4 238.7 L 134.4 239.6 L 128.8 239.6 L 128.8 238.7 M 128.8 241.3 L 134.4 241.3 L 134.4 242.2 L 128.8 242.2 L 128.8 241.3 " fill="#000000"/>
<path class="legend" d="M 139.1 244.1 Q 137.6 244.1, 136.8 243.0 Q 136.0 241.8, 136.0 239.7 Q 136.0 237.6, 136.8 236.5 Q 137.5 235.3, 139.1 235.3 Q 140.7 235.3, 141.5 236.5 Q 142.3 237.6, 142.3 239.7 Q 142.3 241.8, 141.5 243.0 Q 140.7 244.1, 139.1 244.1 M 139.1 243.2 Q 140.1 243.2, 140.6 242.3 Q 141.1 241.4, 141.1 239.7 Q 141.1 238.0, 140.6 237.2 Q 140.1 236.3, 139.1 236.3 Q 138.2 236.3, 137.7 237.2 Q 137.2 238.0, 137.2 239.7 Q 137.2 241.4, 137.7 242.3 Q 138.2 243.2, 139.1 243.2 " fill="#000000"/>
<path class="legend" d="" fill="#000000"/>
<path class="legend" d="M 148.2 242.3 Q 148.2 241.3, 149.0 240.8 Q 149.8 240.3, 151.2 240.3 L 152.2 240.3 L 152.2 240.0 Q 152.2 239.2, 151.8 238.9 Q 151.5 238.6, 150.7 238.6 Q 150.2 238.6, 149.8 238.7 Q 149.5 238.8, 148.9 239.0 L 148.5 238.2 Q 149.7 237.7, 150.8 237.7 Q 152.1 237.7, 152.7 238.2 Q 153.3 238.8, 153.3 240.0 L 153.3 244.0 L 152.4 244.0 Q 152.4 244.0, 152.4 243.8 Q 152.3 243.6, 152.2 243.3 Q 151.4 244.2, 150.2 244.2 Q 149.3 244.2, 148.7 243.7 Q 148.2 243.2, 148.2 242.3 M 149.3 242.3 Q 149.3 242.8, 149.6 243.0 Q 149.9 243.3, 150.4 243.3 Q 150.9 243.3, 151.4 243.1 Q 151.8 242.8, 152.2 242.4 L 152.2 241.1 L 151.3 241.1 Q 150.3 241.1, 149.8 241.4 Q 149.3 241.7, 149.3 242.3 " fill="#000000"/>
<path class="legend" d="M 154.8 238.7 L 154.8 237.8 L 155.9 237.8 L 156.1 236.0 L 157.0 236.0 L 157.0 237.8 L 158.9 237.8 L 158.9 238.7 L 157.0 238.7 L 157.0 242.1 Q 157.0 243.2, 157.9 243.2 Q 158.3 243.2, 158.8 243.0 L 159.0 243.8 Q 158.3 244.1, 157.7 244.1 Q 156.9 244.1, 156.4 243.6 Q 155.8 243.1, 155.8 242.2 L 155.8 238.7 L 154.8 238.7 " fill="#000000"/>
<path class="legend" d="M 159.8 240.9 Q 159.8 239.4, 160.6 238.5 Q 161.4 237.7, 162.8 237.7 Q 164.2 237.7, 165.0 238.5 Q 165.7 239.4, 165.7 240.9 Q 165.7 242.4, 165.0 243.3 Q 164.2 244.1, 162.8 244.1 Q 161.4 244.1, 160.6 243.3 Q 159.8 242.4, 159.8 240.9 M 161.0 240.9 Q 161.0 242.0, 161.4 242.6 Q 161.9 243.2, 162.8 243.2 Q 163.6 243.2, 164.1 242.6 Q 164.6 242.0, 164.6 240.9 Q 164.6 239.8, 164.1 239.2 Q 163.6 238.6, 162.8 238.6 Q 161.9 238.6, 161.4 239.2 Q 161.0 239.8, 161.0 240.9 " fill="#000000"/>
<path class="legend" d="M 174.0 237.7 Q 175.1 237.7, 175.6 238.2 Q 176.2 238.8, 176.2 239.9 L 176.2 244.0 L 175.0 244.0 L 175.0 240.0 Q 175.0 239.2, 174.7 238.9 Q 174.4 238.6, 173.8 238.6 Q 173.3 238.6, 172.8 238.8 Q 172.3 239.1, 172.1 239.6 Q 172.1 239.7, 172.1 239.9 L 172.1 244.0 L 170.9 244.0 L 170.9 240.0 Q 170.9 239.2, 170.6 238.9 Q 170.4 238.6, 169.7 238.6 Q 169.2 238.6, 168.7 238.8 Q 168.3 239.1, 168.0 239.5 L 168.0 244.0 L 166.8 244.0 L 166.8 237.8 L 167.8 237.8 L 167.9 238.6 Q 168.7 237.7, 169.9 237.7 Q 171.4 237.7, 171.9 238.8 Q 172.7 237.7, 174.0 237.7 " fill="#000000"/>
<path class="legend" d="M 177.6 238.7 L 183.2 238.7 L 183.2 239.6 L 177.6 239.6 L 177.6 238.7 M 177.6 241.3 L 183.2 241.3 L 183.2 242.2 L 177.6 242.2 L 177.6 241.3 " fill="#000000"/>
<path class="legend" d="M 185.3 243.1 L 187.2 243.1 L 187.2 236.6 L 185.1 237.3 L 184.8 236.6 L 187.4 235.4 L 188.3 235.5 L 188.3 243.1 L 190.0 243.1 L 190.0 244.0 L 185.3 244.0 L 185.3 243.1 " fill="#000000"/>
<path class="bond-0 atom-0 atom-1" d="M 358.5,190.7 L 404.9,175.6" style="fill:none;fill-rule:evenodd;stroke:#000000;stroke-width:2.0px;stroke-linecap:butt;stroke-linejoin:miter;stroke-opacity:1"/>
<path class="bond-1 atom-1 atom-2" d="M 404.9,175.6 L 450.2,208.5" style="fill:none;fill-rule:evenodd;stroke:#000000;stroke-width:2.0px;stroke-linecap:butt;stroke-linejoin:miter;stroke-opacity:1"/>
<path class="bond-2 atom-2 atom-3" d="M 450.2,208.5 L 495.4,175.6" style="fill:none;fill-rule:evenodd;stroke:#000000;stroke-width:2.0px;stroke-linecap:butt;stroke-linejoin:miter;stroke-opacity:1"/>
<path class="bond-3 atom-3 atom-4" d="M 495.4,175.6 L 541.7,190.7" style="fill:none;fill-rule:evenodd;stroke:#000000;stroke-width:2.0px;stroke-linecap:butt;stroke-linejoin:miter;stroke-opacity:1"/>
<path class="bond-4 atom-3 atom-5" d="M 495.4,175.6 L 478.1,122.4" style="fill:none;fill-rule:evenodd;stroke:#000000;stroke-width:2.0px;stroke-linecap:butt;stroke-linejoin:miter;stroke-opacity:1"/>
<path class="bond-5 atom-5 atom-6" d="M 478.1,122.4 L 495.4,69.3" style="fill:none;fill-rule:evenodd;stroke:#000000;stroke-width:2.0px;stroke-linecap:butt;stroke-linejoin:miter;stroke-opacity:1"/>
<path class="bond-6 atom-6 atom-7" d="M 495.4,69.3 L 541.7,54.2" style="fill:none;fill-rule:evenodd;stroke:#000000;stroke-width:2.0px;stroke-linecap:butt;stroke-linejoin:miter;stroke-opacity:1"/>
<path class="bond-7 atom-6 atom-8" d="M 495.4,69.3 L 476.3,55.3" style="fill:none;fill-rule:evenodd;stroke:#000000;stroke-width:2.0px;stroke-linecap:butt;stroke-linejoin:miter;stroke-opacity:1"/>
<path class="bond-7 atom-6 atom-8" d="M 476.3,55.3 L 457.1,41.4" style="fill:none;fill-rule:evenodd;stroke:#CCCC00;stroke-width:2.0px;stroke-linecap:butt;stroke-linejoin:miter;stroke-opacity:1"/>
<path class="bond-8 atom-8 atom-9" d="M 443.3,41.4 L 424.1,55.3" style="fill:none;fill-rule:evenodd;stroke:#CCCC00;stroke-width:2.0px;stroke-linecap:butt;stroke-linejoin:miter;stroke-opacity:1"/>
<path class="bond-8 atom-8 atom-9" d="M 424.1,55.3 L 404.9,69.3" style="fill:none;fill-rule:evenodd;stroke:#000000;stroke-width:2.0px;stroke-linecap:butt;stroke-linejoin:miter;stroke-opacity:1"/>
<path class="bond-9 atom-9 atom-10" d="M 404.9,69.3 L 358.5,54.2" style="fill:none;fill-rule:evenodd;stroke:#000000;stroke-width:2.0px;stroke-linecap:butt;stroke-linejoin:miter;stroke-opacity:1"/>
<path class="bond-10 atom-9 atom-11" d="M 404.9,69.3 L 422.2,122.4" style="fill:none;fill-rule:evenodd;stroke:#000000;stroke-width:2.0px;stroke-linecap:butt;stroke-linejoin:miter;stroke-opacity:1"/>
<path class="bond-11 atom-11 atom-1" d="M 422.2,122.4 L 404.9,175.6" style="fill:none;fill-rule:evenodd;stroke:#000000;stroke-width:2.0px;stroke-linecap:butt;stroke-linejoin:miter;stroke-opacity:1"/>
<path class="bond-12 atom-11 atom-5" d="M 422.2,122.4 L 478.1,122.4" style="fill:none;fill-rule:evenodd;stroke:#000000;stroke-width:2.0px;stroke-linecap:butt;stroke-linejoin:miter;stroke-opacity:1"/>
<path d="M 447.9,206.9 L 450.2,208.5 L 452.4,206.9" style="fill:none;stroke:#000000;stroke-width:2.0px;stroke-linecap:butt;stroke-linejoin:miter;stroke-miterlimit:10;stroke-opacity:1;"/>
<path class="atom-0" d="M 319.2 185.0 L 321.3 185.0 L 321.3 191.7 L 329.4 191.7 L 329.4 185.0 L 331.6 185.0 L 331.6 200.8 L 329.4 200.8 L 329.4 193.5 L 321.3 193.5 L 321.3 200.8 L 319.2 200.8 L 319.2 185.0 " fill="#000000"/>
<path class="atom-0" d="M 335.2 198.4 Q 335.4 198.5, 336.1 198.8 Q 336.8 199.1, 337.6 199.3 Q 338.5 199.5, 339.3 199.5 Q 340.8 199.5, 341.6 198.7 Q 342.5 198.0, 342.5 196.7 Q 342.5 195.9, 342.1 195.3 Q 341.6 194.8, 341.0 194.5 Q 340.3 194.2, 339.2 193.9 Q 337.8 193.4, 336.9 193.0 Q 336.1 192.6, 335.5 191.8 Q 334.9 190.9, 334.9 189.5 Q 334.9 187.5, 336.2 186.3 Q 337.6 185.1, 340.3 185.1 Q 342.1 185.1, 344.2 185.9 L 343.7 187.6 Q 341.8 186.9, 340.4 186.9 Q 338.8 186.9, 338.0 187.5 Q 337.1 188.1, 337.1 189.2 Q 337.1 190.1, 337.6 190.6 Q 338.0 191.1, 338.6 191.4 Q 339.3 191.7, 340.4 192.0 Q 341.8 192.5, 342.6 192.9 Q 343.5 193.4, 344.1 194.3 Q 344.7 195.2, 344.7 196.7 Q 344.7 198.9, 343.2 200.1 Q 341.8 201.3, 339.4 201.3 Q 337.9 201.3, 336.9 201.0 Q 335.8 200.7, 334.6 200.2 L 335.2 198.4 " fill="#000000"/>
<path class="atom-0" d="M 352.9 189.1 Q 354.7 189.1, 355.6 190.2 Q 356.6 191.2, 356.6 193.2 L 356.6 200.8 L 354.5 200.8 L 354.5 193.4 Q 354.5 192.0, 354.0 191.4 Q 353.5 190.8, 352.3 190.8 Q 351.3 190.8, 350.4 191.3 Q 349.5 191.8, 349.0 192.6 L 349.0 200.8 L 346.9 200.8 L 346.9 189.3 L 348.6 189.3 L 348.8 191.0 Q 350.4 189.1, 352.9 189.1 " fill="#000000"/>
<path class="atom-4" d="M 544.2 198.4 Q 544.3 198.5, 545.1 198.8 Q 545.8 199.1, 546.6 199.3 Q 547.4 199.5, 548.2 199.5 Q 549.7 199.5, 550.6 198.7 Q 551.5 198.0, 551.5 196.7 Q 551.5 195.9, 551.0 195.3 Q 550.6 194.8, 549.9 194.5 Q 549.3 194.2, 548.2 193.9 Q 546.7 193.4, 545.9 193.0 Q 545.1 192.6, 544.5 191.8 Q 543.9 190.9, 543.9 189.5 Q 543.9 187.5, 545.2 186.3 Q 546.6 185.1, 549.3 185.1 Q 551.1 185.1, 553.2 185.9 L 552.7 187.6 Q 550.8 186.9, 549.3 186.9 Q 547.8 186.9, 546.9 187.5 Q 546.1 188.1, 546.1 189.2 Q 546.1 190.1, 546.5 190.6 Q 547.0 191.1, 547.6 191.4 Q 548.3 191.7, 549.3 192.0 Q 550.8 192.5, 551.6 192.9 Q 552.5 193.4, 553.1 194.3 Q 553.7 195.2, 553.7 196.7 Q 553.7 198.9, 552.2 200.1 Q 550.8 201.3, 548.3 201.3 Q 546.9 201.3, 545.9 201.0 Q 544.8 200.7, 543.5 200.2 L 544.2 198.4 " fill="#000000"/>
<path class="atom-4" d="M 561.8 189.1 Q 563.7 189.1, 564.6 190.2 Q 565.6 191.2, 565.6 193.2 L 565.6 200.8 L 563.5 200.8 L 563.5 193.4 Q 563.5 192.0, 563.0 191.4 Q 562.5 190.8, 561.3 190.8 Q 560.2 190.8, 559.4 191.3 Q 558.5 191.8, 557.9 192.6 L 557.9 200.8 L 555.8 200.8 L 555.8 189.3 L 557.6 189.3 L 557.8 191.0 Q 559.3 189.1, 561.8 189.1 " fill="#000000"/>
<path class="atom-4" d="M 568.4 185.0 L 570.6 185.0 L 570.6 191.7 L 578.7 191.7 L 578.7 185.0 L 580.8 185.0 L 580.8 200.8 L 578.7 200.8 L 578.7 193.5 L 570.6 193.5 L 570.6 200.8 L 568.4 200.8 L 568.4 185.0 " fill="#000000"/>
<path class="atom-7" d="M 544.2 57.4 Q 544.3 57.5, 545.1 57.8 Q 545.8 58.1, 546.6 58.3 Q 547.4 58.5, 548.2 58.5 Q 549.7 58.5, 550.6 57.8 Q 551.5 57.1, 551.5 55.8 Q 551.5 54.9, 551.0 54.4 Q 550.6 53.8, 549.9 53.5 Q 549.3 53.2, 548.2 52.9 Q 546.7 52.5, 545.9 52.1 Q 545.1 51.7, 544.5 50.8 Q 543.9 50.0, 543.9 48.5 Q 543.9 46.6, 545.2 45.3 Q 546.6 44.1, 549.3 44.1 Q 551.1 44.1, 553.2 45.0 L 552.7 46.7 Q 550.8 45.9, 549.3 45.9 Q 547.8 45.9, 546.9 46.6 Q 546.1 47.2, 546.1 48.3 Q 546.1 49.1, 546.5 49.6 Q 547.0 50.2, 547.6 50.5 Q 548.3 50.7, 549.3 51.1 Q 550.8 51.5, 551.6 52.0 Q 552.5 52.4, 553.1 53.3 Q 553.7 54.2, 553.7 55.8 Q 553.7 58.0, 552.2 59.2 Q 550.8 60.3, 548.3 60.3 Q 546.9 60.3, 545.9 60.0 Q 544.8 59.7, 543.5 59.2 L 544.2 57.4 " fill="#000000"/>
<path class="atom-7" d="M 561.8 48.2 Q 563.7 48.2, 564.6 49.2 Q 565.6 50.3, 565.6 52.3 L 565.6 59.9 L 563.5 59.9 L 563.5 52.4 Q 563.5 51.1, 563.0 50.5 Q 562.5 49.8, 561.3 49.8 Q 560.2 49.8, 559.4 50.3 Q 558.5 50.8, 557.9 51.7 L 557.9 59.9 L 555.8 59.9 L 555.8 48.4 L 557.6 48.4 L 557.8 50.0 Q 559.3 48.2, 561.8 48.2 " fill="#000000"/>
<path class="atom-7" d="M 568.4 44.1 L 570.6 44.1 L 570.6 50.8 L 578.7 50.8 L 578.7 44.1 L 580.8 44.1 L 580.8 59.9 L 578.7 59.9 L 578.7 52.6 L 570.6 52.6 L 570.6 59.9 L 568.4 59.9 L 568.4 44.1 " fill="#000000"/>
<path class="atom-8" d="M 445.7 41.8 Q 445.9 41.9, 446.6 42.2 Q 447.4 42.5, 448.2 42.7 Q 449.0 42.9, 449.8 42.9 Q 451.3 42.9, 452.2 42.2 Q 453.0 41.4, 453.0 40.2 Q 453.0 39.3, 452.6 38.8 Q 452.2 38.2, 451.5 37.9 Q 450.8 37.6, 449.7 37.3 Q 448.3 36.9, 447.5 36.5 Q 446.6 36.1, 446.0 35.2 Q 445.4 34.4, 445.4 32.9 Q 445.4 30.9, 446.8 29.7 Q 448.1 28.5, 450.8 28.5 Q 452.7 28.5, 454.7 29.4 L 454.2 31.1 Q 452.3 30.3, 450.9 30.3 Q 449.4 30.3, 448.5 30.9 Q 447.7 31.6, 447.7 32.7 Q 447.7 33.5, 448.1 34.0 Q 448.6 34.5, 449.2 34.8 Q 449.8 35.1, 450.9 35.5 Q 452.3 35.9, 453.2 36.4 Q 454.0 36.8, 454.6 37.7 Q 455.3 38.6, 455.3 40.2 Q 455.3 42.4, 453.8 43.5 Q 452.3 44.7, 449.9 44.7 Q 448.5 44.7, 447.4 44.4 Q 446.4 44.1, 445.1 43.6 L 445.7 41.8 " fill="#CCCC00"/>
<path class="atom-10" d="M 319.2 44.1 L 321.3 44.1 L 321.3 50.8 L 329.4 50.8 L 329.4 44.1 L 331.6 44.1 L 331.6 59.9 L 329.4 59.9 L 329.4 52.6 L 321.3 52.6 L 321.3 59.9 L 319.2 59.9 L 319.2 44.1 " fill="#000000"/>
<path class="atom-10" d="M 335.2 57.4 Q 335.4 57.5, 336.1 57.8 Q 336.8 58.1, 337.6 58.3 Q 338.5 58.5, 339.3 58.5 Q 340.8 58.5, 341.6 57.8 Q 342.5 57.1, 342.5 55.8 Q 342.5 54.9, 342.1 54.4 Q 341.6 53.8, 341.0 53.5 Q 340.3 53.2, 339.2 52.9 Q 337.8 52.5, 336.9 52.1 Q 336.1 51.7, 335.5 50.8 Q 334.9 50.0, 334.9 48.5 Q 334.9 46.6, 336.2 45.3 Q 337.6 44.1, 340.3 44.1 Q 342.1 44.1, 344.2 45.0 L 343.7 46.7 Q 341.8 45.9, 340.4 45.9 Q 338.8 45.9, 338.0 46.6 Q 337.1 47.2, 337.1 48.3 Q 337.1 49.1, 337.6 49.6 Q 338.0 50.2, 338.6 50.5 Q 339.3 50.7, 340.4 51.1 Q 341.8 51.5, 342.6 52.0 Q 343.5 52.4, 344.1 53.3 Q 344.7 54.2, 344.7 55.8 Q 344.7 58.0, 343.2 59.2 Q 341.8 60.3, 339.4 60.3 Q 337.9 60.3, 336.9 60.0 Q 335.8 59.7, 334.6 59.2 L 335.2 57.4 " fill="#000000"/>
<path class="atom-10" d="M 352.9 48.2 Q 354.7 48.2, 355.6 49.2 Q 356.6 50.3, 356.6 52.3 L 356.6 59.9 L 354.5 59.9 L 354.5 52.4 Q 354.5 51.1, 354.0 50.5 Q 353.5 49.8, 352.3 49.8 Q 351.3 49.8, 350.4 50.3 Q 349.5 50.8, 349.0 51.7 L 349.0 59.9 L 346.9 59.9 L 346.9 48.4 L 348.6 48.4 L 348.8 50.0 Q 350.4 48.2, 352.9 48.2 " fill="#000000"/>
<path class="atom-0" d="M 317.0,195.2 L 317.0,195.3 L 316.9,195.4 L 316.9,195.4 L 316.9,195.5 L 316.9,195.6 L 316.8,195.7 L 316.8,195.8 L 316.7,195.9 L 316.6,195.9 L 316.6,196.0 L 316.5,196.1 L 316.4,196.1 L 316.3,196.2 L 316.2,196.2 L 316.1,196.2 L 316.1,196.3 L 316.0,196.3 L 315.9,196.3 L 315.8,196.3 L 315.7,196.3 L 315.6,196.2 L 315.5,196.2 L 315.4,196.2 L 315.3,196.1 L 315.2,196.1 L 315.1,196.0 L 315.1,196.0 L 315.0,195.9 L 314.9,195.8 L 314.9,195.8 L 314.8,195.7 L 314.8,195.6 L 314.8,195.5 L 314.7,195.4 L 314.7,195.3 L 314.7,195.2 L 314.7,195.1 L 314.7,195.0 L 314.7,194.9 L 314.8,194.8 L 314.8,194.7 L 314.8,194.7 L 314.9,194.6 L 314.9,194.5 L 315.0,194.4 L 315.1,194.3 L 315.1,194.3 L 315.2,194.2 L 315.3,194.2 L 315.4,194.1 L 315.5,194.1 L 315.6,194.1 L 315.7,194.1 L 315.8,194.0 L 315.9,194.0 L 316.0,194.1 L 316.1,194.1 L 316.1,194.1 L 316.2,194.1 L 316.3,194.2 L 316.4,194.2 L 316.5,194.3 L 316.6,194.3 L 316.6,194.4 L 316.7,194.5 L 316.8,194.5 L 316.8,194.6 L 316.9,194.7 L 316.9,194.8 L 316.9,194.9 L 316.9,195.0 L 317.0,195.1 L 317.0,195.2 L 315.8,195.2 Z" style="fill:#000000;fill-rule:evenodd;fill-opacity:1;stroke:#000000;stroke-width:0.0px;stroke-linecap:butt;stroke-linejoin:miter;stroke-miterlimit:10;stroke-opacity:1;"/>
<path class="atom-0" d="M 317.0,190.7 L 317.0,190.8 L 316.9,190.9 L 316.9,191.0 L 316.9,191.1 L 316.9,191.2 L 316.8,191.2 L 316.8,191.3 L 316.7,191.4 L 316.6,191.5 L 316.6,191.5 L 316.5,191.6 L 316.4,191.6 L 316.3,191.7 L 316.2,191.7 L 316.1,191.8 L 316.1,191.8 L 316.0,191.8 L 315.9,191.8 L 315.8,191.8 L 315.7,191.8 L 315.6,191.8 L 315.5,191.7 L 315.4,191.7 L 315.3,191.7 L 315.2,191.6 L 315.1,191.6 L 315.1,191.5 L 315.0,191.4 L 314.9,191.4 L 314.9,191.3 L 314.8,191.2 L 314.8,191.1 L 314.8,191.0 L 314.7,190.9 L 314.7,190.8 L 314.7,190.7 L 314.7,190.6 L 314.7,190.5 L 314.7,190.4 L 314.8,190.4 L 314.8,190.3 L 314.8,190.2 L 314.9,190.1 L 314.9,190.0 L 315.0,189.9 L 315.1,189.9 L 315.1,189.8 L 315.2,189.8 L 315.3,189.7 L 315.4,189.7 L 315.5,189.6 L 315.6,189.6 L 315.7,189.6 L 315.8,189.6 L 315.9,189.6 L 316.0,189.6 L 316.1,189.6 L 316.1,189.6 L 316.2,189.6 L 316.3,189.7 L 316.4,189.7 L 316.5,189.8 L 316.6,189.8 L 316.6,189.9 L 316.7,190.0 L 316.8,190.1 L 316.8,190.1 L 316.9,190.2 L 316.9,190.3 L 316.9,190.4 L 316.9,190.5 L 317.0,190.6 L 317.0,190.7 L 315.8,190.7 Z" style="fill:#000000;fill-rule:evenodd;fill-opacity:1;stroke:#000000;stroke-width:0.0px;stroke-linecap:butt;stroke-linejoin:miter;stroke-miterlimit:10;stroke-opacity:1;"/>
<path class="atom-4" d="M 585.3,195.2 L 585.3,195.3 L 585.3,195.4 L 585.2,195.4 L 585.2,195.5 L 585.2,195.6 L 585.1,195.7 L 585.1,195.8 L 585.0,195.9 L 585.0,195.9 L 584.9,196.0 L 584.8,196.1 L 584.7,196.1 L 584.6,196.2 L 584.6,196.2 L 584.5,196.2 L 584.4,196.3 L 584.3,196.3 L 584.2,196.3 L 584.1,196.3 L 584.0,196.3 L 583.9,196.2 L 583.8,196.2 L 583.7,196.2 L 583.6,196.1 L 583.5,196.1 L 583.5,196.0 L 583.4,196.0 L 583.3,195.9 L 583.3,195.8 L 583.2,195.8 L 583.2,195.7 L 583.1,195.6 L 583.1,195.5 L 583.1,195.4 L 583.1,195.3 L 583.0,195.2 L 583.0,195.1 L 583.1,195.0 L 583.1,194.9 L 583.1,194.8 L 583.1,194.7 L 583.2,194.7 L 583.2,194.6 L 583.3,194.5 L 583.3,194.4 L 583.4,194.3 L 583.5,194.3 L 583.5,194.2 L 583.6,194.2 L 583.7,194.1 L 583.8,194.1 L 583.9,194.1 L 584.0,194.1 L 584.1,194.0 L 584.2,194.0 L 584.3,194.1 L 584.4,194.1 L 584.5,194.1 L 584.6,194.1 L 584.6,194.2 L 584.7,194.2 L 584.8,194.3 L 584.9,194.3 L 585.0,194.4 L 585.0,194.5 L 585.1,194.5 L 585.1,194.6 L 585.2,194.7 L 585.2,194.8 L 585.2,194.9 L 585.3,195.0 L 585.3,195.1 L 585.3,195.2 L 584.2,195.2 Z" style="fill:#000000;fill-rule:evenodd;fill-opacity:1;stroke:#000000;stroke-width:0.0px;stroke-linecap:butt;stroke-linejoin:miter;stroke-miterlimit:10;stroke-opacity:1;"/>
<path class="atom-4" d="M 585.3,190.7 L 585.3,190.8 L 585.3,190.9 L 585.2,191.0 L 585.2,191.1 L 585.2,191.2 L 585.1,191.2 L 585.1,191.3 L 585.0,191.4 L 585.0,191.5 L 584.9,191.5 L 584.8,191.6 L 584.7,191.6 L 584.6,191.7 L 584.6,191.7 L 584.5,191.8 L 584.4,191.8 L 584.3,191.8 L 584.2,191.8 L 584.1,191.8 L 584.0,191.8 L 583.9,191.8 L 583.8,191.7 L 583.7,191.7 L 583.6,191.7 L 583.5,191.6 L 583.5,191.6 L 583.4,191.5 L 583.3,191.4 L 583.3,191.4 L 583.2,191.3 L 583.2,191.2 L 583.1,191.1 L 583.1,191.0 L 583.1,190.9 L 583.1,190.8 L 583.0,190.7 L 583.0,190.6 L 583.1,190.5 L 583.1,190.4 L 583.1,190.4 L 583.1,190.3 L 583.2,190.2 L 583.2,190.1 L 583.3,190.0 L 583.3,189.9 L 583.4,189.9 L 583.5,189.8 L 583.5,189.8 L 583.6,189.7 L 583.7,189.7 L 583.8,189.6 L 583.9,189.6 L 584.0,189.6 L 584.1,189.6 L 584.2,189.6 L 584.3,189.6 L 584.4,189.6 L 584.5,189.6 L 584.6,189.6 L 584.6,189.7 L 584.7,189.7 L 584.8,189.8 L 584.9,189.8 L 585.0,189.9 L 585.0,190.0 L 585.1,190.1 L 585.1,190.1 L 585.2,190.2 L 585.2,190.3 L 585.2,190.4 L 585.3,190.5 L 585.3,190.6 L 585.3,190.7 L 584.2,190.7 Z" style="fill:#000000;fill-rule:evenodd;fill-opacity:1;stroke:#000000;stroke-width:0.0px;stroke-linecap:butt;stroke-linejoin:miter;stroke-miterlimit:10;stroke-opacity:1;"/>
<path class="atom-7" d="M 585.3,54.2 L 585.3,54.3 L 585.3,54.4 L 585.2,54.5 L 585.2,54.6 L 585.2,54.7 L 585.1,54.8 L 585.1,54.8 L 585.0,54.9 L 585.0,55.0 L 584.9,55.1 L 584.8,55.1 L 584.7,55.2 L 584.6,55.2 L 584.6,55.3 L 584.5,55.3 L 584.4,55.3 L 584.3,55.3 L 584.2,55.3 L 584.1,55.3 L 584.0,55.3 L 583.9,55.3 L 583.8,55.3 L 583.7,55.2 L 583.6,55.2 L 583.5,55.1 L 583.5,55.1 L 583.4,55.0 L 583.3,55.0 L 583.3,54.9 L 583.2,54.8 L 583.2,54.7 L 583.1,54.6 L 583.1,54.5 L 583.1,54.4 L 583.1,54.4 L 583.0,54.3 L 583.0,54.2 L 583.1,54.1 L 583.1,54.0 L 583.1,53.9 L 583.1,53.8 L 583.2,53.7 L 583.2,53.6 L 583.3,53.5 L 583.3,53.5 L 583.4,53.4 L 583.5,53.3 L 583.5,53.3 L 583.6,53.2 L 583.7,53.2 L 583.8,53.1 L 583.9,53.1 L 584.0,53.1 L 584.1,53.1 L 584.2,53.1 L 584.3,53.1 L 584.4,53.1 L 584.5,53.1 L 584.6,53.2 L 584.6,53.2 L 584.7,53.2 L 584.8,53.3 L 584.9,53.4 L 585.0,53.4 L 585.0,53.5 L 585.1,53.6 L 585.1,53.7 L 585.2,53.7 L 585.2,53.8 L 585.2,53.9 L 585.3,54.0 L 585.3,54.1 L 585.3,54.2 L 584.2,54.2 Z" style="fill:#000000;fill-rule:evenodd;fill-opacity:1;stroke:#000000;stroke-width:0.0px;stroke-linecap:butt;stroke-linejoin:miter;stroke-miterlimit:10;stroke-opacity:1;"/>
<path class="atom-7" d="M 585.3,49.7 L 585.3,49.8 L 585.3,49.9 L 585.2,50.0 L 585.2,50.1 L 585.2,50.2 L 585.1,50.3 L 585.1,50.4 L 585.0,50.4 L 585.0,50.5 L 584.9,50.6 L 584.8,50.6 L 584.7,50.7 L 584.6,50.7 L 584.6,50.8 L 584.5,50.8 L 584.4,50.8 L 584.3,50.8 L 584.2,50.9 L 584.1,50.9 L 584.0,50.8 L 583.9,50.8 L 583.8,50.8 L 583.7,50.8 L 583.6,50.7 L 583.5,50.7 L 583.5,50.6 L 583.4,50.6 L 583.3,50.5 L 583.3,50.4 L 583.2,50.3 L 583.2,50.2 L 583.1,50.2 L 583.1,50.1 L 583.1,50.0 L 583.1,49.9 L 583.0,49.8 L 583.0,49.7 L 583.1,49.6 L 583.1,49.5 L 583.1,49.4 L 583.1,49.3 L 583.2,49.2 L 583.2,49.1 L 583.3,49.1 L 583.3,49.0 L 583.4,48.9 L 583.5,48.9 L 583.5,48.8 L 583.6,48.8 L 583.7,48.7 L 583.8,48.7 L 583.9,48.6 L 584.0,48.6 L 584.1,48.6 L 584.2,48.6 L 584.3,48.6 L 584.4,48.6 L 584.5,48.7 L 584.6,48.7 L 584.6,48.7 L 584.7,48.8 L 584.8,48.8 L 584.9,48.9 L 585.0,49.0 L 585.0,49.0 L 585.1,49.1 L 585.1,49.2 L 585.2,49.3 L 585.2,49.4 L 585.2,49.4 L 585.3,49.5 L 585.3,49.6 L 585.3,49.7 L 584.2,49.7 Z" style="fill:#000000;fill-rule:evenodd;fill-opacity:1;stroke:#000000;stroke-width:0.0px;stroke-linecap:butt;stroke-linejoin:miter;stroke-miterlimit:10;stroke-opacity:1;"/>
<path class="atom-10" d="M 317.0,54.2 L 317.0,54.3 L 316.9,54.4 L 316.9,54.5 L 316.9,54.6 L 316.9,54.7 L 316.8,54.8 L 316.8,54.8 L 316.7,54.9 L 316.6,55.0 L 316.6,55.1 L 316.5,55.1 L 316.4,55.2 L 316.3,55.2 L 316.2,55.3 L 316.1,55.3 L 316.1,55.3 L 316.0,55.3 L 315.9,55.3 L 315.8,55.3 L 315.7,55.3 L 315.6,55.3 L 315.5,55.3 L 315.4,55.2 L 315.3,55.2 L 315.2,55.1 L 315.1,55.1 L 315.1,55.0 L 315.0,55.0 L 314.9,54.9 L 314.9,54.8 L 314.8,54.7 L 314.8,54.6 L 314.8,54.5 L 314.7,54.4 L 314.7,54.4 L 314.7,54.3 L 314.7,54.2 L 314.7,54.1 L 314.7,54.0 L 314.8,53.9 L 314.8,53.8 L 314.8,53.7 L 314.9,53.6 L 314.9,53.5 L 315.0,53.5 L 315.1,53.4 L 315.1,53.3 L 315.2,53.3 L 315.3,53.2 L 315.4,53.2 L 315.5,53.1 L 315.6,53.1 L 315.7,53.1 L 315.8,53.1 L 315.9,53.1 L 316.0,53.1 L 316.1,53.1 L 316.1,53.1 L 316.2,53.2 L 316.3,53.2 L 316.4,53.2 L 316.5,53.3 L 316.6,53.4 L 316.6,53.4 L 316.7,53.5 L 316.8,53.6 L 316.8,53.7 L 316.9,53.7 L 316.9,53.8 L 316.9,53.9 L 316.9,54.0 L 317.0,54.1 L 317.0,54.2 L 315.8,54.2 Z" style="fill:#000000;fill-rule:evenodd;fill-opacity:1;stroke:#000000;stroke-width:0.0px;stroke-linecap:butt;stroke-linejoin:miter;stroke-miterlimit:10;stroke-opacity:1;"/>
<path class="atom-10" d="M 317.0,49.7 L 317.0,49.8 L 316.9,49.9 L 316.9,50.0 L 316.9,50.1 L 316.9,50.2 L 316.8,50.3 L 316.8,50.4 L 316.7,50.4 L 316.6,50.5 L 316.6,50.6 L 316.5,50.6 L 316.4,50.7 L 316.3,50.7 L 316.2,50.8 L 316.1,50.8 L 316.1,50.8 L 316.0,50.8 L 315.9,50.9 L 315.8,50.9 L 315.7,50.8 L 315.6,50.8 L 315.5,50.8 L 315.4,50.8 L 315.3,50.7 L 315.2,50.7 L 315.1,50.6 L 315.1,50.6 L 315.0,50.5 L 314.9,50.4 L 314.9,50.3 L 314.8,50.2 L 314.8,50.2 L 314.8,50.1 L 314.7,50.0 L 314.7,49.9 L 314.7,49.8 L 314.7,49.7 L 314.7,49.6 L 314.7,49.5 L 314.8,49.4 L 314.8,49.3 L 314.8,49.2 L 314.9,49.1 L 314.9,49.1 L 315.0,49.0 L 315.1,48.9 L 315.1,48.9 L 315.2,48.8 L 315.3,48.8 L 315.4,48.7 L 315.5,48.7 L 315.6,48.6 L 315.7,48.6 L 315.8,48.6 L 315.9,48.6 L 316.0,48.6 L 316.1,48.6 L 316.1,48.7 L 316.2,48.7 L 316.3,48.7 L 316.4,48.8 L 316.5,48.8 L 316.6,48.9 L 316.6,49.0 L 316.7,49.0 L 316.8,49.1 L 316.8,49.2 L 316.9,49.3 L 316.9,49.4 L 316.9,49.4 L 316.9,49.5 L 317.0,49.6 L 317.0,49.7 L 315.8,49.7 Z" style="fill:#000000;fill-rule:evenodd;fill-opacity:1;stroke:#000000;stroke-width:0.0px;stroke-linecap:butt;stroke-linejoin:miter;stroke-miterlimit:10;stroke-opacity:1;"/>
<path class="legend" d="M 393.8 226.0 Q 394.2 225.2, 394.9 224.8 Q 395.7 224.3, 396.7 224.3 Q 398.0 224.3, 398.7 225.0 Q 399.5 225.7, 399.5 227.0 Q 399.5 228.2, 398.5 229.4 Q 397.6 230.6, 395.6 232.0 L 399.6 232.0 L 399.6 233.0 L 393.8 233.0 L 393.8 232.2 Q 395.4 231.0, 396.4 230.2 Q 397.3 229.3, 397.8 228.6 Q 398.2 227.8, 398.2 227.0 Q 398.2 226.2, 397.8 225.7 Q 397.4 225.3, 396.7 225.3 Q 396.0 225.3, 395.5 225.6 Q 395.1 225.8, 394.8 226.5 L 393.8 226.0 " fill="#000000"/>
<path class="legend" d="M 403.8 227.6 Q 404.6 227.6, 405.2 227.9 Q 405.8 228.3, 406.2 228.9 Q 406.5 229.5, 406.5 230.3 Q 406.5 231.2, 406.1 231.8 Q 405.7 232.4, 405.0 232.8 Q 404.3 233.1, 403.5 233.1 Q 402.7 233.1, 402.0 232.8 Q 401.2 232.5, 400.7 232.0 L 401.5 231.2 Q 401.9 231.6, 402.4 231.9 Q 402.9 232.1, 403.5 232.1 Q 404.3 232.1, 404.8 231.6 Q 405.3 231.2, 405.3 230.3 Q 405.3 229.4, 404.8 229.0 Q 404.3 228.5, 403.4 228.5 Q 402.7 228.5, 401.8 228.9 L 401.2 228.5 L 401.6 224.4 L 406.0 224.4 L 405.9 225.4 L 402.6 225.4 L 402.3 227.9 Q 403.1 227.6, 403.8 227.6 " fill="#000000"/>
<path class="legend" d="M 407.5 226.0 Q 407.9 225.2, 408.6 224.8 Q 409.4 224.3, 410.4 224.3 Q 411.7 224.3, 412.4 225.0 Q 413.2 225.7, 413.2 227.0 Q 413.2 228.2, 412.2 229.4 Q 411.3 230.6, 409.3 232.0 L 413.3 232.0 L 413.3 233.0 L 407.5 233.0 L 407.5 232.2 Q 409.1 231.0, 410.1 230.2 Q 411.0 229.3, 411.5 228.6 Q 412.0 227.8, 412.0 227.0 Q 412.0 226.2, 411.5 225.7 Q 411.1 225.3, 410.4 225.3 Q 409.7 225.3, 409.3 225.6 Q 408.8 225.8, 408.5 226.5 L 407.5 226.0 " fill="#000000"/>
<path class="legend" d="" fill="#000000"/>
<path class="legend" d="M 418.9 223.6 L 419.9 223.6 L 419.9 235.3 L 418.9 235.3 L 418.9 223.6 " fill="#000000"/>
<path class="legend" d="" fill="#000000"/>
<path class="legend" d="M 429.0 226.6 Q 430.0 226.6, 430.5 227.2 Q 431.1 227.8, 431.1 228.9 L 431.1 233.0 L 429.9 233.0 L 429.9 229.0 Q 429.9 228.2, 429.6 227.9 Q 429.4 227.5, 428.7 227.5 Q 428.2 227.5, 427.7 227.8 Q 427.2 228.1, 426.9 228.5 L 426.9 233.0 L 425.8 233.0 L 425.8 226.8 L 426.7 226.8 L 426.8 227.6 Q 427.7 226.6, 429.0 226.6 " fill="#000000"/>
<path class="legend" d="M 432.4 229.9 Q 432.4 228.4, 433.2 227.5 Q 433.9 226.6, 435.4 226.6 Q 436.8 226.6, 437.6 227.7 L 436.8 228.2 Q 436.5 227.9, 436.2 227.7 Q 435.8 227.5, 435.4 227.5 Q 434.5 227.5, 434.0 228.1 Q 433.6 228.7, 433.6 229.9 Q 433.6 231.0, 434.1 231.6 Q 434.6 232.2, 435.5 232.2 Q 436.0 232.2, 436.3 232.1 Q 436.7 232.0, 437.1 231.8 L 437.4 232.5 Q 436.5 233.1, 435.4 233.1 Q 433.9 233.1, 433.2 232.2 Q 432.4 231.4, 432.4 229.9 " fill="#000000"/>
<path class="legend" d="M 438.2 224.4 L 439.4 224.4 L 439.4 225.5 L 438.2 225.5 L 438.2 224.4 M 438.2 226.8 L 439.4 226.8 L 439.4 233.0 L 438.2 233.0 L 438.2 226.8 " fill="#000000"/>
<path class="legend" d="M 441.3 232.0 L 443.2 232.0 L 443.2 225.6 L 441.1 226.2 L 440.8 225.5 L 443.4 224.4 L 444.3 224.5 L 444.3 232.0 L 446.0 232.0 L 446.0 233.0 L 441.3 233.0 L 441.3 232.0 " fill="#000000"/>
<path class="legend" d="M 453.1 233.6 L 453.1 234.6 L 446.9 234.6 L 446.9 233.6 L 453.1 233.6 " fill="#000000"/>
<path class="legend" d="M 453.8 231.7 Q 454.4 231.9, 454.8 232.0 Q 455.2 232.2, 455.6 232.2 Q 456.1 232.2, 456.4 231.9 Q 456.7 231.7, 456.7 231.2 Q 456.7 231.0, 456.6 230.8 Q 456.4 230.6, 456.2 230.5 Q 456.0 230.4, 455.5 230.3 Q 455.4 230.2, 454.8 230.0 Q 454.3 229.9, 454.0 229.4 Q 453.7 229.0, 453.7 228.4 Q 453.7 227.7, 454.3 227.2 Q 454.8 226.6, 456.0 226.6 Q 456.4 226.6, 456.9 226.8 Q 457.3 226.9, 457.7 227.0 L 457.4 227.9 Q 457.0 227.8, 456.7 227.7 Q 456.3 227.6, 456.0 227.6 Q 455.4 227.6, 455.1 227.8 Q 454.8 228.0, 454.8 228.4 Q 454.8 228.7, 455.0 228.9 Q 455.3 229.1, 455.8 229.3 Q 455.9 229.3, 456.0 229.3 L 456.3 229.4 Q 456.8 229.6, 457.1 229.8 Q 457.5 230.0, 457.7 230.3 Q 457.9 230.7, 457.9 231.2 Q 457.9 232.1, 457.2 232.6 Q 456.6 233.1, 455.6 233.1 Q 455.0 233.1, 454.5 233.0 Q 454.0 232.8, 453.5 232.6 L 453.8 231.7 " fill="#000000"/>
<path class="legend" d="M 466.1 226.6 Q 467.2 226.6, 467.7 227.2 Q 468.3 227.8, 468.3 228.9 L 468.3 233.0 L 467.1 233.0 L 467.1 229.0 Q 467.1 228.2, 466.8 227.9 Q 466.6 227.5, 465.9 227.5 Q 465.4 227.5, 464.9 227.8 Q 464.4 228.1, 464.2 228.5 Q 464.2 228.6, 464.2 228.9 L 464.2 233.0 L 463.0 233.0 L 463.0 229.0 Q 463.0 228.2, 462.7 227.9 Q 462.5 227.5, 461.8 227.5 Q 461.3 227.5, 460.8 227.8 Q 460.4 228.1, 460.1 228.5 L 460.1 233.0 L 458.9 233.0 L 458.9 226.8 L 459.9 226.8 L 460.0 227.6 Q 460.8 226.6, 462.0 226.6 Q 463.5 226.6, 464.0 227.7 Q 464.8 226.6, 466.1 226.6 " fill="#000000"/>
<path class="legend" d="M 469.6 224.4 L 470.7 224.4 L 470.7 225.5 L 469.6 225.5 L 469.6 224.4 M 469.6 226.8 L 470.7 226.8 L 470.7 233.0 L 469.6 233.0 L 469.6 226.8 " fill="#000000"/>
<path class="legend" d="M 472.2 223.8 L 473.3 223.8 L 473.3 233.0 L 472.2 233.0 L 472.2 223.8 " fill="#000000"/>
<path class="legend" d="M 474.7 229.9 Q 474.7 228.3, 475.5 227.5 Q 476.2 226.6, 477.6 226.6 Q 479.0 226.6, 479.6 227.5 Q 480.2 228.3, 480.2 229.8 L 480.2 230.0 L 475.9 230.0 Q 475.9 231.1, 476.4 231.6 Q 476.8 232.2, 477.7 232.2 Q 478.2 232.2, 478.7 232.1 Q 479.1 232.0, 479.7 231.7 L 480.0 232.5 Q 479.4 232.8, 478.8 233.0 Q 478.3 233.1, 477.7 233.1 Q 476.3 233.1, 475.5 232.2 Q 474.7 231.4, 474.7 229.9 M 477.6 227.5 Q 476.9 227.5, 476.5 228.0 Q 476.1 228.4, 475.9 229.2 L 479.0 229.2 Q 478.9 228.3, 478.6 227.9 Q 478.3 227.5, 477.6 227.5 " fill="#000000"/>
<path class="legend" d="M 481.4 231.7 Q 482.0 231.9, 482.4 232.0 Q 482.8 232.2, 483.2 232.2 Q 483.7 232.2, 484.1 231.9 Q 484.4 231.7, 484.4 231.2 Q 484.4 231.0, 484.2 230.8 Q 484.0 230.6, 483.8 230.5 Q 483.6 230.4, 483.1 230.3 Q 483.0 230.2, 482.4 230.0 Q 481.9 229.9, 481.6 229.4 Q 481.3 229.0, 481.3 228.4 Q 481.3 227.7, 481.9 227.2 Q 482.5 226.6, 483.6 226.6 Q 484.1 226.6, 484.5 226.8 Q 484.9 226.9, 485.4 227.0 L 485.1 227.9 Q 484.7 227.8, 484.3 227.7 Q 484.0 227.6, 483.6 227.6 Q 483.0 227.6, 482.7 227.8 Q 482.4 228.0, 482.4 228.4 Q 482.4 228.7, 482.7 228.9 Q 482.9 229.1, 483.4 229.3 Q 483.5 229.3, 483.7 229.3 L 483.9 229.4 Q 484.5 229.6, 484.8 229.8 Q 485.1 230.0, 485.3 230.3 Q 485.5 230.7, 485.5 231.2 Q 485.5 232.1, 484.9 232.6 Q 484.2 233.1, 483.2 233.1 Q 482.6 233.1, 482.1 233.0 Q 481.6 232.8, 481.1 232.6 L 481.4 231.7 " fill="#000000"/>
<path class="legend" d="M 486.5 231.8 L 487.8 231.8 L 487.8 233.0 L 486.5 233.0 L 486.5 231.8 " fill="#000000"/>
<path class="legend" d="M 489.3 231.7 Q 489.8 231.9, 490.2 232.0 Q 490.6 232.2, 491.1 232.2 Q 491.6 232.2, 491.9 231.9 Q 492.2 231.7, 492.2 231.2 Q 492.2 231.0, 492.1 230.8 Q 491.9 230.6, 491.7 230.5 Q 491.5 230.4, 490.9 230.3 Q 490.9 230.2, 490.3 230.0 Q 489.7 229.9, 489.4 229.4 Q 489.2 229.0, 489.2 228.4 Q 489.2 227.7, 489.7 227.2 Q 490.3 226.6, 491.4 226.6 Q 491.9 226.6, 492.3 226.8 Q 492.8 226.9, 493.2 227.0 L 492.9 227.9 Q 492.5 227.8, 492.2 227.7 Q 491.8 227.6, 491.4 227.6 Q 490.9 227.6, 490.6 227.8 Q 490.3 228.0, 490.3 228.4 Q 490.3 228.7, 490.5 228.9 Q 490.8 229.1, 491.3 229.3 Q 491.4 229.3, 491.5 229.3 L 491.8 229.4 Q 492.3 229.6, 492.6 229.8 Q 492.9 230.0, 493.1 230.3 Q 493.4 230.7, 493.4 231.2 Q 493.4 232.1, 492.7 232.6 Q 492.1 233.1, 491.1 233.1 Q 490.5 233.1, 490.0 233.0 Q 489.5 232.8, 488.9 232.6 L 489.3 231.7 " fill="#000000"/>
<path class="legend" d="M 501.6 226.6 Q 502.7 226.6, 503.2 227.2 Q 503.7 227.8, 503.7 228.9 L 503.7 233.0 L 502.6 233.0 L 502.6 229.0 Q 502.6 228.2, 502.3 227.9 Q 502.0 227.5, 501.4 227.5 Q 500.8 227.5, 500.4 227.8 Q 499.9 228.1, 499.6 228.5 Q 499.6 228.6, 499.6 228.9 L 499.6 233.0 L 498.5 233.0 L 498.5 229.0 Q 498.5 228.2, 498.2 227.9 Q 497.9 227.5, 497.3 227.5 Q 496.8 227.5, 496.3 227.8 Q 495.8 228.1, 495.5 228.5 L 495.5 233.0 L 494.4 233.0 L 494.4 226.8 L 495.3 226.8 L 495.5 227.6 Q 496.3 226.6, 497.5 226.6 Q 499.0 226.6, 499.5 227.7 Q 500.3 226.6, 501.6 226.6 " fill="#000000"/>
<path class="legend" d="M 505.1 224.4 L 506.2 224.4 L 506.2 225.5 L 505.1 225.5 L 505.1 224.4 M 505.1 226.8 L 506.2 226.8 L 506.2 233.0 L 505.1 233.0 L 505.1 226.8 " fill="#000000"/>
<path class="legend" d="M 410.0 238.7 L 410.0 237.8 L 411.2 237.8 L 411.4 236.0 L 412.2 236.0 L 412.2 237.8 L 414.2 237.8 L 414.2 238.7 L 412.2 238.7 L 412.2 242.1 Q 412.2 243.2, 413.2 243.2 Q 413.5 243.2, 414.1 243.0 L 414.2 243.8 Q 413.6 244.1, 413.0 244.1 Q 412.1 244.1, 411.6 243.6 Q 411.1 243.1, 411.1 242.2 L 411.1 238.7 L 410.0 238.7 " fill="#000000"/>
<path class="legend" d="M 415.1 240.9 Q 415.1 239.4, 415.8 238.5 Q 416.6 237.7, 418.0 237.7 Q 419.5 237.7, 420.2 238.5 Q 421.0 239.4, 421.0 240.9 Q 421.0 242.4, 420.2 243.3 Q 419.5 244.1, 418.0 244.1 Q 416.6 244.1, 415.8 243.3 Q 415.1 242.4, 415.1 240.9 M 416.2 240.9 Q 416.2 242.0, 416.7 242.6 Q 417.2 243.2, 418.0 243.2 Q 418.9 243.2, 419.4 242.6 Q 419.8 242.0, 419.8 240.9 Q 419.8 239.8, 419.4 239.2 Q 418.9 238.6, 418.0 238.6 Q 417.2 238.6, 416.7 239.2 Q 416.2 239.8, 416.2 240.9 " fill="#000000"/>
<path class="legend" d="M 425.0 237.7 Q 426.3 237.7, 427.0 238.5 Q 427.7 239.3, 427.7 240.8 Q 427.7 242.4, 426.9 243.2 Q 426.0 244.1, 424.5 244.1 Q 423.8 244.1, 423.2 244.0 L 423.2 247.0 L 422.1 247.0 L 422.1 237.8 L 423.0 237.8 L 423.2 238.5 Q 423.5 238.1, 423.9 237.9 Q 424.4 237.7, 425.0 237.7 M 424.5 243.2 Q 425.5 243.2, 426.0 242.6 Q 426.6 242.0, 426.6 240.8 Q 426.6 239.7, 426.1 239.2 Q 425.7 238.6, 424.9 238.6 Q 424.3 238.6, 423.8 238.9 Q 423.4 239.2, 423.2 239.8 L 423.2 243.0 Q 423.8 243.2, 424.5 243.2 " fill="#000000"/>
<path class="legend" d="M 428.8 238.7 L 434.4 238.7 L 434.4 239.6 L 428.8 239.6 L 428.8 238.7 M 428.8 241.3 L 434.4 241.3 L 434.4 242.2 L 428.8 242.2 L 428.8 241.3 " fill="#000000"/>
<path class="legend" d="M 439.1 244.1 Q 437.6 244.1, 436.8 243.0 Q 436.0 241.8, 436.0 239.7 Q 436.0 237.6, 436.8 236.5 Q 437.5 235.3, 439.1 235.3 Q 440.7 235.3, 441.5 236.5 Q 442.3 237.6, 442.3 239.7 Q 442.3 241.8, 441.5 243.0 Q 440.7 244.1, 439.1 244.1 M 439.1 243.2 Q 440.1 243.2, 440.6 242.3 Q 441.1 241.4, 441.1 239.7 Q 441.1 238.0, 440.6 237.2 Q 440.1 236.3, 439.1 236.3 Q 438.2 236.3, 437.7 237.2 Q 437.2 238.0, 437.2 239.7 Q 437.2 241.4, 437.7 242.3 Q 438.2 243.2, 439.1 243.2 " fill="#000000"/>
<path class="legend" d="" fill="#000000"/>
<path class="legend" d="M 448.2 242.3 Q 448.2 241.3, 449.0 240.8 Q 449.8 240.3, 451.2 240.3 L 452.2 240.3 L 452.2 240.0 Q 452.2 239.2, 451.8 238.9 Q 451.5 238.6, 450.7 238.6 Q 450.2 238.6, 449.8 238.7 Q 449.5 238.8, 448.9 239.0 L 448.5 238.2 Q 449.7 237.7, 450.8 237.7 Q 452.1 237.7, 452.7 238.2 Q 453.3 238.8, 453.3 240.0 L 453.3 244.0 L 452.4 244.0 Q 452.4 244.0, 452.4 243.8 Q 452.3 243.6, 452.2 243.3 Q 451.4 244.2, 450.2 244.2 Q 449.3 244.2, 448.7 243.7 Q 448.2 243.2, 448.2 242.3 M 449.3 242.3 Q 449.3 242.8, 449.6 243.0 Q 449.9 243.3, 450.4 243.3 Q 450.9 243.3, 451.4 243.1 Q 451.8 242.8, 452.2 242.4 L 452.2 241.1 L 451.3 241.1 Q 450.3 241.1, 449.8 241.4 Q 449.3 241.7, 449.3 242.3 " fill="#000000"/>
<path class="legend" d="M 454.8 238.7 L 454.8 237.8 L 455.9 237.8 L 456.1 236.0 L 457.0 236.0 L 457.0 237.8 L 458.9 237.8 L 458.9 238.7 L 457.0 238.7 L 457.0 242.1 Q 457.0 243.2, 457.9 243.2 Q 458.3 243.2, 458.8 243.0 L 459.0 243.8 Q 458.3 244.1, 457.7 244.1 Q 456.9 244.1, 456.4 243.6 Q 455.8 243.1, 455.8 242.2 L 455.8 238.7 L 454.8 238.7 " fill="#000000"/>
<path class="legend" d="M 459.8 240.9 Q 459.8 239.4, 460.6 238.5 Q 461.4 237.7, 462.8 237.7 Q 464.2 237.7, 465.0 238.5 Q 465.7 239.4, 465.7 240.9 Q 465.7 242.4, 465.0 243.3 Q 464.2 244.1, 462.8 244.1 Q 461.4 244.1, 460.6 243.3 Q 459.8 242.4, 459.8 240.9 M 461.0 240.9 Q 461.0 242.0, 461.4 242.6 Q 461.9 243.2, 462.8 243.2 Q 463.6 243.2, 464.1 242.6 Q 464.6 242.0, 464.6 240.9 Q 464.6 239.8, 464.1 239.2 Q 463.6 238.6, 462.8 238.6 Q 461.9 238.6, 461.4 239.2 Q 461.0 239.8, 461.0 240.9 " fill="#000000"/>
<path class="legend" d="M 474.0 237.7 Q 475.1 237.7, 475.6 238.2 Q 476.2 238.8, 476.2 239.9 L 476.2 244.0 L 475.0 244.0 L 475.0 240.0 Q 475.0 239.2, 474.7 238.9 Q 474.4 238.6, 473.8 238.6 Q 473.3 238.6, 472.8 238.8 Q 472.3 239.1, 472.1 239.6 Q 472.1 239.7, 472.1 239.9 L 472.1 244.0 L 470.9 244.0 L 470.9 240.0 Q 470.9 239.2, 470.6 238.9 Q 470.4 238.6, 469.7 238.6 Q 469.2 238.6, 468.7 238.8 Q 468.3 239.1, 468.0 239.5 L 468.0 244.0 L 466.8 244.0 L 466.8 237.8 L 467.8 237.8 L 467.9 238.6 Q 468.7 237.7, 469.9 237.7 Q 471.4 237.7, 471.9 238.8 Q 472.7 237.7, 474.0 237.7 " fill="#000000"/>
<path class="legend" d="M 477.6 238.7 L 483.2 238.7 L 483.2 239.6 L 477.6 239.6 L 477.6 238.7 M 477.6 241.3 L 483.2 241.3 L 483.2 242.2 L 477.6 242.2 L 477.6 241.3 " fill="#000000"/>
<path class="legend" d="M 485.3 243.1 L 487.2 243.1 L 487.2 236.6 L 485.1 237.3 L 484.8 236.6 L 487.4 235.4 L 488.3 235.5 L 488.3 243.1 L 490.0 243.1 L 490.0 244.0 L 485.3 244.0 L 485.3 243.1 " fill="#000000"/>
</svg>